<svg xmlns="http://www.w3.org/2000/svg" width="30" height="30" viewBox="0 0 30 30">
    <g data-name="icon_ Search">
        <path data-name="패스 2" d="m237.2 266.981-6.9-6.9a12.2 12.2 0 0 0 2.736-9.563 12.082 12.082 0 0 0-2.253-5.571 12.327 12.327 0 0 0-19.617-.357 12.149 12.149 0 0 0-2.6 6.626 12.31 12.31 0 0 0 20.143 10.456l6.855 6.854a1.22 1.22 0 0 0 .859.355h.048a1.079 1.079 0 0 0 .789-.376 1.127 1.127 0 0 0-.062-1.525zm-6.3-14.77a10.054 10.054 0 1 1-2.947-7.114 9.994 9.994 0 0 1 2.947 7.114z" transform="translate(-208.029 -239.394)" style="fill:#0e293d"/>
        <path data-name="사각형 1773" style="fill:none" d="M0 0h30v30H0z"/>
    </g>
</svg>
