<svg xmlns="http://www.w3.org/2000/svg" width="563.123" height="317.807" viewBox="0 0 563.123 317.807">
    <defs>
        <linearGradient id="a" x1=".228" y1=".832" x2="1.003" y2="-.035" gradientUnits="objectBoundingBox">
            <stop offset="0" stop-color="#000032"/>
            <stop offset=".713" stop-color="#006fff"/>
            <stop offset="1" stop-color="#00a9ff"/>
        </linearGradient>
    </defs>
    <g data-name="simbol_00">
        <path data-name="패스 1289" d="M852.537 280.95c4.907-27.369.618-52.677-12.133-64.14-8.127-7.328-19.294-10.523-32.34-9.235-9.621.966-20.324 4.379-31.607 9.879q-6.1 2.975-12.416 6.736c-33.371-2.55-72.5 9.866-105.059 35.38-54.816 42.979-75.113 110.867-51.157 160.582a92.034 92.034 0 0 1-28.052-21.187c-39.875-44.654-21.161-128.074 32.521-176.617-4.3 2.112-8.591 4.34-12.828 6.749-49.908 28.271-84.3 70.413-96.262 111.859-7.663 26.519-6.17 52.755 6.388 74.894 1.185 2.125 2.511 4.16 3.877 6.156 35.225 51.145 123.76 57.314 202.518 12.687 3.452-1.958 6.788-3.993 10.085-6.079 30.1-19 53.85-43.082 69.511-68.648C773.7 420.654 729.009 461.663 708.35 476c31.065-1.017 64.075-12.661 92.72-35.11 54.608-42.79 74.93-110.276 51.467-159.94zm-33.191 15.443c3.813-35.02-9.634-52.909-23.08-61.989A58.907 58.907 0 0 0 778 226.276a20.884 20.884 0 0 0-1.713-.425c-.257-.052-.5-.09-.734-.129a34.481 34.481 0 0 0-1.816-.335c-1.519-.271-3.065-.476-4.61-.67q5.352-2.956 10.407-5.19c18.559-8.256 33.783-9.067 42.426-.515 3.9 3.851 6.169 9.376 6.98 16.164 1.199 7.457 2.538 31.324-9.594 61.216z" transform="translate(-498.525 -207.296)" style="fill:url(#a)"/>
        <path data-name="패스 1290" d="M678.149 245.9c-9.827 32.431-50.54 142.538-157.749 175.342 117.41 2.191 232.27-97.29 281.392-210.242z" transform="translate(-238.668 -163.322)" style="fill:#a6a6a6"/>
    </g>
    <g data-name="그룹 2823">
        <path data-name="패스 1291" d="M431.324 270.607h-7.9l-.1.134c-3.29 4.069-7.03 8.244-11.1 12.4-3.82 3.907-7.231 7.177-10.192 9.768v-22.302h-6.908v47.07h6.906V302.05l2.451-2.149 3.8-3.451c.463.517 18.852 21.229 18.852 21.229l8.426-.081s-21.846-25.452-22.263-25.935c2.753-2.632 5.7-5.72 8.795-9.2 3.182-3.6 6.378-7.392 9.5-11.286l.463-.577z"/>
        <path data-name="패스 1292" d="M496.161 270.607h-6.486s-8.432 32.871-9.077 35.381c-.631-2.511-8.8-35.381-8.8-35.381h-7.929s-8.184 32.783-8.815 35.3c-.638-2.511-8.943-35.3-8.943-35.3h-7.009l12.273 47.07h7.445l9.01-35.052c.631 2.457 9.017 35.052 9.017 35.052h7.514l12.273-47.07z"/>
        <path data-name="패스 1293" d="M506.565 270.522h-.349v47.285h16.059c6.727 0 12.1-2.276 16.005-6.747s5.854-10.165 5.854-16.966c0-6.7-1.967-12.36-5.854-16.818-3.9-4.478-9.279-6.754-16.005-6.754zm14.482 6.512c5.271 0 9.2 1.678 11.669 4.982a19.7 19.7 0 0 1 3.753 12.078 20.107 20.107 0 0 1-3.753 12.259c-2.464 3.323-6.4 5.008-11.669 5.008h-7.909v-34.323z"/>
        <path data-name="패스 1294" d="M562.769 270.607h-6.5v47.072h6.858v-47.072z"/>
    </g>
</svg>
