<svg id="obj_Stacked_Bar_Graph_01" data-name="obj_Stacked Bar Graph 01" xmlns="http://www.w3.org/2000/svg" xmlns:xlink="http://www.w3.org/1999/xlink" width="240" height="142.744" viewBox="0 0 240 142.744">
    <defs>
        <linearGradient id="linear-gradient" x1=".492" y1=".328" x2=".478" y2=".001" gradientUnits="objectBoundingBox">
            <stop offset="0" stop-color="#15afd8"/>
            <stop offset="1" stop-color="#2bfff8"/>
        </linearGradient>
        <linearGradient id="linear-gradient-2" x1=".5" y1=".666" x2=".5" y2=".045" gradientUnits="objectBoundingBox">
            <stop offset="0" stop-color="#10e0cc"/>
            <stop offset="1" stop-color="#5fe8ba"/>
        </linearGradient>
        <linearGradient id="linear-gradient-3" x1=".5" y1="1.134" x2=".5" y2=".025" gradientUnits="objectBoundingBox">
            <stop offset="0" stop-color="#0048ad"/>
            <stop offset="1" stop-color="#479fe3"/>
        </linearGradient>
        <linearGradient id="linear-gradient-4" x1=".5" y1=".19" x2=".5" y2=".001" xlink:href="#linear-gradient"/>
        <linearGradient id="linear-gradient-5" x1=".5" y1=".535" x2=".5" y2=".009" xlink:href="#linear-gradient-2"/>
        <linearGradient id="linear-gradient-6" x1=".5" y1="1.05" x2=".5" y2=".025" xlink:href="#linear-gradient-3"/>
        <linearGradient id="linear-gradient-7" x1=".5" y1=".213" x2=".5" y2="0" xlink:href="#linear-gradient"/>
        <linearGradient id="linear-gradient-8" x1=".5" y1=".55" x2=".5" y2="-.018" xlink:href="#linear-gradient-2"/>
        <linearGradient id="linear-gradient-9" x1=".5" y1="1.039" x2=".5" y2=".047" xlink:href="#linear-gradient-3"/>
        <style>
            .cls-12,.cls-2{fill:#3a4960}.cls-9{fill:url(#linear-gradient-7)}.cls-10{fill:url(#linear-gradient-8)}.cls-11{fill:url(#linear-gradient-9)}.cls-12{font-size:8px;font-family:Pretendard-ExtraBold,Pretendard;font-weight:800;letter-spacing:-.03em}
        </style>
    </defs>
    <g id="그룹_2284" data-name="그룹 2284" transform="translate(20.332)" style="opacity:.5">
        <g id="그룹_2283" data-name="그룹 2283">
            <path id="패스_772" data-name="패스 772" class="cls-2" d="M1098.051 256.273H878.383v-128.8h.679v128.253h218.99z" transform="translate(-878.383 -127.475)"/>
            <path id="패스_773" data-name="패스 773" class="cls-2" d="M883.974 319.889h-5.091v-.546h5.091zm202.464-.546h-10.123v.546h10.123zm-16.873 0h-10.123v.546h10.123zm-16.871 0h-10.123v.546h10.123zm-16.873 0H1025.7v.546h10.123zm-16.871 0h-10.123v.546h10.123zm-16.872 0h-10.123v.546h10.124zm-16.872 0h-10.123v.546h10.123zm-16.872 0h-10.123v.546h10.123zm-16.872 0h-10.123v.546h10.123zm-16.872 0h-10.123v.546h10.123zm-16.872 0H907.6v.546h10.123zm-16.872 0h-10.122v.546h10.123zm197.432 0h-5.091v.546h5.091z" transform="translate(-878.61 -214.273)"/>
            <path id="패스_774" data-name="패스 774" class="cls-2" d="M883.974 277.416h-5.091v-.546h5.091zm202.464-.546h-10.123v.546h10.123zm-16.873 0h-10.123v.546h10.123zm-16.871 0h-10.123v.546h10.123zm-16.873 0H1025.7v.546h10.123zm-16.871 0h-10.123v.546h10.123zm-16.872 0h-10.123v.546h10.124zm-16.872 0h-10.123v.546h10.123zm-16.872 0h-10.123v.546h10.123zm-16.872 0h-10.123v.546h10.123zm-16.872 0h-10.123v.546h10.123zm-16.872 0H907.6v.546h10.123zm-16.872 0h-10.122v.546h10.123zm197.432 0h-5.091v.546h5.091z" transform="translate(-878.61 -195.108)"/>
            <path id="패스_775" data-name="패스 775" class="cls-2" d="M883.974 234.942h-5.091v-.542h5.091zm202.464-.546h-10.123v.546h10.123zm-16.873 0h-10.123v.546h10.123zm-16.871 0h-10.123v.546h10.123zm-16.873 0H1025.7v.546h10.123zm-16.871 0h-10.123v.546h10.123zm-16.872 0h-10.123v.546h10.124zm-16.872 0h-10.123v.546h10.123zm-16.872 0h-10.123v.546h10.123zm-16.872 0h-10.123v.546h10.123zm-16.872 0h-10.123v.546h10.123zm-16.872 0H907.6v.546h10.123zm-16.872 0h-10.122v.546h10.123zm197.432 0h-5.091v.546h5.091z" transform="translate(-878.61 -175.879)"/>
            <path id="패스_776" data-name="패스 776" class="cls-2" d="M883.974 192.468h-5.091v-.546h5.091zm202.464-.546h-10.123v.546h10.123zm-16.873 0h-10.123v.546h10.123zm-16.871 0h-10.123v.546h10.123zm-16.873 0H1025.7v.546h10.123zm-16.871 0h-10.123v.546h10.123zm-16.872 0h-10.123v.546h10.124zm-16.872 0h-10.123v.546h10.123zm-16.872 0h-10.123v.546h10.123zm-16.872 0h-10.123v.546h10.123zm-16.872 0h-10.123v.546h10.123zm-16.872 0H907.6v.546h10.123zm-16.872 0h-10.122v.546h10.123zm197.432 0h-5.091v.546h5.091z" transform="translate(-878.61 -156.651)"/>
            <path id="패스_777" data-name="패스 777" class="cls-2" d="M883.974 149.995h-5.091v-.546h5.091zm202.464-.546h-10.123v.546h10.123zm-16.873 0h-10.123v.546h10.123zm-16.871 0h-10.123v.546h10.123zm-16.873 0H1025.7v.546h10.123zm-16.871 0h-10.123v.546h10.123zm-16.872 0h-10.123v.546h10.124zm-16.872 0h-10.123v.546h10.123zm-16.872 0h-10.123v.546h10.123zm-16.872 0h-10.123v.546h10.123zm-16.872 0h-10.123v.546h10.123zm-16.872 0H907.6v.546h10.123zm-16.872 0h-10.122v.546h10.123zm197.432 0h-5.091v.546h5.091z" transform="translate(-878.61 -137.455)"/>
        </g>
    </g>
    <path id="사각형_80" data-name="사각형 80" transform="translate(51.174 47.333)" style="fill:url(#linear-gradient)" d="M0 0h19.104v80.954H0z"/>
    <path id="사각형_81" data-name="사각형 81" transform="translate(51.174 72.794)" style="fill:url(#linear-gradient-2)" d="M0 0h19.104v55.492H0z"/>
    <path id="사각형_82" data-name="사각형 82" transform="translate(51.174 111.775)" style="fill:url(#linear-gradient-3)" d="M0 0h19.104v16.512H0z"/>
    <path id="사각형_83" data-name="사각형 83" transform="translate(101.876 31.578)" style="fill:url(#linear-gradient-4)" d="M0 0h19.104v96.708H0z"/>
    <path id="사각형_84" data-name="사각형 84" transform="translate(101.876 47.333)" style="fill:url(#linear-gradient-5)" d="M0 0h19.104v80.954H0z"/>
    <path id="사각형_85" data-name="사각형 85" transform="translate(101.876 95.263)" style="fill:url(#linear-gradient-6)" d="M0 0h19.104v33.023H0z"/>
    <path id="사각형_86" data-name="사각형 86" class="cls-9" transform="translate(153.546 5.972)" d="M0 0h19.104v122.314H0z"/>
    <path id="사각형_87" data-name="사각형 87" class="cls-10" transform="translate(153.546 28.919)" d="M0 0h19.104v99.367H0z"/>
    <path id="사각형_88" data-name="사각형 88" class="cls-11" transform="translate(153.546 85.927)" d="M0 0h19.104v42.359H0z"/>
    <g id="그룹_2288" data-name="그룹 2288" transform="translate(51.079 132.744)">
        <text id="_2018" data-name="2018" class="cls-12" transform="translate(0 8)"><tspan x="0" y="0">2018</tspan></text>
        <text id="_2019" data-name="2019" class="cls-12" transform="translate(51 8)"><tspan x="0" y="0">2019</tspan></text>
        <text id="_2020" data-name="2020" class="cls-12" transform="translate(103 8)"><tspan x="0" y="0">2020</tspan></text>
        <text id="_2021" data-name="2021" class="cls-12" transform="translate(154 8)"><tspan x="0" y="0">2021</tspan></text>
    </g>
    <g id="그룹_2294" data-name="그룹 2294" transform="translate(0 8.022)">
        <g id="그룹_2289" data-name="그룹 2289" transform="translate(2.155 93.567)">
            <path id="패스_790" data-name="패스 790" class="cls-2" d="M847.045 313.709v5.349h-.757v-4.684h-1.208v-.665z" transform="translate(-845.081 -313.648)"/>
            <path id="패스_791" data-name="패스 791" class="cls-2" d="M851.879 318.744a2.182 2.182 0 0 1-.776-.944 3.948 3.948 0 0 1 0-2.934 2.179 2.179 0 0 1 .776-.944 2.1 2.1 0 0 1 2.247 0 2.173 2.173 0 0 1 .776.944 3.948 3.948 0 0 1 0 2.934 2.176 2.176 0 0 1-.776.944 2.1 2.1 0 0 1-2.247 0zm2.155-.883a3.219 3.219 0 0 0 0-3.057 1.273 1.273 0 0 0-2.063 0 3.219 3.219 0 0 0 0 3.057 1.273 1.273 0 0 0 2.063 0z" transform="translate(-847.688 -313.597)"/>
            <path id="패스_792" data-name="패스 792" class="cls-2" d="M861.217 318.744a2.176 2.176 0 0 1-.776-.944 3.947 3.947 0 0 1 0-2.934 2.173 2.173 0 0 1 .776-.944 2.1 2.1 0 0 1 2.246 0 2.174 2.174 0 0 1 .776.944 3.948 3.948 0 0 1 0 2.934 2.177 2.177 0 0 1-.776.944 2.1 2.1 0 0 1-2.246 0zm2.155-.883a3.219 3.219 0 0 0 0-3.057 1.273 1.273 0 0 0-2.063 0 3.219 3.219 0 0 0 0 3.057 1.273 1.273 0 0 0 2.063 0z" transform="translate(-851.929 -313.597)"/>
        </g>
        <g id="그룹_2290" data-name="그룹 2290" transform="translate(.598 69.303)">
            <path id="패스_793" data-name="패스 793" class="cls-2" d="M846.247 273.888v.665H842.4v-.52l2.178-2.1a2.613 2.613 0 0 0 .535-.661 1.26 1.26 0 0 0 .138-.562.787.787 0 0 0-.294-.653 1.332 1.332 0 0 0-.844-.233 1.677 1.677 0 0 0-1.368.581l-.52-.451a2.082 2.082 0 0 1 .821-.6 2.891 2.891 0 0 1 1.135-.214 2.067 2.067 0 0 1 1.337.4 1.325 1.325 0 0 1 .5 1.089 1.845 1.845 0 0 1-.183.809 3.237 3.237 0 0 1-.7.872l-1.635 1.574z" transform="translate(-842.228 -269.143)"/>
            <path id="패스_794" data-name="패스 794" class="cls-2" d="M851.756 274.29a2.178 2.178 0 0 1-.776-.944 3.948 3.948 0 0 1 0-2.934 2.172 2.172 0 0 1 .776-.944 2.1 2.1 0 0 1 2.247 0 2.171 2.171 0 0 1 .776.944 3.948 3.948 0 0 1 0 2.934 2.177 2.177 0 0 1-.776.944 2.105 2.105 0 0 1-2.247 0zm2.155-.883a3.219 3.219 0 0 0 0-3.057 1.273 1.273 0 0 0-2.063 0 3.219 3.219 0 0 0 0 3.057 1.273 1.273 0 0 0 2.063 0z" transform="translate(-846.075 -269.143)"/>
            <path id="패스_795" data-name="패스 795" class="cls-2" d="M861.094 274.29a2.177 2.177 0 0 1-.776-.944 3.948 3.948 0 0 1 0-2.934 2.171 2.171 0 0 1 .776-.944 2.1 2.1 0 0 1 2.247 0 2.175 2.175 0 0 1 .776.944 3.948 3.948 0 0 1 0 2.934 2.182 2.182 0 0 1-.776.944 2.105 2.105 0 0 1-2.247 0zm2.155-.883a3.219 3.219 0 0 0 0-3.057 1.273 1.273 0 0 0-2.063 0 3.215 3.215 0 0 0 0 3.057 1.273 1.273 0 0 0 2.063 0z" transform="translate(-850.316 -269.143)"/>
        </g>
        <g id="그룹_2291" data-name="그룹 2291" transform="translate(.521 46.368)">
            <path id="패스_796" data-name="패스 796" class="cls-2" d="M845.665 229.968a1.407 1.407 0 0 1 .412 1.043 1.547 1.547 0 0 1-.229.829 1.577 1.577 0 0 1-.684.588 2.554 2.554 0 0 1-1.112.218 3.543 3.543 0 0 1-1.1-.172 2.348 2.348 0 0 1-.863-.478l.352-.6a2.031 2.031 0 0 0 .7.416 2.631 2.631 0 0 0 .909.157 1.509 1.509 0 0 0 .929-.252.826.826 0 0 0 .332-.7.807.807 0 0 0-.329-.688 1.656 1.656 0 0 0-.993-.245h-.429v-.535l1.345-1.65h-2.575v-.665h3.53v.52l-1.4 1.727a1.91 1.91 0 0 1 1.205.487z" transform="translate(-842.088 -227.174)"/>
            <path id="패스_797" data-name="패스 797" class="cls-2" d="M851.756 232.27a2.178 2.178 0 0 1-.776-.944 3.948 3.948 0 0 1 0-2.934 2.172 2.172 0 0 1 .776-.944 2.1 2.1 0 0 1 2.247 0 2.171 2.171 0 0 1 .776.944 3.948 3.948 0 0 1 0 2.934 2.178 2.178 0 0 1-.776.944 2.105 2.105 0 0 1-2.247 0zm2.155-.883a3.22 3.22 0 0 0 0-3.057 1.274 1.274 0 0 0-2.063 0 3.22 3.22 0 0 0 0 3.057 1.272 1.272 0 0 0 2.063 0z" transform="translate(-845.999 -227.123)"/>
            <path id="패스_798" data-name="패스 798" class="cls-2" d="M861.094 232.27a2.177 2.177 0 0 1-.776-.944 3.948 3.948 0 0 1 0-2.934 2.171 2.171 0 0 1 .776-.944 2.1 2.1 0 0 1 2.247 0 2.171 2.171 0 0 1 .776.944 3.948 3.948 0 0 1 0 2.934 2.178 2.178 0 0 1-.776.944 2.105 2.105 0 0 1-2.247 0zm2.155-.883a3.22 3.22 0 0 0 0-3.057 1.274 1.274 0 0 0-2.063 0 3.219 3.219 0 0 0 0 3.057 1.272 1.272 0 0 0 2.063 0z" transform="translate(-850.24 -227.123)"/>
        </g>
        <g id="그룹_2292" data-name="그룹 2292" transform="translate(0 24.264)">
            <path id="패스_799" data-name="패스 799" class="cls-2" d="M845.863 190.774h-1.017v1.314h-.741v-1.314h-2.972v-.535l2.735-3.5h.826l-2.622 3.378h2.056v-1.162h.718v1.162h1.017z" transform="translate(-841.133 -186.678)"/>
            <path id="패스_800" data-name="패스 800" class="cls-2" d="M851.7 191.774a2.175 2.175 0 0 1-.776-.944 3.948 3.948 0 0 1 0-2.934 2.178 2.178 0 0 1 .776-.944 2.1 2.1 0 0 1 2.247 0 2.177 2.177 0 0 1 .776.944 3.947 3.947 0 0 1 0 2.934 2.174 2.174 0 0 1-.776.944 2.1 2.1 0 0 1-2.247 0zm2.155-.883a3.22 3.22 0 0 0 0-3.057 1.273 1.273 0 0 0-2.063 0 3.22 3.22 0 0 0 0 3.057 1.273 1.273 0 0 0 2.063 0z" transform="translate(-845.45 -186.627)"/>
            <path id="패스_801" data-name="패스 801" class="cls-2" d="M861.034 191.774a2.174 2.174 0 0 1-.776-.944 3.947 3.947 0 0 1 0-2.934 2.177 2.177 0 0 1 .776-.944 2.1 2.1 0 0 1 2.247 0 2.177 2.177 0 0 1 .776.944 3.948 3.948 0 0 1 0 2.934 2.174 2.174 0 0 1-.776.944 2.1 2.1 0 0 1-2.247 0zm2.155-.883a3.219 3.219 0 0 0 0-3.057 1.273 1.273 0 0 0-2.063 0 3.22 3.22 0 0 0 0 3.057 1.273 1.273 0 0 0 2.063 0z" transform="translate(-849.691 -186.627)"/>
        </g>
        <g id="그룹_2293" data-name="그룹 2293" transform="translate(.597)">
            <path id="패스_802" data-name="패스 802" class="cls-2" d="M845.677 144.848a1.433 1.433 0 0 1 .539 1.181 1.635 1.635 0 0 1-.225.852 1.536 1.536 0 0 1-.68.6 2.572 2.572 0 0 1-1.12.218 3.5 3.5 0 0 1-1.093-.172 2.417 2.417 0 0 1-.871-.478l.351-.6a2.019 2.019 0 0 0 .7.417 2.606 2.606 0 0 0 .9.157 1.5 1.5 0 0 0 .936-.257.906.906 0 0 0-.034-1.429 2.339 2.339 0 0 0-1.253-.248h-1.215l.283-2.8h3.018v.664h-2.376l-.145 1.467h.6a2.682 2.682 0 0 1 1.685.428z" transform="translate(-842.227 -142.223)"/>
            <path id="패스_803" data-name="패스 803" class="cls-2" d="M851.755 147.319a2.18 2.18 0 0 1-.776-.944 3.948 3.948 0 0 1 0-2.934 2.171 2.171 0 0 1 .776-.944 2.1 2.1 0 0 1 2.247 0 2.17 2.17 0 0 1 .776.944 3.948 3.948 0 0 1 0 2.934 2.179 2.179 0 0 1-.776.944 2.108 2.108 0 0 1-2.247 0zm2.155-.883a3.219 3.219 0 0 0 0-3.057 1.274 1.274 0 0 0-2.063 0 3.219 3.219 0 0 0 0 3.057 1.272 1.272 0 0 0 2.063 0z" transform="translate(-846.074 -142.172)"/>
            <path id="패스_804" data-name="패스 804" class="cls-2" d="M861.093 147.319a2.181 2.181 0 0 1-.776-.944 3.948 3.948 0 0 1 0-2.934 2.172 2.172 0 0 1 .776-.944 2.1 2.1 0 0 1 2.247 0 2.175 2.175 0 0 1 .775.944 3.947 3.947 0 0 1 0 2.934 2.184 2.184 0 0 1-.775.944 2.108 2.108 0 0 1-2.247 0zm2.155-.883a3.219 3.219 0 0 0 0-3.057 1.274 1.274 0 0 0-2.063 0 3.219 3.219 0 0 0 0 3.057 1.272 1.272 0 0 0 2.063 0z" transform="translate(-850.315 -142.172)"/>
        </g>
    </g>
    <path id="사각형_97" data-name="사각형 97" class="cls-9" transform="translate(204.291 21.753)" d="M0 0h19.104v106.533H0z"/>
    <path id="사각형_98" data-name="사각형 98" class="cls-10" transform="translate(204.291 44.356)" d="M0 0h19.104v83.93H0z"/>
    <path id="사각형_99" data-name="사각형 99" class="cls-11" transform="translate(204.291 85.927)" d="M0 0h19.104v42.359H0z"/>
</svg>
