<svg id="obj_Stacked_Bar_Graph_02" data-name="obj_Stacked Bar Graph 02" xmlns="http://www.w3.org/2000/svg" width="270" height="148.998" viewBox="0 0 270 148.998">
    <defs>
        <linearGradient id="linear-gradient" y1=".5" x2="1" y2=".5" gradientUnits="objectBoundingBox">
            <stop offset="0" stop-color="#10e0cc"/>
            <stop offset="1" stop-color="#5fe8ba"/>
        </linearGradient>
        <linearGradient id="linear-gradient-2" y1=".5" x2="1" y2=".5" gradientUnits="objectBoundingBox">
            <stop offset="0" stop-color="#0075cf"/>
            <stop offset="1" stop-color="#40ccff"/>
        </linearGradient>
        <linearGradient id="linear-gradient-3" y1=".5" x2="1" y2=".5" gradientUnits="objectBoundingBox">
            <stop offset="0" stop-color="#15afd8"/>
            <stop offset="1" stop-color="#2bfff8"/>
        </linearGradient>
        <style>
            .cls-2{fill:#3a4960}.cls-3{fill:#98b7c9}
        </style>
    </defs>
    <g id="그룹_2296" data-name="그룹 2296" transform="translate(22.538)" style="opacity:.5">
        <g id="그룹_2295" data-name="그룹 2295">
            <path id="패스_805" data-name="패스 805" class="cls-2" d="M934.24 675.829H688.116V547.475h.48v127.809H934.24z" transform="translate(-688.116 -547.475)"/>
            <path id="패스_806" data-name="패스 806" class="cls-2" d="M692.216 739.889h-3.6v-.546h3.6zm233.731-.546h-7.381v.546h7.381zm-12.3 0h-7.381v.546h7.381zm-12.3 0h-7.381v.546h7.381zm-12.3 0h-7.387v.546h7.381zm-12.3 0h-7.381v.546h7.381zm-12.3 0h-7.381v.546h7.381zm-12.3 0h-7.381v.546h7.381zm-12.3 0h-7.381v.546h7.381zm-12.3 0h-7.381v.546h7.381zm-12.3 0h-7.381v.546h7.381zm-12.3 0h-7.381v.546h7.381zm-12.3 0h-7.381v.546h7.381zm-12.3 0h-7.381v.546h7.381zm-12.3 0h-7.381v.546h7.381zm-12.3 0h-7.381v.546h7.381zm-12.3 0h-7.381v.546h7.381zm-12.3 0h-7.407v.546h7.381zm-12.3 0h-7.381v.546h7.381zm-12.3 0h-7.381v.546h7.381zm229.949 0h-3.6v.546h3.6z" transform="translate(-688.343 -634.718)"/>
            <path id="패스_807" data-name="패스 807" class="cls-2" d="M692.216 697.415h-3.6v-.546h3.6zm233.731-.546h-7.381v.546h7.381zm-12.3 0h-7.381v.546h7.381zm-12.3 0h-7.381v.546h7.381zm-12.3 0h-7.387v.546h7.381zm-12.3 0h-7.381v.546h7.381zm-12.3 0h-7.381v.546h7.381zm-12.3 0h-7.381v.546h7.381zm-12.3 0h-7.381v.546h7.381zm-12.3 0h-7.381v.546h7.381zm-12.3 0h-7.381v.546h7.381zm-12.3 0h-7.381v.546h7.381zm-12.3 0h-7.381v.546h7.381zm-12.3 0h-7.381v.546h7.381zm-12.3 0h-7.381v.546h7.381zm-12.3 0h-7.381v.546h7.381zm-12.3 0h-7.381v.546h7.381zm-12.3 0h-7.407v.546h7.381zm-12.3 0h-7.381v.546h7.381zm-12.3 0h-7.381v.546h7.381zm229.949 0h-3.6v.546h3.6z" transform="translate(-688.343 -615.391)"/>
            <path id="패스_808" data-name="패스 808" class="cls-2" d="M692.216 654.942h-3.6v-.542h3.6zm233.731-.546h-7.381v.546h7.381zm-12.3 0h-7.381v.546h7.381zm-12.3 0h-7.381v.546h7.381zm-12.3 0h-7.387v.546h7.381zm-12.3 0h-7.381v.546h7.381zm-12.3 0h-7.381v.546h7.381zm-12.3 0h-7.381v.546h7.381zm-12.3 0h-7.381v.546h7.381zm-12.3 0h-7.381v.546h7.381zm-12.3 0h-7.381v.546h7.381zm-12.3 0h-7.381v.546h7.381zm-12.3 0h-7.381v.546h7.381zm-12.3 0h-7.381v.546h7.381zm-12.3 0h-7.381v.546h7.381zm-12.3 0h-7.381v.546h7.381zm-12.3 0h-7.381v.546h7.381zm-12.3 0h-7.407v.546h7.381zm-12.3 0h-7.381v.546h7.381zm-12.3 0h-7.381v.546h7.381zm229.949 0h-3.6v.546h3.6z" transform="translate(-688.343 -596.082)"/>
            <path id="패스_809" data-name="패스 809" class="cls-2" d="M692.216 612.468h-3.6v-.546h3.6zm233.731-.546h-7.381v.546h7.381zm-12.3 0h-7.381v.546h7.381zm-12.3 0h-7.381v.546h7.381zm-12.3 0h-7.387v.546h7.381zm-12.3 0h-7.381v.546h7.381zm-12.3 0h-7.381v.546h7.381zm-12.3 0h-7.381v.546h7.381zm-12.3 0h-7.381v.546h7.381zm-12.3 0h-7.381v.546h7.381zm-12.3 0h-7.381v.546h7.381zm-12.3 0h-7.381v.546h7.381zm-12.3 0h-7.381v.546h7.381zm-12.3 0h-7.381v.546h7.381zm-12.3 0h-7.381v.546h7.381zm-12.3 0h-7.381v.546h7.381zm-12.3 0h-7.381v.546h7.381zm-12.3 0h-7.407v.546h7.381zm-12.3 0h-7.381v.546h7.381zm-12.3 0h-7.381v.546h7.381zm229.949 0h-3.6v.546h3.6z" transform="translate(-688.343 -576.773)"/>
            <path id="패스_810" data-name="패스 810" class="cls-2" d="M692.216 569.995h-3.6v-.546h3.6zm233.731-.546h-7.381v.546h7.381zm-12.3 0h-7.381v.546h7.381zm-12.3 0h-7.381v.546h7.381zm-12.3 0h-7.387v.546h7.381zm-12.3 0h-7.381v.546h7.381zm-12.3 0h-7.381v.546h7.381zm-12.3 0h-7.381v.546h7.381zm-12.3 0h-7.381v.546h7.381zm-12.3 0h-7.381v.546h7.381zm-12.3 0h-7.381v.546h7.381zm-12.3 0h-7.381v.546h7.381zm-12.3 0h-7.381v.546h7.381zm-12.3 0h-7.381v.546h7.381zm-12.3 0h-7.381v.546h7.381zm-12.3 0h-7.381v.546h7.381zm-12.3 0h-7.381v.546h7.381zm-12.3 0h-7.407v.546h7.381zm-12.3 0h-7.381v.546h7.381zm-12.3 0h-7.381v.546h7.381zm229.949 0h-3.6v.546h3.6z" transform="translate(-688.343 -557.455)"/>
        </g>
    </g>
    <g id="그룹_2304" data-name="그룹 2304" transform="translate(0 7.476)">
        <g id="그룹_2303" data-name="그룹 2303">
            <g id="그룹_2297" data-name="그룹 2297" transform="translate(4.44 93.486)">
                <path id="패스_811" data-name="패스 811" class="cls-2" d="M656.923 732.709v5.349h-.756v-4.684h-1.208v-.665z" transform="translate(-654.959 -732.648)"/>
                <path id="패스_812" data-name="패스 812" class="cls-2" d="M661.757 737.744a2.176 2.176 0 0 1-.776-.944 3.948 3.948 0 0 1 0-2.934 2.173 2.173 0 0 1 .776-.944 2.1 2.1 0 0 1 2.247 0 2.174 2.174 0 0 1 .776.944 3.948 3.948 0 0 1 0 2.934 2.177 2.177 0 0 1-.776.944 2.1 2.1 0 0 1-2.247 0zm2.155-.883a3.219 3.219 0 0 0 0-3.057 1.273 1.273 0 0 0-2.063 0 3.219 3.219 0 0 0 0 3.057 1.273 1.273 0 0 0 2.063 0z" transform="translate(-657.566 -732.597)"/>
                <path id="패스_813" data-name="패스 813" class="cls-2" d="M671.1 737.744a2.178 2.178 0 0 1-.776-.944 3.948 3.948 0 0 1 0-2.934 2.175 2.175 0 0 1 .776-.944 2.105 2.105 0 0 1 2.247 0 2.174 2.174 0 0 1 .776.944 3.948 3.948 0 0 1 0 2.934 2.178 2.178 0 0 1-.776.944 2.1 2.1 0 0 1-2.247 0zm2.155-.883a3.219 3.219 0 0 0 0-3.057 1.273 1.273 0 0 0-2.063 0 3.219 3.219 0 0 0 0 3.057 1.273 1.273 0 0 0 2.063 0z" transform="translate(-661.807 -732.597)"/>
            </g>
            <g id="그룹_2298" data-name="그룹 2298" transform="translate(12.67 114.649)">
                <path id="패스_814" data-name="패스 814" class="cls-2" d="M671.1 776.551a2.179 2.179 0 0 1-.776-.944 3.948 3.948 0 0 1 0-2.934 2.178 2.178 0 0 1 .776-.944 2.105 2.105 0 0 1 2.247 0 2.178 2.178 0 0 1 .776.944 3.948 3.948 0 0 1 0 2.934 2.179 2.179 0 0 1-.776.944 2.105 2.105 0 0 1-2.247 0zm2.155-.883a3.219 3.219 0 0 0 0-3.057 1.273 1.273 0 0 0-2.063 0 3.219 3.219 0 0 0 0 3.057 1.272 1.272 0 0 0 2.063 0z" transform="translate(-670.037 -771.404)"/>
            </g>
            <g id="그룹_2299" data-name="그룹 2299" transform="translate(1.346 69.243)">
                <path id="패스_815" data-name="패스 815" class="cls-2" d="M653.31 692.888v.665h-3.844v-.52l2.177-2.1a2.589 2.589 0 0 0 .535-.661 1.261 1.261 0 0 0 .138-.562.786.786 0 0 0-.294-.653 1.333 1.333 0 0 0-.845-.233 1.677 1.677 0 0 0-1.367.581l-.52-.451a2.083 2.083 0 0 1 .822-.6 2.888 2.888 0 0 1 1.134-.214 2.068 2.068 0 0 1 1.338.4 1.326 1.326 0 0 1 .5 1.089 1.847 1.847 0 0 1-.183.809 3.232 3.232 0 0 1-.7.872l-1.635 1.574z" transform="translate(-649.29 -688.143)"/>
                <path id="패스_816" data-name="패스 816" class="cls-2" d="M658.818 693.29a2.178 2.178 0 0 1-.776-.944 3.948 3.948 0 0 1 0-2.934 2.171 2.171 0 0 1 .776-.944 2.105 2.105 0 0 1 2.247 0 2.171 2.171 0 0 1 .776.944 3.948 3.948 0 0 1 0 2.934 2.178 2.178 0 0 1-.776.944 2.105 2.105 0 0 1-2.247 0zm2.155-.883a3.219 3.219 0 0 0 0-3.057 1.273 1.273 0 0 0-2.063 0 3.219 3.219 0 0 0 0 3.057 1.273 1.273 0 0 0 2.063 0z" transform="translate(-653.137 -688.143)"/>
                <path id="패스_817" data-name="패스 817" class="cls-2" d="M668.156 693.29a2.178 2.178 0 0 1-.776-.944 3.948 3.948 0 0 1 0-2.934 2.171 2.171 0 0 1 .776-.944 2.106 2.106 0 0 1 2.247 0 2.171 2.171 0 0 1 .776.944 3.948 3.948 0 0 1 0 2.934 2.178 2.178 0 0 1-.776.944 2.106 2.106 0 0 1-2.247 0zm2.155-.883a3.219 3.219 0 0 0 0-3.057 1.273 1.273 0 0 0-2.063 0 3.219 3.219 0 0 0 0 3.057 1.273 1.273 0 0 0 2.063 0z" transform="translate(-657.378 -688.143)"/>
            </g>
            <g id="그룹_2300" data-name="그룹 2300" transform="translate(1.263 46.328)">
                <path id="패스_818" data-name="패스 818" class="cls-2" d="M652.713 648.968a1.405 1.405 0 0 1 .413 1.043 1.543 1.543 0 0 1-.229.829 1.573 1.573 0 0 1-.684.588 2.551 2.551 0 0 1-1.112.218 3.544 3.544 0 0 1-1.1-.172 2.352 2.352 0 0 1-.864-.478l.352-.6a2.027 2.027 0 0 0 .7.416 2.628 2.628 0 0 0 .909.157 1.507 1.507 0 0 0 .928-.252.825.825 0 0 0 .332-.7.807.807 0 0 0-.329-.688 1.658 1.658 0 0 0-.993-.245h-.428v-.535l1.345-1.651h-2.575v-.665h3.53v.52l-1.4 1.727a1.909 1.909 0 0 1 1.205.488z" transform="translate(-649.137 -646.174)"/>
                <path id="패스_819" data-name="패스 819" class="cls-2" d="M658.805 651.27a2.178 2.178 0 0 1-.776-.944 3.948 3.948 0 0 1 0-2.934 2.171 2.171 0 0 1 .776-.944 2.1 2.1 0 0 1 2.247 0 2.169 2.169 0 0 1 .776.944 3.947 3.947 0 0 1 0 2.934 2.176 2.176 0 0 1-.776.944 2.105 2.105 0 0 1-2.247 0zm2.155-.883a3.219 3.219 0 0 0 0-3.057 1.274 1.274 0 0 0-2.063 0 3.22 3.22 0 0 0 0 3.057 1.272 1.272 0 0 0 2.063 0z" transform="translate(-653.048 -646.123)"/>
                <path id="패스_820" data-name="패스 820" class="cls-2" d="M668.143 651.27a2.177 2.177 0 0 1-.776-.944 3.948 3.948 0 0 1 0-2.934 2.171 2.171 0 0 1 .776-.944 2.1 2.1 0 0 1 2.247 0 2.171 2.171 0 0 1 .776.944 3.948 3.948 0 0 1 0 2.934 2.177 2.177 0 0 1-.776.944 2.105 2.105 0 0 1-2.247 0zm2.155-.883a3.219 3.219 0 0 0 0-3.057 1.274 1.274 0 0 0-2.063 0 3.22 3.22 0 0 0 0 3.057 1.272 1.272 0 0 0 2.063 0z" transform="translate(-657.289 -646.123)"/>
            </g>
            <g id="그룹_2301" data-name="그룹 2301" transform="translate(0 24.243)">
                <path id="패스_821" data-name="패스 821" class="cls-2" d="M651.554 609.774h-1.017v1.314h-.737v-1.314h-2.972v-.535l2.735-3.5h.826l-2.622 3.378h2.056v-1.162h.718v1.162h1.017z" transform="translate(-646.824 -605.678)"/>
                <path id="패스_822" data-name="패스 822" class="cls-2" d="M657.387 610.774a2.175 2.175 0 0 1-.776-.944 3.948 3.948 0 0 1 0-2.934 2.177 2.177 0 0 1 .776-.944 2.1 2.1 0 0 1 2.247 0 2.177 2.177 0 0 1 .776.944 3.948 3.948 0 0 1 0 2.934 2.175 2.175 0 0 1-.776.944 2.105 2.105 0 0 1-2.247 0zm2.155-.883a3.219 3.219 0 0 0 0-3.057 1.273 1.273 0 0 0-2.063 0 3.219 3.219 0 0 0 0 3.057 1.273 1.273 0 0 0 2.063 0z" transform="translate(-651.141 -605.627)"/>
                <path id="패스_823" data-name="패스 823" class="cls-2" d="M666.725 610.774a2.175 2.175 0 0 1-.776-.944 3.948 3.948 0 0 1 0-2.934 2.176 2.176 0 0 1 .776-.944 2.1 2.1 0 0 1 2.247 0 2.177 2.177 0 0 1 .776.944 3.948 3.948 0 0 1 0 2.934 2.175 2.175 0 0 1-.776.944 2.105 2.105 0 0 1-2.247 0zm2.155-.883a3.219 3.219 0 0 0 0-3.057 1.273 1.273 0 0 0-2.063 0 3.219 3.219 0 0 0 0 3.057 1.273 1.273 0 0 0 2.063 0z" transform="translate(-655.382 -605.627)"/>
            </g>
            <g id="그룹_2302" data-name="그룹 2302" transform="translate(1.323)">
                <path id="패스_824" data-name="패스 824" class="cls-2" d="M652.7 563.848a1.432 1.432 0 0 1 .539 1.181 1.635 1.635 0 0 1-.225.852 1.535 1.535 0 0 1-.68.6 2.57 2.57 0 0 1-1.119.218 3.5 3.5 0 0 1-1.093-.172 2.418 2.418 0 0 1-.871-.478l.352-.6a2.02 2.02 0 0 0 .7.417 2.61 2.61 0 0 0 .9.157 1.5 1.5 0 0 0 .936-.257.906.906 0 0 0-.034-1.429 2.339 2.339 0 0 0-1.253-.248h-1.215l.283-2.8h3.018v.664h-2.376l-.145 1.467h.6a2.683 2.683 0 0 1 1.683.428z" transform="translate(-649.247 -561.223)"/>
                <path id="패스_825" data-name="패스 825" class="cls-2" d="M658.775 566.319a2.18 2.18 0 0 1-.776-.944 3.948 3.948 0 0 1 0-2.934 2.172 2.172 0 0 1 .776-.944 2.1 2.1 0 0 1 2.247 0 2.171 2.171 0 0 1 .776.944 3.948 3.948 0 0 1 0 2.934 2.179 2.179 0 0 1-.776.944 2.108 2.108 0 0 1-2.247 0zm2.155-.883a3.22 3.22 0 0 0 0-3.057 1.273 1.273 0 0 0-2.063 0 3.22 3.22 0 0 0 0 3.057 1.272 1.272 0 0 0 2.063 0z" transform="translate(-653.094 -561.172)"/>
                <path id="패스_826" data-name="패스 826" class="cls-2" d="M668.113 566.319a2.18 2.18 0 0 1-.776-.944 3.948 3.948 0 0 1 0-2.934 2.172 2.172 0 0 1 .776-.944 2.1 2.1 0 0 1 2.247 0 2.175 2.175 0 0 1 .776.944 3.948 3.948 0 0 1 0 2.934 2.183 2.183 0 0 1-.776.944 2.108 2.108 0 0 1-2.247 0zm2.155-.883a3.22 3.22 0 0 0 0-3.057 1.273 1.273 0 0 0-2.063 0 3.22 3.22 0 0 0 0 3.057 1.272 1.272 0 0 0 2.063 0z" transform="translate(-657.335 -561.172)"/>
            </g>
        </g>
    </g>
    <g id="그룹_2316" data-name="그룹 2316" transform="translate(12.848 134.807)">
        <g id="그룹_2305" data-name="그룹 2305" transform="translate(0 1.896)">
            <path id="패스_827" data-name="패스 827" class="cls-2" d="M674.13 813.589a1.7 1.7 0 0 1-.872.068l-.054-.681a1.321 1.321 0 0 0 1.237-.341.846.846 0 0 0 .289-.678 1.226 1.226 0 0 0-.408-.737l-2.122-2.12-1.367 1.367-.47-.471 1.9-1.9 2.567 2.567a1.87 1.87 0 0 1 .643 1.242 1.641 1.641 0 0 1-.567 1.2 2 2 0 0 1-.776.484z" transform="translate(-670.362 -802.645)"/>
            <path id="패스_828" data-name="패스 828" class="cls-2" d="M679.794 804.8a1.591 1.591 0 0 1 1.187.553l1.729 1.729-.492.492-.378-.378a1.163 1.163 0 0 1-.065.675 1.988 1.988 0 0 1-.465.676 1.682 1.682 0 0 1-1 .537 1.052 1.052 0 0 1-.9-.322 1.064 1.064 0 0 1-.332-.883 1.922 1.922 0 0 1 .646-1.105l.821-.821-.1-.1a.933.933 0 0 0-.708-.319 1.161 1.161 0 0 0-.751.394 2.127 2.127 0 0 0-.413.581 1.81 1.81 0 0 0-.187.635l-.605-.173a2.228 2.228 0 0 1 .257-.8 3.116 3.116 0 0 1 .558-.748 1.83 1.83 0 0 1 1.198-.623zm1.583 2.615a1.069 1.069 0 0 0-.062-.689l-.4-.4-.8.8q-.659.66-.217 1.1a.567.567 0 0 0 .508.173 1.076 1.076 0 0 0 .589-.341 1.355 1.355 0 0 0 .382-.643z" transform="translate(-673.729 -801.15)"/>
            <path id="패스_829" data-name="패스 829" class="cls-2" d="M686.016 798.113a1.761 1.761 0 0 1 1.249.6l1.648 1.648-.519.519-1.594-1.58a1.249 1.249 0 0 0-.827-.427 1.069 1.069 0 0 0-.783.362 1.262 1.262 0 0 0-.418.91 1.358 1.358 0 0 0 .462.949l1.475 1.475-.519.519-2.863-2.864.5-.5.432.432a1.427 1.427 0 0 1 .083-.765 2.1 2.1 0 0 1 .489-.727 1.67 1.67 0 0 1 1.185-.551z" transform="translate(-676.252 -798.113)"/>
        </g>
        <g id="그룹_2306" data-name="그룹 2306" transform="translate(26.128 1.528)">
            <path id="패스_830" data-name="패스 830" class="cls-2" d="m719.241 809.5 1.319 1.318 1.9-1.9.465.464-1.9 1.9 1.529 1.529-.54.541-3.783-3.783 2.67-2.67.47.471z" transform="translate(-718.231 -801.735)"/>
            <path id="패스_831" data-name="패스 831" class="cls-2" d="m730.513 805.015-2.324 2.324a1.27 1.27 0 0 0 .94.276 1.538 1.538 0 0 0 .935-.476 1.5 1.5 0 0 0 .481-1.173l.621.049a1.768 1.768 0 0 1-.138.829 2.571 2.571 0 0 1-1.518 1.384 1.883 1.883 0 0 1-1.065.021 2.111 2.111 0 0 1-.948-.564 2.142 2.142 0 0 1-.565-.938 1.879 1.879 0 0 1-.008-1.035 2.059 2.059 0 0 1 .551-.924 2.024 2.024 0 0 1 .919-.546 1.848 1.848 0 0 1 1.024.019 2.25 2.25 0 0 1 .949.585 2.176 2.176 0 0 1 .146.169zm-3 1.062a1.293 1.293 0 0 0 .3.889l1.837-1.837a1.3 1.3 0 0 0-.886-.3 1.369 1.369 0 0 0-1.25 1.245z" transform="translate(-722.148 -800.5)"/>
            <path id="패스_832" data-name="패스 832" class="cls-2" d="M733.418 797.512a1.87 1.87 0 0 1 1.029 0 2.342 2.342 0 0 1 1.527 1.527 1.858 1.858 0 0 1 0 1.032 2.134 2.134 0 0 1-.562.929 1.912 1.912 0 0 1-.708.459 1.585 1.585 0 0 1-.8.076l.454.454-.5.5-4.01-4.01.519-.518 1.578 1.577a1.55 1.55 0 0 1 .09-.776 1.935 1.935 0 0 1 .451-.683 2.134 2.134 0 0 1 .932-.567zm1.864 2.452a1.282 1.282 0 0 0-.01-.7 1.64 1.64 0 0 0-1.053-1.053 1.278 1.278 0 0 0-.7-.009 1.478 1.478 0 0 0-.986.986 1.244 1.244 0 0 0 .009.7 1.546 1.546 0 0 0 .4.651 1.529 1.529 0 0 0 .651.4 1.258 1.258 0 0 0 .7.011 1.44 1.44 0 0 0 .986-.986z" transform="translate(-723.509 -797.438)"/>
        </g>
        <g id="그룹_2307" data-name="그룹 2307" transform="translate(48.445 .535)">
            <path id="패스_833" data-name="패스 833" class="cls-2" d="m773.349 808.973-2.761-2.75.93 3.664-.249.248-3.647-.914 2.739 2.74-.519.519-3.782-3.78.443-.444 4.236 1.081-1.1-4.215.443-.442 3.787 3.776z" transform="translate(-766.06 -799.733)"/>
            <path id="패스_834" data-name="패스 834" class="cls-2" d="M779.444 801.315a1.594 1.594 0 0 1 1.186.554l1.729 1.729-.492.492-.378-.378a1.151 1.151 0 0 1-.065.675 1.985 1.985 0 0 1-.464.676 1.683 1.683 0 0 1-1 .537 1.129 1.129 0 0 1-1.231-1.2 1.919 1.919 0 0 1 .645-1.105l.821-.821-.1-.1a.935.935 0 0 0-.707-.319 1.162 1.162 0 0 0-.751.395 2.127 2.127 0 0 0-.413.581 1.83 1.83 0 0 0-.187.635l-.6-.172a2.222 2.222 0 0 1 .256-.8 3.132 3.132 0 0 1 .559-.748 1.833 1.833 0 0 1 1.192-.631zm1.583 2.615a1.067 1.067 0 0 0-.062-.688l-.4-.4-.8.8q-.66.66-.216 1.1a.568.568 0 0 0 .508.172 1.085 1.085 0 0 0 .589-.341 1.356 1.356 0 0 0 .381-.643z" transform="translate(-771.222 -798.206)"/>
            <path id="패스_835" data-name="패스 835" class="cls-2" d="M783.978 796.392a2.059 2.059 0 0 1 .513-.773l.5.5a1.41 1.41 0 0 0-.125.114 1.234 1.234 0 0 0-.411.913 1.407 1.407 0 0 0 .475.956l1.427 1.426-.518.519-2.864-2.864.5-.5.48.481a1.252 1.252 0 0 1 .023-.772z" transform="translate(-773.744 -795.619)"/>
        </g>
        <g id="그룹_2308" data-name="그룹 2308" transform="translate(74.235 .907)">
            <path id="패스_836" data-name="패스 836" class="cls-2" d="m821.031 810.381-2.01 2.01.529 1.361-.556.556-2.07-5.494.535-.535 5.5 2.064-.567.568zm-.621-.243-2.669-1.038 1.037 2.67z" transform="translate(-816.924 -801.741)"/>
            <path id="패스_837" data-name="패스 837" class="cls-2" d="M826.047 802a1.86 1.86 0 0 1 1.03 0 2.152 2.152 0 0 1 .949.575 2.177 2.177 0 0 1 .578.951 1.86 1.86 0 0 1 0 1.032 2.125 2.125 0 0 1-.562.93 1.876 1.876 0 0 1-.683.446 1.669 1.669 0 0 1-.782.09l1.481 1.48-.518.518-3.912-3.912.5-.5.454.453a1.548 1.548 0 0 1 .079-.8 1.93 1.93 0 0 1 .461-.7 2.12 2.12 0 0 1 .925-.563zm1.865 2.453a1.287 1.287 0 0 0-.011-.7 1.51 1.51 0 0 0-.4-.654 1.526 1.526 0 0 0-.654-.4 1.273 1.273 0 0 0-.7-.008 1.4 1.4 0 0 0-.618.371 1.351 1.351 0 0 0-.362.616 1.3 1.3 0 0 0 .008.7 1.493 1.493 0 0 0 .4.651 1.542 1.542 0 0 0 .651.4 1.26 1.26 0 0 0 .7.01 1.443 1.443 0 0 0 .986-.986z" transform="translate(-819.968 -798.856)"/>
            <path id="패스_838" data-name="패스 838" class="cls-2" d="M831.378 797.074a2.053 2.053 0 0 1 .513-.773l.5.5a1.4 1.4 0 0 0-.124.113 1.232 1.232 0 0 0-.411.914 1.4 1.4 0 0 0 .475.956l1.426 1.427-.519.519-2.863-2.863.5-.5.481.481a1.255 1.255 0 0 1 .022-.774z" transform="translate(-823.035 -796.301)"/>
        </g>
        <g id="그룹_2309" data-name="그룹 2309" transform="translate(96.745)">
            <path id="패스_839" data-name="패스 839" class="cls-2" d="m868.821 809.665-2.761-2.75.93 3.663-.248.248-3.647-.913 2.74 2.739-.519.519-3.782-3.782.443-.443 4.236 1.08-1.1-4.214.443-.443 3.788 3.777z" transform="translate(-861.532 -799.512)"/>
            <path id="패스_840" data-name="패스 840" class="cls-2" d="M874.915 802.007a1.593 1.593 0 0 1 1.186.553l1.729 1.729-.492.492-.378-.379a1.156 1.156 0 0 1-.065.676 1.985 1.985 0 0 1-.464.675 1.687 1.687 0 0 1-1 .538 1.129 1.129 0 0 1-1.232-1.205 1.917 1.917 0 0 1 .645-1.1l.821-.821-.1-.1a.934.934 0 0 0-.707-.319 1.156 1.156 0 0 0-.751.394 2.137 2.137 0 0 0-.413.581 1.806 1.806 0 0 0-.187.635l-.6-.174a2.219 2.219 0 0 1 .256-.8 3.142 3.142 0 0 1 .56-.748 1.831 1.831 0 0 1 1.192-.627zm1.583 2.616a1.069 1.069 0 0 0-.062-.689l-.4-.4-.8.8q-.66.658-.216 1.1a.568.568 0 0 0 .508.173 1.078 1.078 0 0 0 .589-.341 1.358 1.358 0 0 0 .383-.643z" transform="translate(-866.694 -797.985)"/>
            <path id="패스_841" data-name="패스 841" class="cls-2" d="m880.468 794.639 1.761 4.538a2.017 2.017 0 0 1 .186 1.046 1.385 1.385 0 0 1-.413.77 1.742 1.742 0 0 1-.475.341 1.171 1.171 0 0 1-.524.13l-.168-.611a1.018 1.018 0 0 0 .724-.3.707.707 0 0 0 .217-.416 1.217 1.217 0 0 0-.113-.573l-.108-.292-4.123-1.594.54-.54 3.291 1.292-1.3-3.28z" transform="translate(-868.753 -794.639)"/>
        </g>
        <g id="그룹_2310" data-name="그룹 2310" transform="translate(121.487 1.683)">
            <path id="패스_842" data-name="패스 842" class="cls-2" d="M914.149 813.98a1.706 1.706 0 0 1-.872.068l-.054-.681a1.322 1.322 0 0 0 1.237-.341.846.846 0 0 0 .289-.678 1.227 1.227 0 0 0-.408-.737l-2.124-2.124-1.367 1.367-.47-.47 1.9-1.9 2.567 2.567a1.869 1.869 0 0 1 .643 1.242 1.64 1.64 0 0 1-.567 1.2 2.007 2.007 0 0 1-.774.487z" transform="translate(-910.381 -802.61)"/>
            <path id="패스_843" data-name="패스 843" class="cls-2" d="m920.076 803.4 2.863 2.863-.491.491-.433-.432a1.467 1.467 0 0 1-.07.757 1.818 1.818 0 0 1-.437.68 1.766 1.766 0 0 1-1.218.586 1.741 1.741 0 0 1-1.262-.6l-1.648-1.648.519-.518 1.588 1.588a1.256 1.256 0 0 0 .83.429 1.054 1.054 0 0 0 .785-.359 1.213 1.213 0 0 0 .4-.9 1.379 1.379 0 0 0-.465-.94l-1.481-1.48z" transform="translate(-913.56 -800.299)"/>
            <path id="패스_844" data-name="패스 844" class="cls-2" d="M926.816 797.723a1.753 1.753 0 0 1 1.248.6l1.648 1.648-.519.519-1.588-1.588a1.249 1.249 0 0 0-.827-.428 1.069 1.069 0 0 0-.783.363 1.258 1.258 0 0 0-.419.91 1.359 1.359 0 0 0 .462.948l1.475 1.475-.519.519-2.864-2.864.5-.5.433.433a1.436 1.436 0 0 1 .083-.765 2.107 2.107 0 0 1 .49-.727 1.669 1.669 0 0 1 1.18-.543z" transform="translate(-916.626 -797.723)"/>
        </g>
        <g id="그룹_2311" data-name="그룹 2311" transform="translate(146.927 1.04)">
            <path id="패스_845" data-name="패스 845" class="cls-2" d="M964.221 811.991a1.7 1.7 0 0 1-.872.068l-.055-.681a1.32 1.32 0 0 0 1.238-.341.845.845 0 0 0 .289-.678 1.223 1.223 0 0 0-.408-.737l-2.123-2.122-1.367 1.367-.47-.47 1.9-1.9 2.568 2.567a1.873 1.873 0 0 1 .642 1.243 1.641 1.641 0 0 1-.567 1.2 2 2 0 0 1-.775.484z" transform="translate(-960.453 -801.063)"/>
            <path id="패스_846" data-name="패스 846" class="cls-2" d="m970.149 801.4 2.863 2.864-.492.492-.433-.433a1.465 1.465 0 0 1-.07.757 1.825 1.825 0 0 1-.437.681 1.774 1.774 0 0 1-1.219.587 1.747 1.747 0 0 1-1.261-.6l-1.648-1.648.518-.518 1.588 1.588a1.257 1.257 0 0 0 .83.43 1.057 1.057 0 0 0 .786-.359 1.212 1.212 0 0 0 .4-.9 1.381 1.381 0 0 0-.465-.939l-1.481-1.481z" transform="translate(-963.632 -798.751)"/>
            <path id="패스_847" data-name="패스 847" class="cls-2" d="m972.1 797.063.519-.518 4.009 4.01-.519.519z" transform="translate(-965.745 -796.544)"/>
        </g>
        <g id="그룹_2312" data-name="그룹 2312" transform="translate(170.86 .532)">
            <path id="패스_848" data-name="패스 848" class="cls-2" d="m1012.047 811.693-2.011 2.01.53 1.361-.557.557-2.07-5.495.535-.535 5.5 2.064-.567.567zm-.622-.243-2.67-1.038 1.038 2.669z" transform="translate(-1007.939 -801.962)"/>
            <path id="패스_849" data-name="패스 849" class="cls-2" d="m1017.191 802.443 2.864 2.864-.493.492-.432-.433a1.476 1.476 0 0 1-.07.757 1.824 1.824 0 0 1-.437.681 1.776 1.776 0 0 1-1.22.587 1.748 1.748 0 0 1-1.261-.6l-1.648-1.648.519-.518 1.588 1.588a1.258 1.258 0 0 0 .83.43 1.056 1.056 0 0 0 .785-.359 1.21 1.21 0 0 0 .4-.9 1.376 1.376 0 0 0-.465-.939l-1.48-1.48z" transform="translate(-1010.916 -798.715)"/>
            <path id="패스_850" data-name="패스 850" class="cls-2" d="m1024.4 795.613 2.474 2.475a2.093 2.093 0 0 1 .737 1.484 2.187 2.187 0 0 1-.754 1.473 3.787 3.787 0 0 1-.884.661 2.164 2.164 0 0 1-.91.278l-.151-.648a2.073 2.073 0 0 0 .767-.222 2.639 2.639 0 0 0 .708-.508 1.445 1.445 0 0 0 .505-.98 1.39 1.39 0 0 0-.484-.965l-.227-.227a1.612 1.612 0 0 1-.118.783 2.112 2.112 0 0 1-.471.692 2.2 2.2 0 0 1-.918.567 1.848 1.848 0 0 1-1.012.029 2.081 2.081 0 0 1-1.444-1.443 1.824 1.824 0 0 1 .033-1.01 2.225 2.225 0 0 1 .569-.916 2.137 2.137 0 0 1 .721-.483 1.577 1.577 0 0 1 .808-.106l-.444-.443zm1.185 3.158a1.244 1.244 0 0 0 .02-.683 1.318 1.318 0 0 0-.358-.61 1.236 1.236 0 0 0-.948-.4 1.571 1.571 0 0 0-1.421 1.42 1.242 1.242 0 0 0 .4.949 1.308 1.308 0 0 0 .611.356 1.244 1.244 0 0 0 .683-.018 1.617 1.617 0 0 0 1.016-1.017z" transform="translate(-1014.401 -795.613)"/>
        </g>
        <g id="그룹_2313" data-name="그룹 2313" transform="translate(194.977 1.52)">
            <path id="패스_851" data-name="패스 851" class="cls-2" d="M1059.07 813.456a2.356 2.356 0 0 1-.967.28l-.222-.62a2.345 2.345 0 0 0 .87-.239 2.877 2.877 0 0 0 .817-.573 1.772 1.772 0 0 0 .543-.861.7.7 0 0 0-.192-.657.592.592 0 0 0-.443-.189 1.2 1.2 0 0 0-.5.128q-.25.121-.674.38a7.646 7.646 0 0 1-.894.484 1.609 1.609 0 0 1-.765.132 1.191 1.191 0 0 1-.761-.389 1.371 1.371 0 0 1-.387-.7 1.551 1.551 0 0 1 .094-.873 2.78 2.78 0 0 1 .66-.951 3.583 3.583 0 0 1 .746-.573 2.472 2.472 0 0 1 .8-.307l.254.61a2.769 2.769 0 0 0-.738.278 2.678 2.678 0 0 0-.608.451 1.658 1.658 0 0 0-.521.856.726.726 0 0 0 .2.662.584.584 0 0 0 .446.187 1.273 1.273 0 0 0 .51-.132 7.216 7.216 0 0 0 .665-.379 7.481 7.481 0 0 1 .891-.481 1.624 1.624 0 0 1 .759-.132 1.165 1.165 0 0 1 .754.381 1.362 1.362 0 0 1 .381.7 1.537 1.537 0 0 1-.1.881 2.869 2.869 0 0 1-.667.953 3.642 3.642 0 0 1-.951.693z" transform="translate(-1055.469 -802.193)"/>
            <path id="패스_852" data-name="패스 852" class="cls-2" d="m1067.1 805-2.324 2.324a1.27 1.27 0 0 0 .94.276 1.527 1.527 0 0 0 .935-.475 1.5 1.5 0 0 0 .481-1.172l.622.047a1.769 1.769 0 0 1-.137.83 2.58 2.58 0 0 1-1.518 1.384 1.878 1.878 0 0 1-1.065.021 2.111 2.111 0 0 1-.948-.564 2.152 2.152 0 0 1-.565-.938 1.874 1.874 0 0 1-.008-1.035 2.053 2.053 0 0 1 .55-.923 2.022 2.022 0 0 1 .919-.546 1.844 1.844 0 0 1 1.025.019 2.245 2.245 0 0 1 .947.586c.046.039.09.095.146.166zm-3 1.062a1.289 1.289 0 0 0 .3.889l1.837-1.837a1.307 1.307 0 0 0-.886-.3 1.369 1.369 0 0 0-1.25 1.245z" transform="translate(-1059.092 -800.486)"/>
            <path id="패스_853" data-name="패스 853" class="cls-2" d="M1070.962 797.5a1.86 1.86 0 0 1 1.028 0 2.145 2.145 0 0 1 .949.575 2.176 2.176 0 0 1 .578.951 1.852 1.852 0 0 1 0 1.032 2.125 2.125 0 0 1-.562.929 1.878 1.878 0 0 1-.683.446 1.662 1.662 0 0 1-.782.089l1.481 1.481-.518.518-3.912-3.911.5-.5.454.453a1.551 1.551 0 0 1 .079-.8 1.943 1.943 0 0 1 .461-.705 2.129 2.129 0 0 1 .927-.558zm1.863 2.453a1.28 1.28 0 0 0-.011-.7 1.635 1.635 0 0 0-1.053-1.054 1.272 1.272 0 0 0-.7-.008 1.394 1.394 0 0 0-.618.371 1.347 1.347 0 0 0-.361.615 1.306 1.306 0 0 0 .008.7 1.5 1.5 0 0 0 .4.651 1.538 1.538 0 0 0 .651.4 1.257 1.257 0 0 0 .7.01 1.439 1.439 0 0 0 .986-.986z" transform="translate(-1061.406 -797.424)"/>
        </g>
        <g id="그룹_2314" data-name="그룹 2314" transform="translate(218.049 1.061)">
            <path id="패스_854" data-name="패스 854" class="cls-2" d="M1108.175 812.1a2.621 2.621 0 0 1-1.415.028 2.827 2.827 0 0 1-1.977-1.978 2.629 2.629 0 0 1 .027-1.416 3.157 3.157 0 0 1 2.059-2.058 2.6 2.6 0 0 1 1.41-.027 2.867 2.867 0 0 1 1.983 1.983 2.6 2.6 0 0 1-.028 1.41 3.156 3.156 0 0 1-2.059 2.058zm1.362-2.2a1.979 1.979 0 0 0 0-1.046 2.177 2.177 0 0 0-1.486-1.486 1.966 1.966 0 0 0-1.046 0 2.109 2.109 0 0 0-.938.559 2.143 2.143 0 0 0-.564.943 1.945 1.945 0 0 0-.009 1.051 2.169 2.169 0 0 0 1.486 1.486 1.942 1.942 0 0 0 1.051-.008 2.145 2.145 0 0 0 .943-.564 2.107 2.107 0 0 0 .563-.935z" transform="translate(-1104.698 -801.115)"/>
            <path id="패스_855" data-name="패스 855" class="cls-2" d="M1116.77 805.564a1.961 1.961 0 0 1-1.059.016 2.2 2.2 0 0 1-1.508-1.508 1.937 1.937 0 0 1 .019-1.057 2.272 2.272 0 0 1 .595-.967 2.119 2.119 0 0 1 .85-.538 1.584 1.584 0 0 1 .927-.019l-.141.648a1.256 1.256 0 0 0-.643.028 1.34 1.34 0 0 0-.545.34 1.456 1.456 0 0 0-.381.629 1.25 1.25 0 0 0 0 .705 1.51 1.51 0 0 0 .4.654 1.529 1.529 0 0 0 .659.405 1.252 1.252 0 0 0 .7 0 1.454 1.454 0 0 0 .63-.381 1.349 1.349 0 0 0 .34-.545 1.244 1.244 0 0 0 .027-.644l.643-.147a1.611 1.611 0 0 1-.016.93 2.1 2.1 0 0 1-.535.854 2.243 2.243 0 0 1-.962.597z" transform="translate(-1108.986 -798.786)"/>
            <path id="패스_856" data-name="패스 856" class="cls-2" d="M1122.713 799.085a1.114 1.114 0 0 1-.133.43 1.644 1.644 0 0 1-.294.4 1.3 1.3 0 0 1-.9.437 1.256 1.256 0 0 1-.9-.427l-1.573-1.573-.486.487-.426-.427.487-.486-.627-.626.52-.519.627.627.821-.822.427.427-.822.822 1.551 1.551a.7.7 0 0 0 .472.24.609.609 0 0 0 .456-.207.892.892 0 0 0 .271-.541z" transform="translate(-1110.673 -796.583)"/>
        </g>
        <g id="그룹_2315" data-name="그룹 2315" transform="translate(243.089 .3)">
            <path id="패스_857" data-name="패스 857" class="cls-2" d="m1153.826 806.225 3.783 3.782-.444.444-5.089-.551 2.821 2.821-.54.54-3.782-3.783.443-.443 5.09.551-2.821-2.821z" transform="translate(-1150.574 -800.201)"/>
            <path id="패스_858" data-name="패스 858" class="cls-2" d="M1163.771 806.626a1.94 1.94 0 0 1-1.054.01 2.228 2.228 0 0 1-1.507-1.507 1.9 1.9 0 0 1 .014-1.051 2.351 2.351 0 0 1 1.531-1.532 1.92 1.92 0 0 1 1.049-.011 2.23 2.23 0 0 1 1.507 1.508 1.949 1.949 0 0 1-.008 1.051 2.166 2.166 0 0 1-.575.953 2.2 2.2 0 0 1-.957.579zm.87-1.653a1.276 1.276 0 0 0-.014-.7 1.67 1.67 0 0 0-1.054-1.053 1.241 1.241 0 0 0-.7-.011 1.478 1.478 0 0 0-.989.989 1.261 1.261 0 0 0 .008.7 1.635 1.635 0 0 0 1.053 1.053 1.286 1.286 0 0 0 .7.011 1.452 1.452 0 0 0 .99-.988z" transform="translate(-1155.374 -798.494)"/>
            <path id="패스_859" data-name="패스 859" class="cls-2" d="m1168.41 795.188 1.61 4.117-.53.53-4.117-1.61.54-.54 3.28 1.312-1.291-3.3z" transform="translate(-1157.295 -795.188)"/>
        </g>
    </g>
    <g id="그룹_2317" data-name="그룹 2317" transform="translate(20.355 125.625)">
        <circle id="타원_30" data-name="타원 30" class="cls-3" cx="2.456" cy="2.456" r="2.456"/>
        <circle id="타원_31" data-name="타원 31" class="cls-3" cx="2.456" cy="2.456" r="2.456" transform="translate(25.551)"/>
        <circle id="타원_32" data-name="타원 32" class="cls-3" cx="2.456" cy="2.456" r="2.456" transform="translate(48.348)"/>
        <circle id="타원_33" data-name="타원 33" class="cls-3" cx="2.456" cy="2.456" r="2.456" transform="translate(72.753)"/>
        <circle id="타원_34" data-name="타원 34" class="cls-3" cx="2.456" cy="2.456" r="2.456" transform="translate(97.397)"/>
        <circle id="타원_35" data-name="타원 35" class="cls-3" cx="2.456" cy="2.456" r="2.456" transform="translate(121.96)"/>
        <circle id="타원_36" data-name="타원 36" class="cls-3" cx="2.456" cy="2.456" r="2.456" transform="translate(146.6)"/>
        <circle id="타원_37" data-name="타원 37" class="cls-3" cx="2.456" cy="2.456" r="2.456" transform="translate(170.973)"/>
        <circle id="타원_38" data-name="타원 38" class="cls-3" cx="2.456" cy="2.456" r="2.456" transform="translate(195.649)"/>
        <circle id="타원_39" data-name="타원 39" class="cls-3" cx="2.456" cy="2.456" r="2.456" transform="translate(218.392)"/>
        <circle id="타원_40" data-name="타원 40" class="cls-3" cx="2.456" cy="2.456" r="2.456" transform="translate(244.694)"/>
    </g>
    <g id="그룹_2318" data-name="그룹 2318" transform="translate(20.062 62.017)">
        <path id="패스_860" data-name="패스 860" d="m736.035 707.442-25-11.258-23.863-26.74 1.461-1.513 23.571 26.413 23.829 10.731 23.8-10.719 25.313-31.662 25.2 7.752 24.416 20.889 23.905-4.052 24.768-18.339 24.574 7.14 24.443-8.589.628 2.076-25.017 8.791-24.253-7.047-24.375 18.049-25.235 4.277-24.8-21.215-23.562-7.25-24.78 30.995z" transform="translate(-685.212 -661.883)" style="fill:url(#linear-gradient)"/>
        <path id="패스_861" data-name="패스 861" d="M689.077 671.388a2.749 2.749 0 1 1-2.749-2.749 2.749 2.749 0 0 1 2.749 2.749z" transform="translate(-683.58 -664.583)" style="fill:#0ddfcc"/>
        <path id="패스_862" data-name="패스 862" d="M735.891 720.029a2.749 2.749 0 1 1-2.749-2.749 2.749 2.749 0 0 1 2.749 2.749z" transform="translate(-704.842 -686.675)" style="fill:#16e0c9"/>
        <path id="패스_863" data-name="패스 863" d="M784.078 740.221a2.749 2.749 0 1 1-2.749-2.749 2.749 2.749 0 0 1 2.749 2.749z" transform="translate(-730.471 -695.846)" style="fill:#1ee1c8"/>
        <path id="패스_864" data-name="패스 864" d="M833.266 720.029a2.749 2.749 0 1 1-2.749-2.749 2.749 2.749 0 0 1 2.749 2.749z" transform="translate(-754.749 -686.675)" style="fill:#25e1c7"/>
        <path id="패스_865" data-name="패스 865" d="M881.7 663.957a2.749 2.749 0 1 1-2.749-2.749 2.748 2.748 0 0 1 2.749 2.749z" transform="translate(-778.657 -661.208)" style="fill:#2ee2c5"/>
        <path id="패스_866" data-name="패스 866" d="M929.89 676.424a2.749 2.749 0 1 1-2.749-2.749 2.749 2.749 0 0 1 2.749 2.749z" transform="translate(-802.442 -666.87)" style="fill:#36e3c3"/>
        <path id="패스_867" data-name="패스 867" d="M978.078 714.993a2.749 2.749 0 1 1-2.749-2.749 2.749 2.749 0 0 1 2.749 2.749z" transform="translate(-826.226 -684.388)" style="fill:#3ee4c1"/>
        <path id="패스_868" data-name="패스 868" d="M1027.2 707.363a2.749 2.749 0 1 1-2.749-2.749 2.749 2.749 0 0 1 2.749 2.749z" transform="translate(-850.473 -680.922)" style="fill:#46e5bf"/>
        <path id="패스_869" data-name="패스 869" d="M1075.39 675.029a2.749 2.749 0 1 1-2.749-2.749 2.749 2.749 0 0 1 2.749 2.749z" transform="translate(-874.258 -666.237)" style="fill:#4ee5bd"/>
        <path id="패스_870" data-name="패스 870" d="M1123.578 686.529a2.749 2.749 0 1 1-2.749-2.749 2.749 2.749 0 0 1 2.749 2.749z" transform="translate(-899.942 -671.46)" style="fill:#56e6bc"/>
        <path id="패스_871" data-name="패스 871" d="M1171.765 671.388a2.749 2.749 0 1 1-2.749-2.749 2.749 2.749 0 0 1 2.749 2.749z" transform="translate(-921.828 -664.583)" style="fill:#5be7ba"/>
    </g>
    <g id="그룹_2319" data-name="그룹 2319" transform="translate(20.062 39.478)">
        <path id="패스_872" data-name="패스 872" d="M785.072 684.457 760.3 651.143l-24.066 20.216-24.486-18.859-23.112 25.168-1.441-1.536 24.327-26.49 24.661 18.989 24.45-20.539 25.013 33.64 23.683-12.273 25.026-28.159 24.489 17.043 24.669-34.963 24.687 23.661 23.9-24.771 1.405 1.573-25.25 26.172-24.455-23.437-24.481 34.7-24.66-17.162-24.123 27.146z" transform="translate(-685.221 -620.97)" style="fill:url(#linear-gradient-2)"/>
        <path id="패스_873" data-name="패스 873" d="M689.077 720.029a2.749 2.749 0 1 1-2.749-2.749 2.749 2.749 0 0 1 2.749 2.749z" transform="translate(-683.58 -664.122)" style="fill:#0b76ce"/>
        <path id="패스_874" data-name="패스 874" d="M735.891 674.029a2.749 2.749 0 1 1-2.749-2.749 2.749 2.749 0 0 1 2.749 2.749z" transform="translate(-704.842 -643.23)" style="fill:#0f7fd2"/>
        <path id="패스_875" data-name="패스 875" d="M784.078 707.363a2.749 2.749 0 1 1-2.749-2.749 2.749 2.749 0 0 1 2.749 2.749z" transform="translate(-730.471 -658.369)" style="fill:#1487d7"/>
        <path id="패스_876" data-name="패스 876" d="M833.266 671.388a2.749 2.749 0 1 1-2.749-2.749 2.749 2.749 0 0 1 2.749 2.749z" transform="translate(-754.749 -642.03)" style="fill:#1890dc"/>
        <path id="패스_877" data-name="패스 877" d="M881.7 730.029a2.749 2.749 0 1 1-2.749-2.749 2.749 2.749 0 0 1 2.749 2.749z" transform="translate(-778.657 -668.664)" style="fill:#1e99e1"/>
        <path id="패스_878" data-name="패스 878" d="M929.89 707.363a2.749 2.749 0 1 1-2.749-2.749 2.749 2.749 0 0 1 2.749 2.749z" transform="translate(-802.442 -658.369)" style="fill:#23a1e5"/>
        <path id="패스_879" data-name="패스 879" d="M978.078 657.645a2.749 2.749 0 1 1-2.749-2.749 2.749 2.749 0 0 1 2.749 2.749z" transform="translate(-826.226 -635.789)" style="fill:#27a8e9"/>
        <path id="패스_880" data-name="패스 880" d="M1027.2 688.529a2.749 2.749 0 1 1-2.749-2.749 2.749 2.749 0 0 1 2.749 2.749z" transform="translate(-850.473 -649.815)" style="fill:#2eb1ee"/>
        <path id="패스_881" data-name="패스 881" d="M1075.39 624.946a2.749 2.749 0 1 1-2.749-2.749 2.749 2.749 0 0 1 2.749 2.749z" transform="translate(-874.258 -620.937)" style="fill:#35baf4"/>
        <path id="패스_882" data-name="패스 882" d="M1123.578 668.2a2.749 2.749 0 1 1-2.749-2.749 2.749 2.749 0 0 1 2.749 2.749z" transform="translate(-899.942 -640.581)" style="fill:#3bc3f9"/>
        <path id="패스_883" data-name="패스 883" d="M1171.765 622.638a2.749 2.749 0 1 1-2.749-2.749 2.749 2.749 0 0 1 2.749 2.749z" transform="translate(-921.828 -619.889)" style="fill:#40cafd"/>
    </g>
    <g id="그룹_2320" data-name="그룹 2320" transform="translate(20.062 17.394)">
        <path id="패스_884" data-name="패스 884" d="M736.7 632.254 711.873 610.6l-23.252 4.7-.373-2.146 24.173-4.883 23.994 20.929 24.517-31.855 24.783 8.155 24.342-15.628 25.1-2.615 24.32 22.549 24.388-27.814 24.891 11.429 24.226-7.177.537 2.1-24.908 7.379-24.243-11.123-24.746 28.22-25.13-23.3L810.7 592l-24.723 15.872-24.351-8.013z" transform="translate(-685.7 -580.545)" style="fill:url(#linear-gradient-3)"/>
        <path id="패스_885" data-name="패스 885" d="M689.077 638.757a2.749 2.749 0 1 1-2.749-2.749 2.749 2.749 0 0 1 2.749 2.749z" transform="translate(-683.58 -605.079)" style="fill:#17afd7"/>
        <path id="패스_886" data-name="패스 886" d="M735.891 630.578a2.749 2.749 0 1 1-2.749-2.749 2.749 2.749 0 0 1 2.749 2.749z" transform="translate(-704.842 -601.364)" style="fill:#18b7db"/>
        <path id="패스_887" data-name="패스 887" d="M784.078 668.993a2.749 2.749 0 1 1-2.749-2.749 2.749 2.749 0 0 1 2.749 2.749z" transform="translate(-730.471 -618.811)" style="fill:#1abedd"/>
        <path id="패스_888" data-name="패스 888" d="M833.266 610.135a2.749 2.749 0 1 1-2.749-2.749 2.748 2.748 0 0 1 2.749 2.749z" transform="translate(-754.749 -592.079)" style="fill:#1dc6e1"/>
        <path id="패스_889" data-name="패스 889" d="M881.7 625.542a2.749 2.749 0 1 1-2.749-2.749 2.749 2.749 0 0 1 2.749 2.749z" transform="translate(-778.657 -599.077)" style="fill:#1ecee4"/>
        <path id="패스_890" data-name="패스 890" d="M929.89 595.7a2.749 2.749 0 1 1-2.749-2.749 2.749 2.749 0 0 1 2.749 2.749z" transform="translate(-802.442 -585.521)" style="fill:#20d5e6"/>
        <path id="패스_891" data-name="패스 891" d="M978.078 592.363a2.749 2.749 0 1 1-2.749-2.749 2.749 2.749 0 0 1 2.749 2.749z" transform="translate(-826.226 -584.007)" style="fill:#21dfea"/>
        <path id="패스_892" data-name="패스 892" d="M1027.2 632.71a2.749 2.749 0 1 1-2.749-2.749 2.748 2.748 0 0 1 2.749 2.749z" transform="translate(-850.473 -602.332)" style="fill:#23e6ed"/>
        <path id="패스_893" data-name="패스 893" d="M1075.39 582.091a2.749 2.749 0 1 1-2.749-2.749 2.749 2.749 0 0 1 2.749 2.749z" transform="translate(-874.258 -579.342)" style="fill:#25edf0"/>
        <path id="패스_894" data-name="패스 894" d="M1123.578 602.435a2.749 2.749 0 1 1-2.749-2.749 2.749 2.749 0 0 1 2.749 2.749z" transform="translate(-899.942 -588.582)" style="fill:#28f6f4"/>
        <path id="패스_895" data-name="패스 895" d="M1171.765 590.66a2.749 2.749 0 1 1-2.749-2.749 2.749 2.749 0 0 1 2.749 2.749z" transform="translate(-921.828 -583.234)" style="fill:#2afdf6"/>
    </g>
</svg>
