<svg id="obj_Stacked_Bar_Graph_03" data-name="obj_Stacked Bar Graph 03" xmlns="http://www.w3.org/2000/svg" width="260" height="124.462" viewBox="0 0 260 124.462">
    <defs>
        <linearGradient id="linear-gradient" x1=".5" y1=".677" x2=".5" y2="-.009" gradientUnits="objectBoundingBox">
            <stop offset="0" stop-color="#10e0cc"/>
            <stop offset="1" stop-color="#5fe8ba"/>
        </linearGradient>
        <linearGradient id="linear-gradient-2" x1=".5" y1="1.311" x2=".5" y2=".228" gradientUnits="objectBoundingBox">
            <stop offset="0" stop-color="#15afd8"/>
            <stop offset="1" stop-color="#2bfff8"/>
        </linearGradient>
        <linearGradient id="linear-gradient-3" x1=".5" y1="1.311" x2=".5" y2=".228" gradientUnits="objectBoundingBox">
            <stop offset="0" stop-color="#0048ad"/>
            <stop offset="1" stop-color="#479fe3"/>
        </linearGradient>
        <style>
            .cls-1{fill:#3a4960}.cls-6{opacity:.5;fill:#98b7c9}.cls-7{fill:#fff}
        </style>
    </defs>
    <g id="그룹_2333" data-name="그룹 2333" transform="translate(0 14.873)">
        <g id="그룹_2332" data-name="그룹 2332">
            <g id="그룹_2322" data-name="그룹 2322" transform="translate(4.441 69.333)">
                <path id="패스_896" data-name="패스 896" class="cls-1" d="M1316.191 746.124v5.349h-.756v-4.684h-1.207v-.665z" transform="translate(-1314.228 -746.063)"/>
                <path id="패스_897" data-name="패스 897" class="cls-1" d="M1321.025 751.158a2.173 2.173 0 0 1-.776-.943 3.95 3.95 0 0 1 0-2.934 2.175 2.175 0 0 1 .776-.944 2.105 2.105 0 0 1 2.247 0 2.178 2.178 0 0 1 .775.944 3.948 3.948 0 0 1 0 2.934 2.175 2.175 0 0 1-.775.943 2.105 2.105 0 0 1-2.247 0zm2.155-.883a3.222 3.222 0 0 0 0-3.056 1.273 1.273 0 0 0-2.064 0 3.217 3.217 0 0 0 0 3.056 1.273 1.273 0 0 0 2.064 0z" transform="translate(-1316.834 -746.012)"/>
                <path id="패스_898" data-name="패스 898" class="cls-1" d="M1330.363 751.158a2.171 2.171 0 0 1-.776-.943 3.948 3.948 0 0 1 0-2.934 2.174 2.174 0 0 1 .776-.944 2.1 2.1 0 0 1 2.247 0 2.178 2.178 0 0 1 .776.944 3.95 3.95 0 0 1 0 2.934 2.176 2.176 0 0 1-.776.943 2.1 2.1 0 0 1-2.247 0zm2.155-.883a3.218 3.218 0 0 0 0-3.056 1.273 1.273 0 0 0-2.063 0 3.217 3.217 0 0 0 0 3.056 1.272 1.272 0 0 0 2.063 0z" transform="translate(-1321.076 -746.012)"/>
            </g>
            <g id="그룹_2323" data-name="그룹 2323" transform="translate(74.442 104.118)">
                <path id="패스_899" data-name="패스 899" class="cls-1" d="M1445.853 809.826v5.349h-.756v-4.684h-1.207v-.665z" transform="translate(-1443.89 -809.765)"/>
                <path id="패스_900" data-name="패스 900" class="cls-1" d="M1450.687 814.861a2.178 2.178 0 0 1-.775-.944 3.948 3.948 0 0 1 0-2.934 2.172 2.172 0 0 1 .775-.944 2.106 2.106 0 0 1 2.247 0 2.174 2.174 0 0 1 .775.944 3.948 3.948 0 0 1 0 2.934 2.18 2.18 0 0 1-.775.944 2.109 2.109 0 0 1-2.247 0zm2.156-.883a3.217 3.217 0 0 0 0-3.056 1.273 1.273 0 0 0-2.064 0 3.219 3.219 0 0 0 0 3.056 1.273 1.273 0 0 0 2.064 0z" transform="translate(-1446.497 -809.714)"/>
                <path id="패스_901" data-name="패스 901" class="cls-1" d="M1460.025 814.861a2.177 2.177 0 0 1-.776-.944 3.948 3.948 0 0 1 0-2.934 2.172 2.172 0 0 1 .776-.944 2.105 2.105 0 0 1 2.247 0 2.17 2.17 0 0 1 .775.944 3.945 3.945 0 0 1 0 2.934 2.176 2.176 0 0 1-.775.944 2.108 2.108 0 0 1-2.247 0zm2.155-.883a3.218 3.218 0 0 0 0-3.056 1.273 1.273 0 0 0-2.063 0 3.218 3.218 0 0 0 0 3.056 1.272 1.272 0 0 0 2.063 0z" transform="translate(-1450.738 -809.714)"/>
                <path id="패스_902" data-name="패스 902" class="cls-1" d="M1469.363 814.861a2.176 2.176 0 0 1-.776-.944 3.948 3.948 0 0 1 0-2.934 2.171 2.171 0 0 1 .776-.944 2.1 2.1 0 0 1 2.247 0 2.176 2.176 0 0 1 .776.944 3.948 3.948 0 0 1 0 2.934 2.182 2.182 0 0 1-.776.944 2.108 2.108 0 0 1-2.247 0zm2.155-.883a3.217 3.217 0 0 0 0-3.056 1.273 1.273 0 0 0-2.063 0 3.217 3.217 0 0 0 0 3.056 1.272 1.272 0 0 0 2.063 0z" transform="translate(-1454.979 -809.714)"/>
            </g>
            <g id="그룹_2324" data-name="그룹 2324" transform="translate(22.413 104.118)">
                <path id="패스_903" data-name="패스 903" class="cls-1" d="M1351.447 812.389a1.431 1.431 0 0 1 .539 1.181 1.633 1.633 0 0 1-.226.852 1.539 1.539 0 0 1-.68.6 2.583 2.583 0 0 1-1.12.218 3.5 3.5 0 0 1-1.093-.172 2.419 2.419 0 0 1-.872-.478l.352-.6a2 2 0 0 0 .7.416 2.588 2.588 0 0 0 .9.157 1.505 1.505 0 0 0 .937-.256.835.835 0 0 0 .332-.7.824.824 0 0 0-.367-.73 2.335 2.335 0 0 0-1.253-.248h-1.215l.283-2.8h3.018v.665h-2.377l-.145 1.467h.6a2.683 2.683 0 0 1 1.687.428z" transform="translate(-1347.997 -809.764)"/>
                <path id="패스_904" data-name="패스 904" class="cls-1" d="M1357.525 814.86a2.178 2.178 0 0 1-.776-.944 3.948 3.948 0 0 1 0-2.934 2.173 2.173 0 0 1 .776-.943 2.1 2.1 0 0 1 2.247 0 2.172 2.172 0 0 1 .775.943 3.945 3.945 0 0 1 0 2.934 2.178 2.178 0 0 1-.775.944 2.108 2.108 0 0 1-2.247 0zm2.155-.883a3.219 3.219 0 0 0 0-3.057 1.273 1.273 0 0 0-2.063 0 3.22 3.22 0 0 0 0 3.057 1.273 1.273 0 0 0 2.063 0z" transform="translate(-1351.844 -809.713)"/>
                <path id="패스_905" data-name="패스 905" class="cls-1" d="M1366.863 814.86a2.179 2.179 0 0 1-.776-.944 3.948 3.948 0 0 1 0-2.934 2.173 2.173 0 0 1 .776-.943 2.1 2.1 0 0 1 2.247 0 2.176 2.176 0 0 1 .776.943 3.948 3.948 0 0 1 0 2.934 2.182 2.182 0 0 1-.776.944 2.108 2.108 0 0 1-2.247 0zm2.155-.883a3.22 3.22 0 0 0 0-3.057 1.273 1.273 0 0 0-2.063 0 3.22 3.22 0 0 0 0 3.057 1.273 1.273 0 0 0 2.063 0z" transform="translate(-1356.085 -809.713)"/>
            </g>
            <g id="그룹_2325" data-name="그룹 2325" transform="translate(129.464 104.118)">
                <path id="패스_906" data-name="패스 906" class="cls-1" d="M1542.155 809.826v5.349h-.756v-4.684h-1.207v-.665z" transform="translate(-1540.191 -809.765)"/>
                <path id="패스_907" data-name="패스 907" class="cls-1" d="M1548.947 812.389a1.432 1.432 0 0 1 .539 1.181 1.633 1.633 0 0 1-.225.853 1.543 1.543 0 0 1-.679.6 2.593 2.593 0 0 1-1.12.217 3.5 3.5 0 0 1-1.093-.171 2.425 2.425 0 0 1-.871-.478l.352-.6a2.01 2.01 0 0 0 .7.417 2.593 2.593 0 0 0 .9.156 1.5 1.5 0 0 0 .936-.256.906.906 0 0 0-.035-1.429 2.342 2.342 0 0 0-1.253-.248h-1.216l.283-2.8h3.018v.665h-2.377l-.145 1.467h.6a2.682 2.682 0 0 1 1.686.426z" transform="translate(-1542.601 -809.765)"/>
                <path id="패스_908" data-name="패스 908" class="cls-1" d="M1555.025 814.861a2.185 2.185 0 0 1-.776-.944 3.956 3.956 0 0 1 0-2.934 2.179 2.179 0 0 1 .776-.944 2.106 2.106 0 0 1 2.247 0 2.167 2.167 0 0 1 .775.944 3.94 3.94 0 0 1 0 2.934 2.173 2.173 0 0 1-.775.944 2.109 2.109 0 0 1-2.247 0zm2.156-.883a3.222 3.222 0 0 0 0-3.056 1.273 1.273 0 0 0-2.064 0 3.217 3.217 0 0 0 0 3.056 1.273 1.273 0 0 0 2.064 0z" transform="translate(-1546.448 -809.714)"/>
                <path id="패스_909" data-name="패스 909" class="cls-1" d="M1564.363 814.861a2.186 2.186 0 0 1-.776-.944 3.954 3.954 0 0 1 0-2.934 2.18 2.18 0 0 1 .776-.944 2.105 2.105 0 0 1 2.247 0 2.169 2.169 0 0 1 .776.944 3.942 3.942 0 0 1 0 2.934 2.175 2.175 0 0 1-.776.944 2.108 2.108 0 0 1-2.247 0zm2.155-.883a3.219 3.219 0 0 0 0-3.056 1.273 1.273 0 0 0-2.063 0 3.218 3.218 0 0 0 0 3.056 1.272 1.272 0 0 0 2.063 0z" transform="translate(-1550.689 -809.714)"/>
            </g>
            <g id="그룹_2326" data-name="그룹 2326" transform="translate(184.486 104.118)">
                <path id="패스_910" data-name="패스 910" class="cls-1" d="M1640.178 814.459v.665h-3.844v-.52l2.178-2.1a2.607 2.607 0 0 0 .535-.661 1.255 1.255 0 0 0 .137-.561.786.786 0 0 0-.294-.653 1.335 1.335 0 0 0-.844-.233 1.679 1.679 0 0 0-1.368.58l-.52-.451a2.092 2.092 0 0 1 .821-.6 2.912 2.912 0 0 1 1.135-.213 2.066 2.066 0 0 1 1.337.4 1.324 1.324 0 0 1 .5 1.088 1.857 1.857 0 0 1-.183.811 3.241 3.241 0 0 1-.7.871l-1.635 1.575z" transform="translate(-1636.159 -809.714)"/>
                <path id="패스_911" data-name="패스 911" class="cls-1" d="M1645.687 814.861a2.179 2.179 0 0 1-.775-.944 3.948 3.948 0 0 1 0-2.934 2.173 2.173 0 0 1 .775-.944 2.106 2.106 0 0 1 2.247 0 2.166 2.166 0 0 1 .775.944 3.942 3.942 0 0 1 0 2.934 2.172 2.172 0 0 1-.775.944 2.109 2.109 0 0 1-2.247 0zm2.156-.883a3.219 3.219 0 0 0 0-3.056 1.273 1.273 0 0 0-2.064 0 3.219 3.219 0 0 0 0 3.056 1.273 1.273 0 0 0 2.064 0z" transform="translate(-1640.006 -809.714)"/>
                <path id="패스_912" data-name="패스 912" class="cls-1" d="M1655.025 814.861a2.184 2.184 0 0 1-.775-.944 3.954 3.954 0 0 1 0-2.934 2.179 2.179 0 0 1 .775-.944 2.106 2.106 0 0 1 2.247 0 2.167 2.167 0 0 1 .775.944 3.94 3.94 0 0 1 0 2.934 2.173 2.173 0 0 1-.775.944 2.109 2.109 0 0 1-2.247 0zm2.156-.883a3.223 3.223 0 0 0 0-3.056 1.273 1.273 0 0 0-2.064 0 3.217 3.217 0 0 0 0 3.056 1.273 1.273 0 0 0 2.064 0z" transform="translate(-1644.247 -809.714)"/>
                <path id="패스_913" data-name="패스 913" class="cls-1" d="M1664.363 814.861a2.185 2.185 0 0 1-.776-.944 3.954 3.954 0 0 1 0-2.934 2.179 2.179 0 0 1 .776-.944 2.1 2.1 0 0 1 2.247 0 2.167 2.167 0 0 1 .776.944 3.942 3.942 0 0 1 0 2.934 2.173 2.173 0 0 1-.776.944 2.108 2.108 0 0 1-2.247 0zm2.155-.883a3.219 3.219 0 0 0 0-3.056 1.273 1.273 0 0 0-2.063 0 3.219 3.219 0 0 0 0 3.056 1.272 1.272 0 0 0 2.063 0z" transform="translate(-1648.488 -809.714)"/>
            </g>
            <g id="그룹_2327" data-name="그룹 2327" transform="translate(241.508 104.118)">
                <path id="패스_914" data-name="패스 914" class="cls-1" d="M1736.993 814.458v.665h-3.844v-.52l2.177-2.1a2.6 2.6 0 0 0 .536-.661 1.257 1.257 0 0 0 .138-.562.785.785 0 0 0-.294-.653 1.333 1.333 0 0 0-.844-.234 1.678 1.678 0 0 0-1.368.581l-.52-.451a2.076 2.076 0 0 1 .821-.6 2.9 2.9 0 0 1 1.135-.214 2.07 2.07 0 0 1 1.337.4 1.328 1.328 0 0 1 .5 1.089 1.846 1.846 0 0 1-.183.81 3.239 3.239 0 0 1-.7.871l-1.636 1.574z" transform="translate(-1732.974 -809.713)"/>
                <path id="패스_915" data-name="패스 915" class="cls-1" d="M1744.5 812.389a1.432 1.432 0 0 1 .539 1.181 1.628 1.628 0 0 1-.225.852 1.533 1.533 0 0 1-.68.6 2.579 2.579 0 0 1-1.119.218 3.5 3.5 0 0 1-1.093-.172 2.421 2.421 0 0 1-.871-.478l.352-.6a2.007 2.007 0 0 0 .7.416 2.594 2.594 0 0 0 .9.157 1.506 1.506 0 0 0 .937-.256.836.836 0 0 0 .332-.7.825.825 0 0 0-.367-.73 2.338 2.338 0 0 0-1.253-.248h-1.214l.282-2.8h3.019v.665h-2.377l-.145 1.467h.6a2.683 2.683 0 0 1 1.683.428z" transform="translate(-1736.642 -809.764)"/>
                <path id="패스_916" data-name="패스 916" class="cls-1" d="M1750.579 814.86a2.175 2.175 0 0 1-.776-.944 3.95 3.95 0 0 1 0-2.934 2.169 2.169 0 0 1 .776-.943 2.1 2.1 0 0 1 2.247 0 2.177 2.177 0 0 1 .776.943 3.947 3.947 0 0 1 0 2.934 2.183 2.183 0 0 1-.776.944 2.108 2.108 0 0 1-2.247 0zm2.155-.883a3.22 3.22 0 0 0 0-3.057 1.273 1.273 0 0 0-2.063 0 3.22 3.22 0 0 0 0 3.057 1.273 1.273 0 0 0 2.063 0z" transform="translate(-1740.489 -809.713)"/>
                <path id="패스_917" data-name="패스 917" class="cls-1" d="M1759.917 814.86a2.175 2.175 0 0 1-.776-.944 3.94 3.94 0 0 1 0-2.934 2.169 2.169 0 0 1 .776-.943 2.1 2.1 0 0 1 2.247 0 2.177 2.177 0 0 1 .776.943 3.947 3.947 0 0 1 0 2.934 2.183 2.183 0 0 1-.776.944 2.108 2.108 0 0 1-2.247 0zm2.155-.883a3.22 3.22 0 0 0 0-3.057 1.273 1.273 0 0 0-2.063 0 3.22 3.22 0 0 0 0 3.057 1.273 1.273 0 0 0 2.063 0z" transform="translate(-1744.73 -809.713)"/>
            </g>
            <g id="그룹_2328" data-name="그룹 2328" transform="translate(12.67 90.53)">
                <path id="패스_918" data-name="패스 918" class="cls-1" d="M1330.363 789.966a2.175 2.175 0 0 1-.776-.943 3.948 3.948 0 0 1 0-2.934 2.173 2.173 0 0 1 .776-.944 2.1 2.1 0 0 1 2.247 0 2.177 2.177 0 0 1 .776.944 3.95 3.95 0 0 1 0 2.934 2.179 2.179 0 0 1-.776.943 2.1 2.1 0 0 1-2.247 0zm2.155-.883a3.219 3.219 0 0 0 0-3.057 1.273 1.273 0 0 0-2.063 0 3.219 3.219 0 0 0 0 3.057 1.272 1.272 0 0 0 2.063 0z" transform="translate(-1329.305 -784.819)"/>
            </g>
            <g id="그룹_2329" data-name="그룹 2329" transform="translate(1.346 45.059)">
                <path id="패스_919" data-name="패스 919" class="cls-1" d="M1312.578 706.3v.665h-3.844v-.52l2.177-2.1a2.613 2.613 0 0 0 .535-.661 1.258 1.258 0 0 0 .138-.562.788.788 0 0 0-.294-.653 1.334 1.334 0 0 0-.844-.233 1.677 1.677 0 0 0-1.368.581l-.52-.451a2.075 2.075 0 0 1 .822-.6 2.9 2.9 0 0 1 1.135-.214 2.069 2.069 0 0 1 1.337.4 1.327 1.327 0 0 1 .5 1.089 1.848 1.848 0 0 1-.183.809 3.244 3.244 0 0 1-.7.872l-1.636 1.574z" transform="translate(-1308.559 -701.558)"/>
                <path id="패스_920" data-name="패스 920" class="cls-1" d="M1318.086 706.7a2.18 2.18 0 0 1-.776-.944 3.945 3.945 0 0 1 0-2.934 2.177 2.177 0 0 1 .776-.944 2.1 2.1 0 0 1 2.247 0 2.174 2.174 0 0 1 .776.944 3.94 3.94 0 0 1 0 2.934 2.177 2.177 0 0 1-.776.944 2.105 2.105 0 0 1-2.247 0zm2.155-.883a3.219 3.219 0 0 0 0-3.057 1.273 1.273 0 0 0-2.063 0 3.218 3.218 0 0 0 0 3.057 1.273 1.273 0 0 0 2.063 0z" transform="translate(-1312.405 -701.558)"/>
                <path id="패스_921" data-name="패스 921" class="cls-1" d="M1327.424 706.7a2.182 2.182 0 0 1-.776-.944 3.948 3.948 0 0 1 0-2.934 2.179 2.179 0 0 1 .776-.944 2.1 2.1 0 0 1 2.247 0 2.176 2.176 0 0 1 .776.944 3.95 3.95 0 0 1 0 2.934 2.179 2.179 0 0 1-.776.944 2.105 2.105 0 0 1-2.247 0zm2.155-.883a3.22 3.22 0 0 0 0-3.057 1.273 1.273 0 0 0-2.063 0 3.218 3.218 0 0 0 0 3.057 1.273 1.273 0 0 0 2.063 0z" transform="translate(-1316.647 -701.558)"/>
            </g>
            <g id="그룹_2330" data-name="그룹 2330" transform="translate(1.262 22.114)">
                <path id="패스_922" data-name="패스 922" class="cls-1" d="M1311.981 662.383a1.4 1.4 0 0 1 .413 1.043 1.54 1.54 0 0 1-.229.829 1.568 1.568 0 0 1-.684.589 2.559 2.559 0 0 1-1.112.218 3.525 3.525 0 0 1-1.1-.172 2.345 2.345 0 0 1-.864-.478l.351-.6a2.033 2.033 0 0 0 .7.416 2.627 2.627 0 0 0 .909.157 1.507 1.507 0 0 0 .928-.252.825.825 0 0 0 .333-.7.809.809 0 0 0-.329-.688 1.658 1.658 0 0 0-.993-.245h-.429v-.535l1.345-1.651h-2.575v-.665h3.53v.52l-1.4 1.727a1.91 1.91 0 0 1 1.206.487z" transform="translate(-1308.405 -659.59)"/>
                <path id="패스_923" data-name="패스 923" class="cls-1" d="M1318.073 664.686a2.177 2.177 0 0 1-.776-.944 3.948 3.948 0 0 1 0-2.934 2.17 2.17 0 0 1 .776-.944 2.1 2.1 0 0 1 2.246 0 2.17 2.17 0 0 1 .776.944 3.95 3.95 0 0 1 0 2.934 2.177 2.177 0 0 1-.776.944 2.1 2.1 0 0 1-2.246 0zm2.155-.883a3.218 3.218 0 0 0 0-3.057 1.273 1.273 0 0 0-2.063 0 3.219 3.219 0 0 0 0 3.057 1.273 1.273 0 0 0 2.063 0z" transform="translate(-1312.316 -659.539)"/>
                <path id="패스_924" data-name="패스 924" class="cls-1" d="M1327.411 664.686a2.178 2.178 0 0 1-.776-.944 3.95 3.95 0 0 1 0-2.934 2.171 2.171 0 0 1 .776-.944 2.105 2.105 0 0 1 2.247 0 2.173 2.173 0 0 1 .776.944 3.947 3.947 0 0 1 0 2.934 2.18 2.18 0 0 1-.776.944 2.105 2.105 0 0 1-2.247 0zm2.155-.883a3.219 3.219 0 0 0 0-3.057 1.273 1.273 0 0 0-2.063 0 3.219 3.219 0 0 0 0 3.057 1.273 1.273 0 0 0 2.063 0z" transform="translate(-1316.557 -659.539)"/>
            </g>
            <g id="그룹_2331" data-name="그룹 2331">
                <path id="패스_925" data-name="패스 925" class="cls-1" d="M1310.822 623.189h-1.016v1.311h-.742v-1.314h-2.972v-.535l2.736-3.5h.825l-2.62 3.378h2.055v-1.159h.719v1.162h1.016z" transform="translate(-1306.092 -619.093)"/>
                <path id="패스_926" data-name="패스 926" class="cls-1" d="M1316.655 624.189a2.174 2.174 0 0 1-.775-.944 3.947 3.947 0 0 1 0-2.934 2.177 2.177 0 0 1 .775-.944 2.1 2.1 0 0 1 2.247 0 2.176 2.176 0 0 1 .776.944 3.948 3.948 0 0 1 0 2.934 2.173 2.173 0 0 1-.776.944 2.1 2.1 0 0 1-2.247 0zm2.155-.883a3.22 3.22 0 0 0 0-3.057 1.273 1.273 0 0 0-2.063 0 3.218 3.218 0 0 0 0 3.057 1.273 1.273 0 0 0 2.063 0z" transform="translate(-1310.409 -619.042)"/>
                <path id="패스_927" data-name="패스 927" class="cls-1" d="M1325.993 624.189a2.17 2.17 0 0 1-.776-.944 3.95 3.95 0 0 1 0-2.934 2.173 2.173 0 0 1 .776-.944 2.1 2.1 0 0 1 2.247 0 2.182 2.182 0 0 1 .776.944 3.948 3.948 0 0 1 0 2.934 2.179 2.179 0 0 1-.776.944 2.1 2.1 0 0 1-2.247 0zm2.155-.883a3.22 3.22 0 0 0 0-3.057 1.273 1.273 0 0 0-2.063 0 3.219 3.219 0 0 0 0 3.057 1.273 1.273 0 0 0 2.063 0z" transform="translate(-1314.65 -619.042)"/>
            </g>
        </g>
    </g>
    <path id="패스_928" data-name="패스 928" d="m1347.884 695.32 47.234-21.56 47.394 3.948 47.394-31.581 47.394 7.288 47.394-7.288.178 81.658h-236.988z" transform="translate(-1325.073 -616.424)" style="fill:url(#linear-gradient)"/>
    <path id="패스_929" data-name="패스 929" d="m1347.884 723.855 47.234-36.136 47.394 15.487 47.394-22.471 47.394 9.931 47.394-31.188.178 74.37h-236.988z" transform="translate(-1325.073 -622.488)" style="fill:url(#linear-gradient-2)"/>
    <path id="패스_930" data-name="패스 930" d="m1347.884 766.718 47.23-18.22 47.39 12.455 47.39-12.891 47.144 8.469 47.637-14.714v29.428h-236.791z" transform="translate(-1325.073 -659.885)" style="fill:url(#linear-gradient-3)"/>
    <g id="그룹_2335" data-name="그룹 2335" transform="translate(22.538 7.823)" style="opacity:.5">
        <g id="그룹_2334" data-name="그룹 2334">
            <path id="패스_931" data-name="패스 931" class="cls-1" d="M1584.646 709.935h-237.262V606.126h.494v103.263h236.769z" transform="translate(-1347.384 -606.126)"/>
            <path id="사각형_89" data-name="사각형 89" class="cls-6" transform="translate(47.229 11.019)" d="M0 0h.546v92.517H0z"/>
            <path id="사각형_90" data-name="사각형 90" class="cls-6" transform="translate(94.739 11.019)" d="M0 0h.546v92.517H0z"/>
            <path id="사각형_91" data-name="사각형 91" class="cls-6" transform="translate(142.007 11.019)" d="M0 0h.546v92.517H0z"/>
            <path id="사각형_92" data-name="사각형 92" class="cls-6" transform="translate(189.067 11.019)" d="M0 0h.546v92.517H0z"/>
            <path id="패스_932" data-name="패스 932" class="cls-1" d="M1351.587 753.3h-3.7v-.546h3.7zm224.592-.546h-7.486v.546h7.486zm-12.477 0h-7.486v.546h7.486zm-12.477 0h-7.487v.546h7.487zm-12.478 0h-7.487v.546h7.487zm-12.477 0h-7.486v.546h7.486zm-12.478 0h-7.486v.546h7.486zm-12.478 0h-7.486v.546h7.486zm-12.477 0h-7.487v.546h7.487zm-12.478 0h-7.486v.546h7.486zm-12.477 0h-7.482v.546h7.487zm-12.478 0h-7.486v.546h7.486zm-12.477 0h-7.486v.546h7.486zm-12.477 0h-7.487v.546h7.487zm-12.478 0h-7.486v.546h7.486zm-12.477 0h-7.486v.546h7.486zm-12.477 0h-7.486v.546h7.486zm-12.478 0h-7.486v.546h7.486zm-12.477 0h-7.486v.546h7.486zm220.81 0h-3.7v.546h3.7z" transform="translate(-1347.611 -672.688)"/>
            <path id="패스_933" data-name="패스 933" class="cls-1" d="M1351.587 710.83h-3.7v-.546h3.7zm224.592-.546h-7.486v.546h7.486zm-12.477 0h-7.486v.546h7.486zm-12.477 0h-7.487v.546h7.487zm-12.478 0h-7.487v.546h7.487zm-12.477 0h-7.486v.546h7.486zm-12.478 0h-7.486v.546h7.486zm-12.478 0h-7.486v.546h7.486zm-12.477 0h-7.487v.546h7.487zm-12.478 0h-7.486v.546h7.486zm-12.477 0h-7.482v.546h7.487zm-12.478 0h-7.486v.546h7.486zm-12.477 0h-7.486v.546h7.486zm-12.477 0h-7.487v.546h7.487zm-12.478 0h-7.486v.546h7.486zm-12.477 0h-7.486v.546h7.486zm-12.477 0h-7.486v.546h7.486zm-12.478 0h-7.486v.546h7.486zm-12.477 0h-7.486v.546h7.486zm220.81 0h-3.7v.546h3.7z" transform="translate(-1347.611 -653.407)"/>
            <path id="패스_934" data-name="패스 934" class="cls-1" d="M1351.587 668.357h-3.7v-.546h3.7zm224.592-.546h-7.486v.546h7.486zm-12.477 0h-7.486v.546h7.486zm-12.477 0h-7.487v.546h7.487zm-12.478 0h-7.487v.546h7.487zm-12.477 0h-7.486v.546h7.486zm-12.478 0h-7.486v.546h7.486zm-12.478 0h-7.486v.546h7.486zm-12.477 0h-7.487v.546h7.487zm-12.478 0h-7.486v.546h7.486zm-12.477 0h-7.482v.546h7.487zm-12.478 0h-7.486v.546h7.486zm-12.477 0h-7.486v.546h7.486zm-12.477 0h-7.487v.546h7.487zm-12.478 0h-7.486v.546h7.486zm-12.477 0h-7.486v.546h7.486zm-12.477 0h-7.486v.546h7.486zm-12.478 0h-7.486v.546h7.486zm-12.477 0h-7.486v.546h7.486zm220.81 0h-3.7v.546h3.7z" transform="translate(-1347.611 -634.127)"/>
            <path id="패스_935" data-name="패스 935" class="cls-1" d="M1351.587 625.883h-3.7v-.546h3.7zm224.592-.546h-7.486v.546h7.486zm-12.477 0h-7.486v.546h7.486zm-12.477 0h-7.487v.546h7.487zm-12.478 0h-7.487v.546h7.487zm-12.477 0h-7.486v.546h7.486zm-12.478 0h-7.486v.546h7.486zm-12.478 0h-7.486v.546h7.486zm-12.477 0h-7.487v.546h7.487zm-12.478 0h-7.486v.546h7.486zm-12.477 0h-7.482v.546h7.487zm-12.478 0h-7.486v.546h7.486zm-12.477 0h-7.486v.546h7.486zm-12.477 0h-7.487v.546h7.487zm-12.478 0h-7.486v.546h7.486zm-12.477 0h-7.486v.546h7.486zm-12.477 0h-7.486v.546h7.486zm-12.478 0h-7.486v.546h7.486zm-12.477 0h-7.486v.546h7.486zm220.81 0h-3.7v.546h3.7z" transform="translate(-1347.611 -614.851)"/>
        </g>
    </g>
    <g id="그룹_2337" data-name="그룹 2337" transform="translate(146.789)">
        <path id="패스_936" data-name="패스 936" class="cls-1" d="M1635.849 644.688a1.729 1.729 0 1 1-1.729-1.729 1.729 1.729 0 0 1 1.729 1.729z" transform="translate(-1616.017 -615.031)"/>
        <rect id="사각형_93" data-name="사각형 93" class="cls-1" width="36.206" height="14.009" rx="5"/>
        <path id="사각형_94" data-name="사각형 94" class="cls-1" transform="translate(17.83 14.009)" d="M0 0h.546v15.647H0z"/>
        <g id="그룹_2336" data-name="그룹 2336" transform="translate(7.42 3.837)">
            <path id="패스_937" data-name="패스 937" class="cls-7" d="M1619.563 601.667a1.407 1.407 0 0 1 .413 1.043 1.544 1.544 0 0 1-.229.829 1.573 1.573 0 0 1-.684.588 2.562 2.562 0 0 1-1.112.218 3.526 3.526 0 0 1-1.1-.172 2.342 2.342 0 0 1-.863-.478l.351-.6a2.024 2.024 0 0 0 .7.417 2.628 2.628 0 0 0 .909.157 1.505 1.505 0 0 0 .929-.252.825.825 0 0 0 .333-.7.809.809 0 0 0-.329-.688 1.658 1.658 0 0 0-.993-.245h-.428v-.535l1.344-1.651h-2.575v-.665h3.53v.52l-1.4 1.727a1.91 1.91 0 0 1 1.204.487z" transform="translate(-1615.987 -598.874)"/>
            <path id="패스_938" data-name="패스 938" class="cls-7" d="M1629.187 602.97h-1.016v1.314h-.741v-1.314h-2.973v-.535l2.736-3.5h.825l-2.621 3.378h2.056v-1.161h.718v1.161h1.016z" transform="translate(-1619.834 -598.874)"/>
            <path id="패스_939" data-name="패스 939" class="cls-7" d="M1638.051 601.933a1.28 1.28 0 0 1 .245.787 1.377 1.377 0 0 1-.26.837 1.633 1.633 0 0 1-.741.546 3.06 3.06 0 0 1-1.131.191 3.006 3.006 0 0 1-1.119-.191 1.639 1.639 0 0 1-.738-.546 1.379 1.379 0 0 1-.259-.837 1.3 1.3 0 0 1 .241-.787 1.5 1.5 0 0 1 .7-.5 1.341 1.341 0 0 1-.558-.466 1.226 1.226 0 0 1-.191-.688 1.27 1.27 0 0 1 .241-.772 1.514 1.514 0 0 1 .676-.5 2.679 2.679 0 0 1 1.009-.176 2.733 2.733 0 0 1 1.02.176 1.516 1.516 0 0 1 .68.5 1.271 1.271 0 0 1 .24.772 1.208 1.208 0 0 1-.194.684 1.358 1.358 0 0 1-.562.47 1.53 1.53 0 0 1 .701.5zm-.886 1.479a.835.835 0 0 0 .367-.714.809.809 0 0 0-.367-.7 1.724 1.724 0 0 0-1-.256 1.688 1.688 0 0 0-.994.256.814.814 0 0 0-.359.7.84.84 0 0 0 .359.714 1.652 1.652 0 0 0 .994.264 1.687 1.687 0 0 0 1-.264zm-1.857-3.737a.79.79 0 0 0 0 1.257 1.419 1.419 0 0 0 .859.229 1.47 1.47 0 0 0 .875-.229.776.776 0 0 0-.008-1.257 1.456 1.456 0 0 0-.867-.233 1.4 1.4 0 0 0-.86.233z" transform="translate(-1624.19 -598.823)"/>
            <path id="패스_940" data-name="패스 940" class="cls-7" d="M1644.126 607.05a.516.516 0 0 1 .141.371.936.936 0 0 1-.026.222 7.127 7.127 0 0 1-.1.329l-.359 1.062h-.481l.283-1.139a.476.476 0 0 1-.233-.18.5.5 0 0 1-.088-.294.509.509 0 0 1 .145-.374.5.5 0 0 1 .367-.145.47.47 0 0 1 .351.148z" transform="translate(-1628.374 -602.492)"/>
            <path id="패스_941" data-name="패스 941" class="cls-7" d="M1650.853 601.5a1.431 1.431 0 0 1 .538 1.181 1.635 1.635 0 0 1-.225.852 1.538 1.538 0 0 1-.679.6 2.583 2.583 0 0 1-1.12.218 3.506 3.506 0 0 1-1.093-.172 2.425 2.425 0 0 1-.871-.478l.352-.6a2.019 2.019 0 0 0 .7.417 2.605 2.605 0 0 0 .9.157 1.5 1.5 0 0 0 .936-.256.835.835 0 0 0 .332-.7.825.825 0 0 0-.366-.73 2.335 2.335 0 0 0-1.253-.248h-1.215l.283-2.8h3.018v.665h-2.377l-.145 1.467h.6a2.684 2.684 0 0 1 1.685.427z" transform="translate(-1630.255 -598.874)"/>
        </g>
    </g>
    <g id="그룹_2339" data-name="그룹 2339" transform="translate(99.504)">
        <path id="패스_942" data-name="패스 942" class="cls-1" d="M1540.095 774.531a1.728 1.728 0 1 1-1.729-1.728 1.729 1.729 0 0 1 1.729 1.728z" transform="translate(-1520.263 -674.004)"/>
        <rect id="사각형_95" data-name="사각형 95" class="cls-1" width="36.206" height="14.009" rx="5"/>
        <path id="사각형_96" data-name="사각형 96" class="cls-1" transform="translate(17.83 14.009)" d="M0 0h.546v85.648H0z"/>
        <g id="그룹_2338" data-name="그룹 2338" transform="translate(10 3.837)">
            <path id="패스_943" data-name="패스 943" class="cls-7" d="M1529.688 602.97h-1.016v1.314h-.742v-1.314h-2.972v-.535l2.736-3.5h.825l-2.62 3.378h2.055v-1.161h.719v1.161h1.016z" transform="translate(-1524.958 -598.874)"/>
            <path id="패스_944" data-name="패스 944" class="cls-7" d="M1537.714 601.184a1.524 1.524 0 0 1 .89 1.421 1.6 1.6 0 0 1-.248.886 1.66 1.66 0 0 1-.68.592 2.183 2.183 0 0 1-.967.21 2.052 2.052 0 0 1-1.662-.7 2.979 2.979 0 0 1-.585-1.971 3.365 3.365 0 0 1 .317-1.524 2.215 2.215 0 0 1 .886-.955 2.627 2.627 0 0 1 1.326-.325 3.218 3.218 0 0 1 .733.08 2.029 2.029 0 0 1 .6.233l-.29.6a1.836 1.836 0 0 0-1.024-.252 1.686 1.686 0 0 0-1.307.516 2.145 2.145 0 0 0-.474 1.5 1.91 1.91 0 0 0 .007.191 1.449 1.449 0 0 1 .63-.523 2.2 2.2 0 0 1 .906-.18 2.164 2.164 0 0 1 .942.201zm-.18 2.208a.947.947 0 0 0 .328-.756.93.93 0 0 0-.332-.753 1.338 1.338 0 0 0-.89-.279 1.426 1.426 0 0 0-.638.138 1.085 1.085 0 0 0-.436.374.965.965 0 0 0-.007 1.043 1.047 1.047 0 0 0 .436.374 1.524 1.524 0 0 0 .683.141 1.267 1.267 0 0 0 .857-.281z" transform="translate(-1529.275 -598.823)"/>
            <path id="패스_945" data-name="패스 945" class="cls-7" d="M1544.108 607.05a.516.516 0 0 1 .142.371.937.937 0 0 1-.027.222 6.045 6.045 0 0 1-.1.329l-.36 1.062h-.481l.283-1.139a.48.48 0 0 1-.233-.18.513.513 0 0 1 .424-.814.469.469 0 0 1 .352.149z" transform="translate(-1533.262 -602.492)"/>
            <path id="패스_946" data-name="패스 946" class="cls-7" d="M1550.835 601.5a1.431 1.431 0 0 1 .538 1.181 1.63 1.63 0 0 1-.225.852 1.535 1.535 0 0 1-.68.6 2.581 2.581 0 0 1-1.12.218 3.5 3.5 0 0 1-1.093-.172 2.425 2.425 0 0 1-.87-.478l.351-.6a2.024 2.024 0 0 0 .7.417 2.611 2.611 0 0 0 .9.157 1.5 1.5 0 0 0 .936-.256.836.836 0 0 0 .333-.7.826.826 0 0 0-.367-.73 2.334 2.334 0 0 0-1.253-.248h-1.215l.283-2.8h3.018v.665h-2.371l-.146 1.467h.6a2.682 2.682 0 0 1 1.681.427z" transform="translate(-1535.144 -598.874)"/>
        </g>
    </g>
</svg>
