<svg xmlns="http://www.w3.org/2000/svg" width="690" height="2073" viewBox="0 0 690 2073">
    <defs>
        <style>
            .cls-2{fill:#dce2e8}.cls-3{fill:#0c5c86}.cls-6{fill:#fff}.cls-5,.cls-6{font-family:'Pretendard';font-weight:600}.cls-5{fill:#1f1f1f}.cls-11,.cls-5{font-size:24px}.cls-6{font-size:22px}.cls-7{fill:#e6e6e6}.cls-8{fill:#9caab5}.cls-10,.cls-9{fill:#f4f6f8}.cls-10{opacity:.9}.cls-11{fill:#797979;font-family:'Pretendard';font-weight:400}
        </style>
    </defs>
    <g id="그룹_3056" data-name="그룹 3056" transform="translate(-30 -598)">
        <rect id="사각형_2032" data-name="사각형 2032" width="230" height="70" rx="35" transform="translate(30 701)" style="fill:#17abcb"/>
        <rect id="사각형_2033" data-name="사각형 2033" class="cls-2" width="689" height="100" rx="5" transform="translate(31 952)"/>
        <rect id="사각형_2058" data-name="사각형 2058" class="cls-3" width="226" height="80" rx="5" transform="translate(267 598)"/>
        <rect id="사각형_2034" data-name="사각형 2034" class="cls-3" width="226" height="80" rx="5" transform="translate(267 789)"/>
        <rect id="사각형_2036" data-name="사각형 2036" class="cls-2" width="690" height="100" rx="5" transform="translate(30 1417)"/>
        <rect id="사각형_2038" data-name="사각형 2038" class="cls-2" width="689" height="100" rx="5" transform="translate(31 1529)"/>
        <text id="RESEARCH_ADVISORY_BOARD" data-name="RESEARCH ADVISORY BOARD" transform="translate(147 732)" style="font-family:Pretendard;font-weight:600;font-size:20px;fill:#fff"><tspan x="-86.913" y="0">Research Advisory</tspan><tspan x="-29.644" y="23" xml:space="preserve"> Board</tspan></text>
        <text id="Division_for_Planning_And_Coordination" data-name="Division for Planning And Coordination" class="cls-5" transform="translate(375 1010)"><tspan x="-213.522" y="0">Division for Planning And Coordination</tspan></text>
        <text id="Division_for_Women_s_Visions_Research" data-name="Division for Women’s Visions Research" class="cls-5" transform="translate(375 1475)"><tspan x="-214.289" y="0">Division for Women’s Visions Research</tspan></text>
        <text id="Division_for_Work_and_Life_Research" data-name="Division for Work and Life Research" class="cls-5" transform="translate(375 1587)"><tspan x="-195.928" y="0">Division for Work and Life Research</tspan></text>
        <text id="PRESIDENT" class="cls-6" transform="translate(380 646)"><tspan x="-48.714" y="0">President</tspan></text>
        <text id="Vice_President" data-name="Vice President" class="cls-6" transform="translate(380 837)"><tspan x="-73.961" y="0">Vice President</tspan></text>
        <path id="사각형_2057" data-name="사각형 2057" class="cls-7" transform="rotate(90 -177 557)" d="M0 0h4v120H0z"/>
        <path id="사각형_2041" data-name="사각형 2041" class="cls-7" transform="translate(378 678)" d="M0 0h4v111H0z"/>
        <rect id="사각형_2059" data-name="사각형 2059" class="cls-8" width="190" height="60" rx="30" transform="translate(530 608)"/>
        <rect id="사각형_2060" data-name="사각형 2060" class="cls-8" width="190" height="60" rx="30" transform="translate(530 799)"/>
        <text id="AUDITOR" class="cls-6" transform="translate(625 646)"><tspan x="-37.813" y="0">Auditor</tspan></text>
        <text id="AUDITOR_OFFICE" data-name="AUDITOR OFFICE" class="cls-6" transform="translate(625 837)"><tspan x="-71.481" y="0">Auditor Office</tspan></text>
        <rect id="사각형_2076" data-name="사각형 2076" class="cls-9" width="690" height="424" rx="5" transform="translate(30 1863)"/>
        <path id="사각형_2082" data-name="사각형 2082" class="cls-10" transform="translate(55 1863)" d="M0 0h640v90H0z"/>
        <path id="사각형_2080" data-name="사각형 2080" class="cls-10" transform="translate(55 1954)" d="M0 0h640v90H0z"/>
        <path id="사각형_2077" data-name="사각형 2077" class="cls-10" transform="translate(55 2045)" d="M0 0h640v80H0z"/>
        <path id="사각형_2078" data-name="사각형 2078" class="cls-10" transform="translate(55 2126)" d="M0 0h640v80H0z"/>
        <path id="사각형_2084" data-name="사각형 2084" class="cls-10" transform="translate(55 2207)" d="M0 0h640v80H0z"/>
        <text id="Center_for_Gender_Equality_Strategy" data-name="Center for Gender Equality Strategy" class="cls-11" transform="translate(375 1917)"><tspan x="-191.428" y="0">Center for Gender Equality Strategy</tspan></text>
        <text id="Center_for_Gender_Impact_Assessment" data-name="Center for Gender Impact Assessment" class="cls-11" transform="translate(375 2008)"><tspan x="-205.338" y="0">Center for Gender Impact Assessment</tspan></text>
        <text id="Center_for_Gender_Budgeting" data-name="Center for Gender Budgeting" class="cls-11" transform="translate(375 2094)"><tspan x="-155.088" y="0">Center for Gender Budgeting</tspan></text>
        <text id="Center_for_Gender-sensitive_Date" data-name="Center for Gender-sensitive Date" class="cls-11" transform="translate(375 2175)"><tspan x="-177.344" y="0">Center for Gender-sensitive Date</tspan></text>
        <text id="Center_for_Information_and_Knowledge_Sharing" data-name="Center for Information and Knowledge Sharing" class="cls-11" transform="translate(375 2256)"><tspan x="-248.366" y="0">Center for Information and Knowledge Sharing</tspan></text>
        <path id="사각형_2083" data-name="사각형 2083" class="cls-7" transform="translate(55 1953)" d="M0 0h640v1H0z"/>
        <g id="그룹_2821" data-name="그룹 2821" transform="translate(0 42)">
            <rect id="사각형_2018" data-name="사각형 2018" class="cls-9" width="690" height="262" rx="5" transform="translate(30 2367)"/>
            <path id="사각형_2064" data-name="사각형 2064" class="cls-10" transform="translate(55 2367)" d="M0 0h640v90H0z"/>
            <path id="사각형_2065" data-name="사각형 2065" class="cls-10" transform="translate(55 2458)" d="M0 0h640v90H0z"/>
            <path id="사각형_2067" data-name="사각형 2067" class="cls-10" transform="translate(55 2549)" d="M0 0h640v80H0z"/>
            <text id="Center_for_Personnel_Management" data-name="Center for Personnel Management" class="cls-11" transform="translate(375 2421)"><tspan x="-184.409" y="0">Center for Personnel Management</tspan></text>
            <text id="Center_for_Facility_Management_and_General_Affairs" data-name="Center for Facility Management and General Affairs" class="cls-11" transform="translate(375 2512)"><tspan x="-274.483" y="0">Center for Facility Management and General Affairs</tspan></text>
            <text id="Center_for_Finance_and_Accounting" data-name="Center for Finance and Accounting" class="cls-11" transform="translate(375 2598)"><tspan x="-186.435" y="0">Center for Finance and Accounting</tspan></text>
            <path id="사각형_2021" data-name="사각형 2021" class="cls-7" transform="translate(55 2457)" d="M0 0h640v1H0z"/>
            <path id="사각형_2066" data-name="사각형 2066" class="cls-7" transform="translate(55 2548)" d="M0 0h640v1H0z"/>
        </g>
        <path id="사각형_2081" data-name="사각형 2081" class="cls-7" transform="translate(55 2044)" d="M0 0h640v1H0z"/>
        <g id="그룹_2820" data-name="그룹 2820" transform="translate(0 62)">
            <rect id="사각형_2068" data-name="사각형 2068" class="cls-9" width="690" height="343" rx="5" transform="translate(30 1000)"/>
            <path id="사각형_2073" data-name="사각형 2073" class="cls-10" transform="translate(55 1000)" d="M0 0h640v90H0z"/>
            <path id="사각형_2070" data-name="사각형 2070" class="cls-10" transform="translate(55 1091)" d="M0 0h640v90H0z"/>
            <path id="사각형_2069" data-name="사각형 2069" class="cls-10" transform="translate(55 1182)" d="M0 0h640v80H0z"/>
            <path id="사각형_2074" data-name="사각형 2074" class="cls-10" transform="translate(55 1263)" d="M0 0h640v80H0z"/>
            <text id="Center_for_Research_Planning" data-name="Center for Research Planning" class="cls-11" transform="translate(375 1054)"><tspan x="-156.162" y="0">Center for Research Planning</tspan></text>
            <text id="Center_for_Research_Evaluation" data-name="Center for Research Evaluation" class="cls-11" transform="translate(375 1145)"><tspan x="-165.493" y="0">Center for Research Evaluation</tspan></text>
            <text id="Center_for_Budget_Planning_and_Management" data-name="Center for Budget Planning and Management" class="cls-11" transform="translate(375 1231)"><tspan x="-241.948" y="0">Center for Budget Planning and Management</tspan></text>
            <text id="Center_for_International_Development_and_Cooperation" data-name="Center for International Development and Cooperation" class="cls-11" transform="translate(375 1312)"><tspan x="-290.751" y="0">Center for International Development and Cooperation</tspan></text>
            <path id="사각형_2072" data-name="사각형 2072" class="cls-7" transform="translate(55 1090)" d="M0 0h640v1H0z"/>
            <path id="사각형_2071" data-name="사각형 2071" class="cls-7" transform="translate(55 1181)" d="M0 0h640v1H0z"/>
            <path id="사각형_2075" data-name="사각형 2075" class="cls-7" transform="translate(55 1262)" d="M0 0h640v1H0z"/>
        </g>
        <path id="사각형_2079" data-name="사각형 2079" class="cls-7" transform="translate(55 2125)" d="M0 0h640v1H0z"/>
        <path id="사각형_2085" data-name="사각형 2085" class="cls-7" transform="translate(55 2206)" d="M0 0h640v1H0z"/>
        <path id="사각형_2053" data-name="사각형 2053" class="cls-7" transform="translate(376 869)" d="M0 0h4v83H0z"/>
        <rect id="사각형_2035" data-name="사각형 2035" class="cls-2" width="690" height="100" rx="5" transform="translate(30 1641)"/>
        <text id="Division_for_Gender-based_Violence_Research" data-name="Division for Gender-based Violence Research" class="cls-5" transform="translate(348 1699)"><tspan x="-251.673" y="0">Division for Gender-based Violence Research</tspan></text>
        <rect id="사각형_2037" data-name="사각형 2037" class="cls-2" width="690" height="100" rx="5" transform="translate(30 1753)"/>
        <text id="Division_for_Gender_Mainstreaming_and_Knowledge_Innovation" data-name="Division for Gender Mainstreaming and Knowledge Innovation" class="cls-5" transform="translate(375 1796)"><tspan x="-215.78" y="0">Division for Gender Mainstreaming and</tspan><tspan x="-123.273" y="30">Knowledge Innovation</tspan></text>
        <rect id="사각형_2039" data-name="사각형 2039" class="cls-2" width="689" height="100" rx="5" transform="translate(31 2299)"/>
        <text id="Division_for_Administ_rartion_and_Management" data-name="Division for Administ rartion and Management" class="cls-5" transform="translate(348 2357)"><tspan x="-254.213" y="0">Division for Administ rartion and Management</tspan></text>
    </g>
</svg>
