<svg xmlns="http://www.w3.org/2000/svg" width="1319" height="974" viewBox="0 0 1319 974">
    <defs>
        <style>
            .cls-2{fill:#9caab5}.cls-3{fill:#dce2e8}.cls-4{fill:#0c5c86}.cls-5,.cls-6{font-family:'Pretendard';font-weight:600}.cls-5{fill:#fff;font-size:18px}.cls-6{fill:#1f1f1f}.cls-6,.cls-8{font-size:16px}.cls-7{fill:#f4f6f8}.cls-8{fill:#797979;font-family:'Pretendard'}.cls-9{fill:#e6e6e6}
        </style>
    </defs>
    <g id="그룹_3055" data-name="그룹 3055" transform="translate(-301 -790)">
        <rect id="사각형_1960" data-name="사각형 1960" width="296" height="70" rx="35" transform="translate(416 900)" style="fill:#17abcb"/>
        <rect id="사각형_1965" data-name="사각형 1965" class="cls-2" width="220" height="70" rx="35" transform="translate(1247 805)"/>
        <rect id="사각형_1966" data-name="사각형 1966" class="cls-2" width="220" height="70" rx="35" transform="translate(1247 995)"/>
        <rect id="사각형_1967" data-name="사각형 1967" class="cls-3" width="210" height="140" rx="5" transform="translate(301 1185)"/>
        <rect id="사각형_1976" data-name="사각형 1976" class="cls-4" width="240" height="100" rx="5" transform="translate(840 790)"/>
        <rect id="사각형_1977" data-name="사각형 1977" class="cls-4" width="240" height="100" rx="5" transform="translate(840 980)"/>
        <rect id="사각형_1973" data-name="사각형 1973" class="cls-3" width="210" height="140" rx="5" transform="translate(966 1185)"/>
        <rect id="사각형_1969" data-name="사각형 1969" class="cls-3" width="210" height="140" rx="5" transform="translate(523 1185)"/>
        <rect id="사각형_1971" data-name="사각형 1971" class="cls-3" width="210" height="140" rx="5" transform="translate(1188 1185)"/>
        <rect id="사각형_1970" data-name="사각형 1970" class="cls-3" width="210" height="140" rx="5" transform="translate(745 1185)"/>
        <rect id="사각형_1972" data-name="사각형 1972" class="cls-3" width="210" height="140" rx="5" transform="translate(1410 1185)"/>
        <text id="RESEARCH_ADVISORY_BOARD" data-name="RESEARCH ADVISORY BOARD" class="cls-5" transform="translate(564 942)"><tspan x="-104.902" y="0">Research Advisory Board</tspan></text>
        <text id="AUDITOR" class="cls-5" transform="translate(1357 847)"><tspan x="-30.938" y="0">Auditor</tspan></text>
        <text id="AUDITOR_OFFICE" data-name="AUDITOR OFFICE" class="cls-5" transform="translate(1357 1037)"><tspan x="-58.484" y="0">Auditor Office</tspan></text>
        <text id="Division_for_Planning_And_Coordination" data-name="Division for Planning And Coordination" class="cls-6" transform="translate(411 1247)"><tspan x="-75.572" y="0">Division for Planning</tspan><tspan x="-64.876" y="28">And Coordination</tspan></text>
        <text id="Division_for_Gender-based_Violence_Research" data-name="Division for Gender-based Violence Research" class="cls-6" transform="translate(1071 1233)"><tspan x="-43.53" y="0">Division for </tspan><tspan x="-87.749" y="28">Gender-based Violence</tspan><tspan x="-34.602" y="56">Research</tspan></text>
        <text id="Division_for_Women_s_Visions_Research" data-name="Division for Women’s Visions Research" class="cls-6" transform="translate(627 1247)"><tspan x="-77.282" y="0">Division for Women’s</tspan><tspan x="-63.677" y="28">Visions Research</tspan></text>
        <text id="Division_for_Gender_Mainstreaming_and_Knowledge_Innovation" data-name="Division for Gender Mainstreaming and Knowledge Innovation" class="cls-6" transform="translate(1293 1233)"><tspan x="-70.925" y="0">Division for Gender</tspan><tspan x="-71.028" y="28">Mainstreaming and</tspan><tspan x="-82.182" y="56">Knowledge Innovation</tspan></text>
        <text id="Division_for_Work_and_Life_Research" data-name="Division for Work and Life Research" class="cls-6" transform="translate(850 1247)"><tspan x="-78.691" y="0">Division for Work and</tspan><tspan x="-50.028" y="28">Life Research</tspan></text>
        <text id="Division_for_Administrartion_and_Management" data-name="Division for Administrartion and Management" class="cls-6" transform="translate(1515 1233)"><tspan x="-43.53" y="0">Division for </tspan><tspan x="-73.356" y="28">Administrartion and</tspan><tspan x="-48.787" y="56">Management</tspan></text>
        <rect id="사각형_1968" data-name="사각형 1968" class="cls-7" width="432" height="340" rx="5" transform="translate(301 1424)"/>
        <rect id="사각형_1974" data-name="사각형 1974" class="cls-7" width="432" height="340" rx="5" transform="translate(744 1424)"/>
        <rect id="사각형_1975" data-name="사각형 1975" class="cls-7" width="432" height="340" rx="5" transform="translate(1188 1424)"/>
        <text id="Center_for_Research_Planning" data-name="Center for Research Planning" class="cls-8" transform="translate(334 1478)"><tspan x="0" y="0">Center for Research Planning</tspan></text>
        <text id="Center_for_Gender_Equality_Strategy" data-name="Center for Gender Equality Strategy" class="cls-8" transform="translate(777 1478)"><tspan x="0" y="0">Center for Gender Equality Strategy</tspan></text>
        <text id="Center_for_Personnel_Management" data-name="Center for Personnel Management" class="cls-8" transform="translate(1221 1478)"><tspan x="0" y="0">Center for Personnel Management</tspan></text>
        <text id="Center_for_Budget_Planning_and_Management" data-name="Center for Budget Planning and Management" class="cls-8" transform="translate(334 1600)"><tspan x="0" y="0">Center for Budget Planning and Management</tspan></text>
        <text id="Center_for_Gender_Budgeting" data-name="Center for Gender Budgeting" class="cls-8" transform="translate(777 1600)"><tspan x="0" y="0">Center for Gender Budgeting</tspan></text>
        <text id="Center_for_Finance_and_Accounting" data-name="Center for Finance and Accounting" class="cls-8" transform="translate(1221 1630)"><tspan x="0" y="0">Center for Finance and Accounting</tspan></text>
        <text id="Center_for_Research_Evaluation" data-name="Center for Research Evaluation" class="cls-8" transform="translate(334 1539)"><tspan x="0" y="0">Center for Research Evaluation</tspan></text>
        <text id="Center_for_Gender_Impact_Assessment" data-name="Center for Gender Impact Assessment" class="cls-8" transform="translate(777 1539)"><tspan x="0" y="0">Center for Gender Impact Assessment</tspan></text>
        <text id="Center_for_Facility_Management_and_General_Affairs" data-name="Center for Facility Management and General Affairs" class="cls-8" transform="translate(1221 1539)"><tspan x="0" y="0">Center for Facility Management and General</tspan><tspan x="0" y="28">Affairs</tspan></text>
        <text id="Center_for_International_Development_and_Cooperation" data-name="Center for International Development and Cooperation" class="cls-8" transform="translate(334 1661)"><tspan x="0" y="0">Center for International Development and</tspan><tspan x="0" y="28">Cooperation</tspan></text>
        <text id="Center_for_Gender-sensitive_Date" data-name="Center for Gender-sensitive Date" class="cls-8" transform="translate(777 1661)"><tspan x="0" y="0">Center for Gender-sensitive Date</tspan></text>
        <text id="Center_for_Information_and_Knowledge_Sharing" data-name="Center for Information and Knowledge Sharing" class="cls-8" transform="translate(777 1722)"><tspan x="0" y="0">Center for Information and Knowledge Sharing</tspan></text>
        <text id="PRESIDENT" class="cls-5" transform="translate(960 847)"><tspan x="-39.857" y="0">President</tspan></text>
        <text id="Vice_President" data-name="Vice President" class="cls-5" transform="translate(960 1037)"><tspan x="-60.514" y="0">Vice President</tspan></text>
        <path id="사각형_1978" data-name="사각형 1978" class="cls-9" transform="translate(959 890)" d="M0 0h3v90H0z"/>
        <path id="사각형_2008" data-name="사각형 2008" class="cls-9" transform="translate(959 1080)" d="M0 0h3v52H0z"/>
        <path id="사각형_1984" data-name="사각형 1984" class="cls-9" transform="translate(405 1135)" d="M0 0h3v50H0z"/>
        <path id="사각형_1990" data-name="사각형 1990" class="cls-9" transform="translate(405 1325)" d="M0 0h3v48H0z"/>
        <path id="사각형_1995" data-name="사각형 1995" class="cls-9" transform="translate(1292 1325)" d="M0 0h3v48H0z"/>
        <path id="사각형_1997" data-name="사각형 1997" class="cls-9" transform="translate(1514 1325)" d="M0 0h3v48H0z"/>
        <path id="사각형_1991" data-name="사각형 1991" class="cls-9" transform="rotate(-90 890.5 485.5)" d="M0 0h3v114H0z"/>
        <path id="사각형_1994" data-name="사각형 1994" class="cls-9" transform="rotate(-90 1167.5 208.5)" d="M0 0h3v336H0z"/>
        <path id="사각형_1996" data-name="사각형 1996" class="cls-9" transform="rotate(-90 1389.5 -13.5)" d="M0 0h3v114H0z"/>
        <path id="사각형_1992" data-name="사각형 1992" class="cls-9" transform="translate(516 1376)" d="M0 0h3v48H0z"/>
        <path id="사각형_1993" data-name="사각형 1993" class="cls-9" transform="translate(959 1376)" d="M0 0h3v48H0z"/>
        <path id="사각형_1998" data-name="사각형 1998" class="cls-9" transform="translate(1403 1376)" d="M0 0h3v48H0z"/>
        <path id="사각형_1985" data-name="사각형 1985" class="cls-9" transform="translate(627 1135)" d="M0 0h3v50H0z"/>
        <path id="사각형_1986" data-name="사각형 1986" class="cls-9" transform="translate(849 1135)" d="M0 0h3v50H0z"/>
        <path id="사각형_1987" data-name="사각형 1987" class="cls-9" transform="translate(1070 1135)" d="M0 0h3v50H0z"/>
        <path id="사각형_1988" data-name="사각형 1988" class="cls-9" transform="translate(1292 1135)" d="M0 0h3v50H0z"/>
        <path id="사각형_1989" data-name="사각형 1989" class="cls-9" transform="translate(1514 1135)" d="M0 0h3v50H0z"/>
        <path id="사각형_1979" data-name="사각형 1979" class="cls-9" transform="rotate(90 12.5 946.5)" d="M0 0h3v247H0z"/>
        <path id="사각형_1983" data-name="사각형 1983" class="cls-9" transform="rotate(90 192.5 1324.5)" d="M0 0h3v1112H0z"/>
        <path id="사각형_1980" data-name="사각형 1980" class="cls-9" transform="rotate(90 204 1043)" d="M0 0h3v167H0z"/>
        <path id="사각형_1981" data-name="사각형 1981" class="cls-9" transform="rotate(180 679.25 497.5)" d="M0 0h3v120H0z"/>
        <path id="사각형_1841" data-name="사각형 1841" class="cls-9" transform="translate(334 1502)" d="M0 0h370v1H0z"/>
        <path id="사각형_2003" data-name="사각형 2003" class="cls-9" transform="translate(775 1502)" d="M0 0h370v1H0z"/>
        <path id="사각형_2005" data-name="사각형 2005" class="cls-9" transform="translate(1219 1502)" d="M0 0h370v1H0z"/>
        <path id="사각형_1999" data-name="사각형 1999" class="cls-9" transform="translate(334 1563)" d="M0 0h370v1H0z"/>
        <path id="사각형_2002" data-name="사각형 2002" class="cls-9" transform="translate(775 1563)" d="M0 0h370v1H0z"/>
        <path id="사각형_2006" data-name="사각형 2006" class="cls-9" transform="translate(1219 1593)" d="M0 0h370v1H0z"/>
        <path id="사각형_2000" data-name="사각형 2000" class="cls-9" transform="translate(334 1624)" d="M0 0h370v1H0z"/>
        <path id="사각형_2001" data-name="사각형 2001" class="cls-9" transform="translate(775 1624)" d="M0 0h370v1H0z"/>
        <path id="사각형_2007" data-name="사각형 2007" class="cls-9" transform="translate(1219 1654)" d="M0 0h370v1H0z"/>
        <path id="사각형_2004" data-name="사각형 2004" class="cls-9" transform="translate(775 1685)" d="M0 0h370v1H0z"/>
    </g>
</svg>
