<?xml version="1.0" encoding="UTF-8"?>
<svg width="99px" height="25px" viewBox="0 0 99 25" version="1.1" xmlns="http://www.w3.org/2000/svg" xmlns:xlink="http://www.w3.org/1999/xlink">
    <title>Group</title>
    <g id="Page-1" stroke="none" stroke-width="1" fill="none" fill-rule="evenodd">
        <g id="open-bi" transform="translate(-555.000000, -477.000000)" fill-rule="nonzero">
            <g id="Group" transform="translate(555.000000, 477.000000)">
                <path d="M96.7682927,2.07963728e-14 L2.23170732,2.07963728e-14 C0.987804878,2.07963728e-14 -2.07963728e-14,0.987804878 -2.07963728e-14,2.23170732 L-2.07963728e-14,24.8780488 L99,24.8780488 L99,2.23170732 C99,0.987804878 97.9756098,2.07963728e-14 96.7682927,2.07963728e-14 Z M0.951219512,2.23170732 C0.951219512,1.5 1.53658537,0.951219512 2.26829268,0.951219512 L41.8170732,0.951219512 L41.8170732,18.7682927 L0.951219512,18.7682927 L0.951219512,2.23170732 Z M98.0487805,18.7682927 L42.7317073,18.7682927 L42.7317073,0.951219512 L96.7317073,0.951219512 C97.4634146,0.951219512 98.0121951,1.53658537 98.0121951,2.23170732 L98.0487805,18.7682927 Z" id="Shape" fill="#221E1F"></path>
                <path d="M56.597561,9.95121951 L56.597561,9.95121951 C56.3780488,8.37804878 55.6829268,7.53658537 55.0609756,7.13414634 C55.7195122,6.51219512 55.7195122,5.48780488 55.097561,4.82926829 C54.4756098,4.17073171 53.4512195,4.17073171 52.7926829,4.79268293 C52.1341463,5.41463415 52.1341463,6.43902439 52.7560976,7.09756098 C52.7560976,7.09756098 52.7926829,7.13414634 52.7926829,7.13414634 C52.1341463,7.53658537 51.4756098,8.34146341 51.2560976,9.95121951 C51.2195122,10.1707317 51.2195122,10.3902439 51.2195122,10.5731707 C51.2195122,10.7560976 51.2195122,10.9390244 51.2560976,11.1219512 C51.2926829,11.3414634 51.4756098,11.4878049 51.695122,11.4878049 L56.1585366,11.4878049 C56.3780488,11.4878049 56.5609756,11.3414634 56.597561,11.1219512 C56.6341463,10.9390244 56.6341463,10.7560976 56.6341463,10.5731707 C56.6707317,10.3902439 56.6341463,10.1707317 56.597561,9.95121951 Z" id="Path" fill="#FFFFFF"></path>
                <path d="M59.7073171,3.18292683 L48.2195122,3.18292683 C47.597561,3.18292683 47.1219512,3.65853659 47.1219512,4.2804878 L47.1219512,15.4756098 C47.1219512,16.097561 47.597561,16.5731707 48.2195122,16.5731707 L59.7073171,16.5731707 C60.3292683,16.5731707 60.804878,16.097561 60.804878,15.4756098 L60.804878,4.2804878 C60.804878,3.65853659 60.3292683,3.18292683 59.7073171,3.18292683 Z M59.7073171,16.1341463 L48.2195122,16.1341463 C47.8536585,16.1341463 47.5609756,15.8414634 47.5609756,15.4756098 L47.5609756,15.4756098 L47.5609756,12.5121951 L60.3292683,12.5121951 L60.3292683,15.4756098 C60.3658537,15.8414634 60.0731707,16.1341463 59.7073171,16.1341463 Z" id="Shape" fill="#221E1F"></path>
                <path d="M56.6707317,10.1341463 L56.6707317,10.1341463 C56.4512195,8.56097561 55.7560976,7.7195122 55.1341463,7.31707317 C55.7926829,6.69512195 55.7926829,5.67073171 55.1707317,5.01219512 C54.5487805,4.35365854 53.5243902,4.35365854 52.8658537,4.97560976 C52.2073171,5.59756098 52.2073171,6.62195122 52.8292683,7.2804878 C52.8292683,7.2804878 52.8658537,7.31707317 52.8658537,7.31707317 C52.2073171,7.7195122 51.5487805,8.52439024 51.3292683,10.1341463 C51.2926829,10.3536585 51.2926829,10.5731707 51.2926829,10.7560976 C51.2926829,10.9390244 51.2926829,11.1219512 51.3292683,11.304878 C51.3658537,11.5243902 51.5487805,11.6707317 51.7682927,11.6707317 L56.2317073,11.6707317 C56.4512195,11.6707317 56.6341463,11.5243902 56.6707317,11.304878 C56.7073171,11.1219512 56.7073171,10.9390244 56.7073171,10.7560976 C56.7073171,10.5731707 56.6707317,10.3536585 56.6707317,10.1341463 Z" id="Path" fill="#FFFFFF"></path>
                <path d="M53.0853659,13.1707317 C53.2682927,13.1707317 53.4146341,13.2073171 53.5609756,13.3536585 C53.6707317,13.4634146 53.7073171,13.6097561 53.7073171,13.7560976 C53.7073171,13.8658537 53.6707317,14.0121951 53.597561,14.0853659 C53.5609756,14.1585366 53.4878049,14.195122 53.4146341,14.2317073 C53.5243902,14.2682927 53.597561,14.3414634 53.6707317,14.4146341 C53.7439024,14.5243902 53.8170732,14.6707317 53.7804878,14.8170732 C53.7804878,15 53.7073171,15.1829268 53.597561,15.3292683 C53.4512195,15.4756098 53.2682927,15.5121951 53.0487805,15.5121951 L52.1707317,15.5121951 L52.1707317,13.1707317 L53.0853659,13.1707317 Z M52.9756098,14.1585366 C53.0853659,14.1585366 53.195122,14.1219512 53.2682927,14.0853659 C53.3414634,14.0121951 53.3780488,13.902439 53.3780488,13.7926829 C53.3780488,13.6829268 53.3414634,13.5731707 53.2682927,13.5365854 C53.1585366,13.4634146 53.0487805,13.4634146 52.9390244,13.4634146 L52.4634146,13.4634146 L52.4634146,14.195122 L52.9756098,14.1585366 Z M53.0487805,15.2560976 C53.1585366,15.2560976 53.2682927,15.2195122 53.3414634,15.1463415 C53.4146341,15.0731707 53.4512195,14.9268293 53.4512195,14.8170732 C53.4512195,14.7073171 53.4146341,14.597561 53.3414634,14.5243902 C53.2317073,14.4512195 53.1219512,14.4146341 53.0121951,14.4512195 L52.4634146,14.4512195 L52.4634146,15.2560976 L53.0487805,15.2560976 L53.0487805,15.2560976 Z" id="Shape" fill="#221E1F"></path>
                <polygon id="Path" fill="#221E1F" points="54.2560976 13.1707317 54.8414634 14.2682927 55.3902439 13.1707317 55.7560976 13.1707317 54.9878049 14.5609756 54.9878049 15.5121951 54.6585366 15.5121951 54.6585366 14.5609756 53.8902439 13.1707317"></polygon>
                <polygon id="Path" fill="#221E1F" points="86.2317073 13.1707317 86.5243902 13.1707317 86.5243902 15.5121951 86.1585366 15.5121951 85.1341463 13.6829268 85.1341463 15.5121951 84.8414634 15.5121951 84.8414634 13.1707317 85.2073171 13.1707317 86.195122 15"></polygon>
                <path d="M87.804878,13.1707317 C88.0609756,13.1707317 88.3170732,13.2804878 88.4634146,13.5 C88.6097561,13.7560976 88.6829268,14.0121951 88.6829268,14.304878 C88.6829268,14.597561 88.6097561,14.8902439 88.4634146,15.1463415 C88.3170732,15.402439 88.0609756,15.5121951 87.804878,15.5121951 L86.9634146,15.5121951 L86.9634146,13.1707317 L87.804878,13.1707317 Z M87.7317073,15.2560976 C87.9146341,15.2560976 88.097561,15.1829268 88.2073171,15 C88.3170732,14.7804878 88.3536585,14.5609756 88.3536585,14.3414634 C88.3536585,14.1585366 88.3170732,13.9390244 88.2439024,13.7560976 C88.1707317,13.5731707 87.9512195,13.4634146 87.7682927,13.4634146 L87.2926829,13.4634146 L87.2926829,15.2560976 L87.7317073,15.2560976 Z" id="Shape" fill="#221E1F"></path>
                <path d="M92.5243902,3.18292683 L81.0365854,3.18292683 C80.4146341,3.18292683 79.9390244,3.65853659 79.9390244,4.2804878 L79.9390244,15.4756098 C79.9390244,16.097561 80.4146341,16.5731707 81.0365854,16.5731707 L92.5243902,16.5731707 C93.1463415,16.5731707 93.6219512,16.097561 93.6219512,15.4756098 L93.6219512,4.2804878 C93.6219512,3.65853659 93.1097561,3.18292683 92.5243902,3.18292683 C92.5243902,3.18292683 92.5243902,3.18292683 92.5243902,3.18292683 Z M92.5243902,16.1341463 L81.0365854,16.1341463 C80.6707317,16.1341463 80.3780488,15.8414634 80.3780488,15.4756098 L80.3780488,12.5121951 L93.1463415,12.5121951 L93.1463415,15.4756098 C93.1463415,15.8414634 92.8536585,16.1341463 92.5243902,16.1341463 L92.5243902,16.1341463 Z" id="Shape" fill="#221E1F"></path>
                <path d="M92.9634146,11.7804878 L89.597561,9.58536585 C89.6341463,9.51219512 89.6707317,9.43902439 89.7073171,9.32926829 C89.8902439,8.8902439 89.9634146,8.45121951 90,7.97560976 L90,7.97560976 C90,7.64634146 89.9634146,7.2804878 89.8536585,6.95121951 L90.4756098,6.62195122 C90.5121951,6.58536585 90.5487805,6.54878049 90.5487805,6.47560976 C90.5487805,6.40243902 90.5121951,6.36585366 90.4390244,6.32926829 L88.8658537,5.8902439 C88.7926829,5.85365854 88.7195122,5.92682927 88.6829268,6 C88.6829268,6 88.6829268,6 88.6829268,6 L88.2439024,7.57317073 C88.2073171,7.64634146 88.2804878,7.7195122 88.3536585,7.75609756 C88.3902439,7.75609756 88.4268293,7.75609756 88.4634146,7.75609756 L89.0121951,7.42682927 C89.0487805,7.6097561 89.0853659,7.79268293 89.0853659,7.97560976 C89.0853659,8.30487805 89.0121951,8.63414634 88.902439,8.96341463 C88.902439,9 88.8658537,9.03658537 88.8658537,9.03658537 L84.6585366,6.29268293 L84.7682927,6.18292683 C85.2439024,5.70731707 85.902439,5.45121951 86.5609756,5.45121951 C86.597561,5.45121951 86.6341463,5.45121951 86.6707317,5.41463415 C86.7073171,5.37804878 86.7073171,5.34146341 86.7073171,5.30487805 L86.7073171,4.64634146 C86.7073171,4.57317073 86.6341463,4.5 86.5609756,4.5 C86.0853659,4.5 85.6463415,4.6097561 85.2073171,4.79268293 C84.804878,4.97560976 84.4390244,5.23170732 84.1097561,5.52439024 C84.0365854,5.59756098 83.9634146,5.67073171 83.8902439,5.7804878 L80.8902439,3.80487805 C80.7804878,3.73170732 80.7073171,3.73170732 80.6707317,3.76829268 L80.5243902,3.95121951 C80.4878049,3.98780488 80.5609756,4.06097561 80.6341463,4.13414634 L83.6341463,6.1097561 C83.0121951,7.09756098 82.902439,8.30487805 83.3414634,9.36585366 C83.7073171,10.2073171 84.3658537,10.8658537 85.2073171,11.2317073 C85.6463415,11.4146341 86.0853659,11.4878049 86.5609756,11.5243902 L86.5609756,11.5243902 C87.4756098,11.5243902 88.3902439,11.1585366 89.0487805,10.5 C89.195122,10.3536585 89.3414634,10.1707317 89.4878049,9.98780488 L92.8170732,12.1829268 C92.9268293,12.2560976 93,12.2560976 93.0365854,12.2195122 L93.1829268,12.0365854 C93.1097561,11.9268293 93.0731707,11.8536585 92.9634146,11.7804878 Z M88.3170732,9.76829268 C87.3292683,10.7560976 85.7195122,10.7560976 84.7317073,9.76829268 C84.7317073,9.76829268 84.7317073,9.76829268 84.7317073,9.76829268 C84.2560976,9.29268293 84,8.63414634 84,7.97560976 C84,7.64634146 84.0731707,7.2804878 84.1829268,6.98780488 C84.2560976,6.84146341 84.2926829,6.73170732 84.402439,6.62195122 L88.6463415,9.40243902 C88.5365854,9.54878049 88.4268293,9.65853659 88.3170732,9.76829268 Z" id="Shape" fill="#FFFFFF"></path>
                <path d="M21.804878,6.54878049 C21.6219512,6.18292683 21.3292683,5.8902439 20.9634146,5.67073171 C20.597561,5.45121951 20.195122,5.30487805 19.7926829,5.23170732 C19.3536585,5.15853659 18.8780488,5.12195122 18.4390244,5.12195122 L15.0365854,5.12195122 C14.9634146,5.12195122 14.9268293,5.15853659 14.8902439,5.19512195 C14.8536585,5.23170732 14.8170732,5.30487805 14.8170732,5.34146341 L14.8170732,14.4512195 C14.8170732,14.4878049 14.8536585,14.5609756 14.8902439,14.597561 C14.9268293,14.6341463 15,14.6707317 15.0365854,14.6707317 L16.2439024,14.6707317 C16.2804878,14.6707317 16.3536585,14.6341463 16.3902439,14.597561 C16.4268293,14.5609756 16.4634146,14.5243902 16.4634146,14.4512195 L16.4634146,11.0121951 L18.5487805,11.0121951 C19.6829268,11.0121951 20.597561,10.7560976 21.2195122,10.2439024 C21.8780488,9.69512195 22.2073171,8.85365854 22.1707317,7.97560976 C22.1341463,7.46341463 22.0243902,6.95121951 21.804878,6.54878049 Z M18.5121951,9.47560976 L16.3902439,9.47560976 L16.3902439,6.58536585 L18.4390244,6.58536585 C18.695122,6.58536585 18.9878049,6.62195122 19.2439024,6.65853659 C19.4634146,6.69512195 19.6829268,6.76829268 19.8658537,6.87804878 C20.0487805,6.98780488 20.1585366,7.13414634 20.2682927,7.2804878 C20.3780488,7.5 20.4146341,7.75609756 20.4146341,8.01219512 C20.4146341,8.23170732 20.3780488,8.45121951 20.304878,8.67073171 C20.2317073,8.85365854 20.1219512,9 19.9756098,9.1097561 C19.7926829,9.25609756 19.6097561,9.32926829 19.3902439,9.40243902 C19.1341463,9.43902439 18.8414634,9.47560976 18.5121951,9.47560976 L18.5121951,9.47560976 Z" id="Shape" fill="#221E1F"></path>
                <path d="M30.0731707,13.1707317 C30.0365854,13.1341463 30,13.097561 29.9268293,13.097561 L24.5487805,13.097561 L24.5487805,10.4268293 L29.3780488,10.4268293 C29.4512195,10.4268293 29.4878049,10.3902439 29.5243902,10.3536585 C29.5609756,10.3170732 29.597561,10.2804878 29.597561,10.2073171 L29.597561,9.1097561 C29.597561,9.03658537 29.5609756,9 29.5243902,8.96341463 C29.4878049,8.92682927 29.4146341,8.8902439 29.3780488,8.8902439 L24.5487805,8.8902439 L24.5487805,6.54878049 L29.7439024,6.54878049 C29.7804878,6.54878049 29.8536585,6.51219512 29.8902439,6.47560976 C29.9268293,6.43902439 29.9634146,6.36585366 29.9634146,6.32926829 L29.9634146,5.23170732 C29.9634146,5.19512195 29.9268293,5.12195122 29.8902439,5.08536585 C29.8536585,5.04878049 29.8170732,5.01219512 29.7439024,5.01219512 L23.1585366,5.01219512 C23.0487805,5.01219512 22.9390244,5.12195122 22.9390244,5.23170732 L22.9390244,14.3414634 C22.9390244,14.4146341 22.9756098,14.4512195 23.0121951,14.4878049 C23.0487805,14.5243902 23.1219512,14.5609756 23.1585366,14.5609756 L29.9268293,14.5609756 C30.0365854,14.5609756 30.1463415,14.4878049 30.1463415,14.3780488 C30.1463415,14.3780488 30.1463415,14.3780488 30.1463415,14.3780488 L30.1463415,13.2804878 C30.1463415,13.2073171 30.1097561,13.1707317 30.0731707,13.1707317 Z" id="Path" fill="#221E1F"></path>
                <path d="M38.597561,5.15853659 C38.5609756,5.12195122 38.4878049,5.08536585 38.4512195,5.08536585 L37.2804878,5.08536585 C37.2073171,5.08536585 37.1707317,5.12195122 37.1341463,5.15853659 C37.097561,5.19512195 37.0609756,5.26829268 37.0609756,5.30487805 L37.0609756,11.7804878 L32.7073171,5.15853659 C32.6707317,5.08536585 32.597561,5.08536585 32.5243902,5.08536585 L31.2804878,5.08536585 C31.1707317,5.08536585 31.0609756,5.19512195 31.0609756,5.30487805 C31.0609756,5.30487805 31.0609756,5.30487805 31.0609756,5.30487805 L31.0609756,14.4146341 C31.0609756,14.4512195 31.097561,14.5243902 31.1341463,14.5609756 C31.1707317,14.597561 31.2439024,14.6341463 31.2804878,14.6341463 L32.4146341,14.6341463 C32.4512195,14.6341463 32.5243902,14.597561 32.5609756,14.5609756 C32.597561,14.5243902 32.6341463,14.4512195 32.6341463,14.4146341 L32.6341463,7.93902439 L37.0243902,14.5243902 C37.0609756,14.597561 37.1341463,14.6341463 37.2073171,14.597561 L38.4512195,14.597561 C38.5243902,14.597561 38.5609756,14.5609756 38.597561,14.5243902 C38.6341463,14.4878049 38.6707317,14.4146341 38.6707317,14.3780488 L38.6707317,5.30487805 C38.6341463,5.23170732 38.6341463,5.19512195 38.597561,5.15853659 Z" id="Path" fill="#221E1F"></path>
                <path d="M8.52439024,5.92682927 C10.3536585,5.92682927 11.9268293,7.2804878 12.2195122,9.1097561 C12.7682927,9.18292683 13.2804878,9.32926829 13.7926829,9.54878049 C13.7926829,9.43902439 13.7926829,9.36585366 13.7926829,9.36585366 L13.7926829,9.36585366 C13.6097561,6.47560976 11.1219512,4.24390244 8.23170732,4.3902439 C5.59756098,4.53658537 3.47560976,6.62195122 3.29268293,9.29268293 C3.32926829,9.65853659 3.58536585,9.95121951 3.91463415,10.0609756 L3.87804878,10.0609756 C4.57317073,10.4634146 5.34146341,10.6463415 6.14634146,10.6829268 C7.02439024,10.6829268 7.86585366,10.4268293 8.59756098,9.95121951 C9.14634146,9.51219512 9.76829268,9.29268293 10.4634146,9.2195122 C10.6829268,9.2195122 10.8658537,9.25609756 11.0853659,9.29268293 C11.1585366,9.29268293 11.195122,9.32926829 11.2682927,9.32926829 C11.304878,9.32926829 11.4512195,9.43902439 11.4878049,9.29268293 C11.4878049,9.2195122 11.4878049,9.18292683 11.4512195,9.1097561 C11.3414634,9 11.2317073,8.8902439 11.1219512,8.81707317 C10.9756098,8.70731707 10.7926829,8.63414634 10.6463415,8.59756098 C10.2439024,8.52439024 9.84146341,8.52439024 9.43902439,8.59756098 C9.03658537,8.67073171 8.63414634,8.81707317 8.26829268,9 C7.7195122,9.25609756 7.13414634,9.40243902 6.54878049,9.40243902 C6.03658537,9.40243902 5.56097561,9.2195122 5.23170732,8.81707317 C5.15853659,8.70731707 5.08536585,8.63414634 5.01219512,8.52439024 C5.48780488,6.98780488 6.91463415,5.92682927 8.52439024,5.92682927 Z" id="Path" fill="#00B193"></path>
                <path d="M12.2926829,9.69512195 C12.2926829,9.80487805 12.2926829,9.87804878 12.2926829,9.95121951 L12.2926829,9.95121951 C12.1463415,11.8902439 10.5365854,13.4268293 8.56097561,13.4268293 C7.02439024,13.4634146 5.63414634,12.5487805 5.12195122,11.1219512 C4.46341463,10.9756098 3.87804878,10.7195122 3.32926829,10.3536585 L3.32926829,10.3536585 C3.58536585,13.0243902 5.8902439,15 8.56097561,14.9634146 C11.2682927,14.9634146 13.5365854,12.9146341 13.7926829,10.2073171 C13.3170732,9.95121951 12.8414634,9.80487805 12.2926829,9.69512195 Z" id="Path" fill="#221E1F"></path>
                <path d="M76.1341463,3.18292683 L64.6463415,3.18292683 C64.0243902,3.18292683 63.5487805,3.65853659 63.5487805,4.2804878 L63.5487805,15.4756098 C63.5487805,16.097561 64.0243902,16.5731707 64.6463415,16.5731707 L76.1341463,16.5731707 C76.7560976,16.5731707 77.2317073,16.097561 77.2317073,15.4756098 L77.2317073,4.2804878 C77.2317073,3.65853659 76.7195122,3.18292683 76.1341463,3.18292683 Z M76.1341463,16.1341463 L64.6463415,16.1341463 C64.2804878,16.1341463 63.9878049,15.8414634 63.9878049,15.4756098 L63.9878049,15.4756098 L63.9878049,12.5121951 L76.7560976,12.5121951 L76.7560976,15.4756098 C76.7560976,15.8414634 76.4634146,16.1341463 76.1341463,16.1341463 L76.1341463,16.1341463 Z" id="Shape" fill="#221E1F"></path>
                <path d="M76.5731707,11.7804878 L73.1707317,9.54878049 C73.2439024,9.25609756 73.3170732,8.96341463 73.3170732,8.67073171 C73.3170732,7.35365854 72.4390244,6.14634146 71.1585366,5.7804878 L71.7804878,4.7195122 C71.8170732,4.64634146 71.8170732,4.57317073 71.7804878,4.5 C71.7439024,4.42682927 71.6707317,4.3902439 71.597561,4.3902439 L69.0365854,4.3902439 C68.9268293,4.3902439 68.8170732,4.5 68.8170732,4.6097561 C68.8170732,4.64634146 68.8170732,4.68292683 68.8536585,4.7195122 L69.4756098,5.7804878 C69.0731707,5.8902439 68.7073171,6.1097561 68.3780488,6.36585366 L64.4634146,3.76829268 C64.3536585,3.69512195 64.2804878,3.69512195 64.2439024,3.73170732 L64.097561,3.91463415 C64.0609756,3.95121951 64.1341463,4.02439024 64.2073171,4.09756098 L68.0487805,6.62195122 C66.9512195,7.86585366 67.0609756,9.76829268 68.2682927,10.8658537 C69.5121951,11.9634146 71.4146341,11.8536585 72.5121951,10.6463415 C72.695122,10.4268293 72.8780488,10.1707317 72.9878049,9.91463415 L76.3170732,12.1097561 C76.3902439,12.1829268 76.5,12.1829268 76.5365854,12.1463415 L76.6829268,11.9634146 C76.7195122,11.9268293 76.6463415,11.8536585 76.5731707,11.7804878 Z" id="Path" fill="#FFFFFF"></path>
                <path d="M71.7073171,8.52439024 L72,7.46341463 L71.5609756,7.46341463 L71.2682927,8.52439024 L70.8658537,8.52439024 L70.7560976,8.12195122 L70.7560976,8.12195122 L70.6097561,7.46341463 L70.1707317,7.46341463 L69.8780488,8.52439024 L69.4756098,8.52439024 L69.1829268,7.46341463 L68.7439024,7.46341463 L69.0365854,8.52439024 L68.4146341,8.52439024 L68.4146341,8.92682927 L69.1463415,8.92682927 L69.4390244,10.097561 L69.8780488,10.097561 L69.9512195,9.80487805 L69.9512195,9.80487805 L70.2073171,8.92682927 L70.5731707,8.92682927 L70.7560976,9.65853659 L70.8658537,10.097561 L71.304878,10.097561 L71.6341463,8.92682927 L72.402439,8.92682927 L72.402439,8.52439024 L71.7073171,8.52439024 Z M69.7682927,8.92682927 C69.7317073,9.1097561 69.695122,9.25609756 69.6585366,9.40243902 C69.6219512,9.25609756 69.5853659,9.07317073 69.5487805,8.92682927 L69.7682927,8.92682927 Z M70.2804878,8.52439024 C70.3170732,8.41463415 70.3536585,8.26829268 70.3536585,8.15853659 C70.3536585,8.26829268 70.3902439,8.37804878 70.4268293,8.52439024 L70.2804878,8.52439024 Z M71.1585366,8.92682927 C71.1219512,9.07317073 71.0853659,9.25609756 71.0487805,9.40243902 C71.0121951,9.25609756 70.9756098,9.07317073 70.9390244,8.92682927 L71.1585366,8.92682927 Z" id="Shape" fill="#221E1F"></path>
                <polygon id="Path" fill="#221E1F" points="69.804878 13.2439024 70.097561 13.2439024 70.097561 15.5853659 69.7317073 15.5853659 68.7073171 13.7560976 68.7073171 15.5853659 68.4146341 15.5853659 68.4146341 13.2439024 68.7804878 13.2439024 69.7682927 15.0731707"></polygon>
                <path d="M70.6829268,13.5365854 C70.8292683,13.2804878 71.1219512,13.1707317 71.4146341,13.1707317 C71.6707317,13.1341463 71.8902439,13.2439024 72.0365854,13.4268293 C72.1463415,13.5731707 72.2195122,13.7560976 72.2560976,13.9390244 L71.9634146,13.9390244 C71.9268293,13.8292683 71.8902439,13.7195122 71.8170732,13.6097561 C71.7073171,13.5 71.5609756,13.4268293 71.4146341,13.4268293 C71.2317073,13.4268293 71.0487805,13.5365854 70.9390244,13.6829268 C70.7926829,13.902439 70.7560976,14.1585366 70.7560976,14.4146341 C70.7560976,14.6707317 70.7926829,14.8902439 70.9390244,15.1097561 C71.0487805,15.2560976 71.2317073,15.3658537 71.4146341,15.3292683 C71.597561,15.3292683 71.7439024,15.2560976 71.8170732,15.1097561 C71.8902439,14.9634146 71.9634146,14.8170732 71.9634146,14.6707317 L72.2560976,14.6707317 C72.2195122,14.8902439 72.1463415,15.1097561 72,15.2926829 C71.8536585,15.5121951 71.597561,15.6219512 71.3414634,15.5853659 C71.0853659,15.5853659 70.7926829,15.4756098 70.6463415,15.2560976 C70.4634146,15 70.3902439,14.6707317 70.3902439,14.3414634 C70.4268293,14.0853659 70.5365854,13.7926829 70.6829268,13.5365854 Z" id="Path" fill="#221E1F"></path>
                <path d="M15.5853659,19.7560976 L16.5,19.7560976 L16.5,21.5487805 L16.5,21.5487805 C16.5731707,21.402439 16.6829268,21.2560976 16.7926829,21.1097561 L17.7073171,19.7926829 L18.8414634,19.7926829 L17.5243902,21.5121951 L18.9146341,23.8170732 L17.8170732,23.8170732 L16.8292683,22.0609756 L16.5,22.5 L16.5,23.8170732 L15.5853659,23.8170732 L15.5853659,19.7560976 Z" id="Path" fill="#FFFFFF"></path>
                <path d="M20.5609756,23.8170732 C19.3902439,23.8170732 18.6585366,22.902439 18.6585366,21.7682927 C18.6585366,20.5609756 19.4268293,19.6463415 20.6341463,19.6463415 C21.8780488,19.6463415 22.5365854,20.5609756 22.5365854,21.695122 C22.5365854,23.0487805 21.7682927,23.8170732 20.5609756,23.8170732 L20.5609756,23.8170732 Z M20.6341463,23.0853659 C21.2560976,23.0853659 21.5853659,22.5 21.5853659,21.7317073 C21.5853659,21 21.2560976,20.3780488 20.6341463,20.3780488 C20.0121951,20.3780488 19.6463415,21 19.6463415,21.7317073 C19.6463415,22.4634146 20.0121951,23.0853659 20.6341463,23.0853659 L20.6341463,23.0853659 Z" id="Shape" fill="#FFFFFF"></path>
                <path d="M26.3414634,23.5609756 C25.902439,23.7073171 25.4634146,23.7804878 24.9878049,23.7804878 C24.402439,23.8170732 23.8170732,23.6341463 23.3414634,23.2317073 C22.9756098,22.8292683 22.7560976,22.3170732 22.7926829,21.7682927 C22.7926829,20.4146341 23.7804878,19.6829268 25.097561,19.6829268 C25.4634146,19.6829268 25.8658537,19.7195122 26.195122,19.8658537 L26.0121951,20.597561 C25.7195122,20.4878049 25.3902439,20.4146341 25.097561,20.4146341 C24.3658537,20.4146341 23.7804878,20.9634146 23.7439024,21.695122 C23.7073171,22.4268293 24.2926829,23.0121951 25.0243902,23.0487805 C25.1707317,23.0487805 25.3170732,23.0487805 25.4634146,22.9756098 L25.4634146,22.1341463 L24.8414634,22.1341463 L24.8414634,21.402439 L26.3414634,21.402439 L26.3414634,23.5609756 L26.3414634,23.5609756 Z" id="Path" fill="#FFFFFF"></path>
                <polygon id="Path" fill="#FFFFFF" points="26.9268293 19.7560976 27.8414634 19.7560976 27.8414634 23.0121951 29.4512195 23.0121951 29.4512195 23.7804878 26.9268293 23.7804878"></polygon>
                <path d="M45.9878049,20.4512195 L46.3170732,20.4512195 L46.3170732,21.6219512 L46.3170732,21.6219512 C46.3902439,21.5487805 46.4268293,21.4390244 46.5,21.3658537 L47.2317073,20.4512195 L47.6341463,20.4512195 L46.7560976,21.4756098 L47.7073171,22.8658537 L47.3414634,22.8658537 L46.5365854,21.6585366 L46.3170732,21.9146341 L46.3170732,22.8292683 L45.9878049,22.8292683 L45.9878049,20.4512195 Z" id="Path" fill="#FFFFFF"></path>
                <path d="M49.5,21.9512195 C49.5365854,22.4268293 49.2073171,22.8292683 48.7317073,22.8658537 C48.695122,22.8658537 48.6585366,22.8658537 48.6219512,22.8658537 C48.1829268,22.8658537 47.7804878,22.5 47.7804878,22.0609756 C47.7804878,22.0243902 47.7804878,22.0243902 47.7804878,21.9878049 C47.7439024,21.5121951 48.0731707,21.1097561 48.5487805,21.0731707 C48.5853659,21.0731707 48.6219512,21.0731707 48.6219512,21.0731707 C49.0609756,21.0731707 49.4634146,21.4390244 49.4634146,21.8780488 C49.5,21.9146341 49.5,21.9512195 49.5,21.9512195 Z M48.1097561,21.9512195 C48.1097561,22.3170732 48.3292683,22.6097561 48.6585366,22.6097561 C48.9878049,22.6097561 49.2073171,22.3170732 49.2073171,21.9512195 C49.2073171,21.6585366 49.0609756,21.2926829 48.695122,21.2926829 C48.3292683,21.2926829 48.1097561,21.6585366 48.1097561,21.9512195 L48.1097561,21.9512195 Z" id="Shape" fill="#FFFFFF"></path>
                <path d="M49.902439,21.6585366 C49.902439,21.4390244 49.902439,21.2926829 49.902439,21.1097561 L50.195122,21.1097561 L50.195122,21.4390244 L50.195122,21.4390244 C50.2682927,21.2195122 50.4512195,21.0731707 50.6707317,21.0731707 C50.7073171,21.0731707 50.7439024,21.0731707 50.7439024,21.0731707 L50.7439024,21.3658537 C50.7073171,21.3658537 50.6707317,21.3658537 50.6341463,21.3658537 C50.4146341,21.3658537 50.2317073,21.5487805 50.195122,21.7682927 C50.195122,21.804878 50.195122,21.8780488 50.195122,21.9146341 L50.195122,22.8292683 L49.8658537,22.8292683 L49.902439,21.6585366 Z" id="Path" fill="#FFFFFF"></path>
                <path d="M51.2195122,22.0243902 C51.1829268,22.3170732 51.4390244,22.6097561 51.7317073,22.6097561 C51.7682927,22.6097561 51.7682927,22.6097561 51.804878,22.6097561 C51.9878049,22.6097561 52.1341463,22.5731707 52.2804878,22.5365854 L52.3536585,22.7560976 C52.1707317,22.8292683 51.9878049,22.8658537 51.7682927,22.8658537 C51.3292683,22.902439 50.9268293,22.5365854 50.9268293,22.097561 C50.9268293,22.0609756 50.9268293,22.0243902 50.9268293,21.9878049 C50.8902439,21.5121951 51.2195122,21.1097561 51.6585366,21.0365854 C51.695122,21.0365854 51.695122,21.0365854 51.7317073,21.0365854 C52.1341463,21.0365854 52.4634146,21.3658537 52.4634146,21.7682927 C52.4634146,21.804878 52.4634146,21.8414634 52.4634146,21.8780488 C52.4634146,21.9512195 52.4634146,21.9878049 52.4634146,22.0243902 L51.2195122,22.0243902 Z M52.1341463,21.804878 C52.1707317,21.5487805 51.9878049,21.3292683 51.7317073,21.2926829 C51.7317073,21.2926829 51.695122,21.2926829 51.695122,21.2926829 C51.4390244,21.3292683 51.2195122,21.5487805 51.2195122,21.804878 L52.1341463,21.804878 Z" id="Shape" fill="#FFFFFF"></path>
                <path d="M54.0731707,22.4268293 C54.0731707,22.5731707 54.0731707,22.7195122 54.1097561,22.8292683 L53.8170732,22.8292683 L53.7804878,22.6097561 L53.7804878,22.6097561 C53.6707317,22.7926829 53.4512195,22.8658537 53.2317073,22.8658537 C52.9756098,22.902439 52.7195122,22.6829268 52.7195122,22.4268293 C52.7195122,22.4268293 52.7195122,22.3902439 52.7195122,22.3902439 C52.7195122,21.9512195 53.0853659,21.7317073 53.7804878,21.7317073 L53.7804878,21.695122 C53.8170732,21.5121951 53.6707317,21.3292683 53.4512195,21.2926829 C53.4146341,21.2926829 53.4146341,21.2926829 53.3780488,21.2926829 C53.2317073,21.2926829 53.0487805,21.3292683 52.9390244,21.4390244 L52.8658537,21.2195122 C53.0487805,21.1097561 53.2317073,21.0731707 53.4512195,21.0731707 C54,21.0731707 54.1097561,21.4390244 54.1097561,21.804878 L54.0731707,22.4268293 Z M53.7804878,21.9512195 C53.4512195,21.9512195 53.0487805,22.0243902 53.0487805,22.3536585 C53.0487805,22.5 53.1585366,22.6463415 53.304878,22.6463415 C53.304878,22.6463415 53.3414634,22.6463415 53.3414634,22.6463415 C53.5243902,22.6463415 53.7073171,22.5365854 53.7804878,22.3536585 C53.7804878,22.3170732 53.7804878,22.2804878 53.7804878,22.2439024 L53.7804878,21.9512195 Z" id="Shape" fill="#FFFFFF"></path>
                <path d="M57.4390244,21.6219512 C57.4390244,22.4634146 56.9268293,22.902439 56.304878,22.902439 C55.6829268,22.902439 55.2073171,22.3902439 55.2073171,21.6585366 C55.2073171,20.9268293 55.6829268,20.3780488 56.3414634,20.3780488 C57,20.3780488 57.4390244,20.8902439 57.4390244,21.6219512 Z M55.5365854,21.6585366 C55.5365854,22.1707317 55.8292683,22.6463415 56.304878,22.6463415 C56.7804878,22.6463415 57.0731707,22.2073171 57.0731707,21.6219512 C57.0731707,21.1463415 56.8170732,20.6341463 56.304878,20.6341463 C55.7926829,20.6341463 55.5365854,21.1097561 55.5365854,21.6585366 L55.5365854,21.6585366 Z" id="Shape" fill="#FFFFFF"></path>
                <path d="M57.8414634,21.695122 C57.8414634,21.4756098 57.8414634,21.2926829 57.8414634,21.1463415 L58.1341463,21.1463415 L58.1341463,21.4390244 L58.1341463,21.4390244 C58.2804878,21.2195122 58.5,21.1097561 58.7560976,21.1097561 C59.195122,21.1463415 59.5243902,21.5121951 59.4878049,21.9512195 C59.4878049,21.9512195 59.4878049,21.9878049 59.4878049,21.9878049 C59.5609756,22.4268293 59.2317073,22.8658537 58.7926829,22.902439 C58.7560976,22.902439 58.7195122,22.902439 58.7195122,22.902439 C58.5,22.902439 58.3170732,22.7926829 58.1707317,22.6097561 L58.1707317,22.6097561 L58.1707317,23.5609756 L57.8780488,23.5609756 L57.8414634,21.695122 Z M58.1341463,22.1341463 C58.1341463,22.1707317 58.1341463,22.2073171 58.1341463,22.2804878 C58.2073171,22.5 58.3902439,22.6463415 58.6097561,22.6463415 C58.9390244,22.6463415 59.1585366,22.3536585 59.1585366,21.9878049 C59.1585366,21.6219512 58.9756098,21.3292683 58.6463415,21.3292683 C58.4268293,21.3292683 58.2073171,21.5121951 58.1707317,21.7317073 C58.1707317,21.7682927 58.1341463,21.804878 58.1341463,21.8780488 L58.1341463,22.1341463 Z" id="Shape" fill="#FFFFFF"></path>
                <path d="M60.0731707,22.0243902 C60.0365854,22.3170732 60.2560976,22.6097561 60.5853659,22.6097561 C60.6219512,22.6097561 60.6585366,22.6097561 60.695122,22.6097561 C60.8780488,22.6097561 61.0243902,22.5731707 61.1707317,22.5365854 L61.2439024,22.7560976 C61.0609756,22.8292683 60.8780488,22.8658537 60.6585366,22.8658537 C60.2195122,22.902439 59.8170732,22.5731707 59.8170732,22.097561 C59.8170732,22.0609756 59.8170732,22.0243902 59.8170732,21.9878049 C59.7804878,21.5121951 60.1097561,21.1097561 60.5487805,21.0365854 C60.5853659,21.0365854 60.5853659,21.0365854 60.6219512,21.0365854 C61.0243902,21.0365854 61.3536585,21.3658537 61.3536585,21.7682927 C61.3536585,21.804878 61.3536585,21.8414634 61.3536585,21.8780488 C61.3536585,21.9146341 61.3536585,21.9878049 61.3536585,22.0243902 L60.0731707,22.0243902 L60.0731707,22.0243902 Z M60.9878049,21.804878 C61.0243902,21.5487805 60.8414634,21.3292683 60.6219512,21.2926829 C60.5853659,21.2926829 60.5853659,21.2926829 60.5487805,21.2926829 C60.2926829,21.3292683 60.0731707,21.5487805 60.0731707,21.804878 L60.9878049,21.804878 Z" id="Shape" fill="#FFFFFF"></path>
                <path d="M61.6829268,21.5853659 C61.6829268,21.402439 61.6829268,21.2560976 61.6829268,21.1097561 L61.9756098,21.1097561 L61.9756098,21.402439 L61.9756098,21.402439 C62.0853659,21.1829268 62.304878,21.0731707 62.5609756,21.0731707 C62.8170732,21.0731707 63.1829268,21.2195122 63.1829268,21.804878 L63.1829268,22.8292683 L62.8536585,22.8292683 L62.8536585,21.8414634 C62.8536585,21.5487805 62.7439024,21.3292683 62.4512195,21.3292683 C62.2682927,21.3292683 62.0853659,21.4756098 62.0121951,21.6585366 C62.0121951,21.695122 62.0121951,21.7682927 62.0121951,21.804878 L62.0121951,22.8658537 L61.6829268,22.8658537 L61.6829268,21.5853659 Z" id="Path" fill="#FFFFFF"></path>
                <path d="M66.2926829,22.7560976 C66.0731707,22.8292683 65.8170732,22.902439 65.5609756,22.902439 C64.9390244,22.9756098 64.3902439,22.5 64.3170732,21.8780488 C64.3170732,21.804878 64.3170732,21.7317073 64.3170732,21.6585366 C64.2804878,21 64.8292683,20.4146341 65.4878049,20.4146341 C65.5243902,20.4146341 65.597561,20.4146341 65.6341463,20.4146341 C65.8536585,20.4146341 66.0365854,20.4512195 66.2560976,20.5243902 L66.1829268,20.7804878 C66,20.7073171 65.8170732,20.6707317 65.6341463,20.6707317 C65.1219512,20.6341463 64.6829268,21 64.6463415,21.5121951 C64.6463415,21.5487805 64.6463415,21.6219512 64.6463415,21.6585366 C64.6097561,22.1341463 64.9390244,22.5731707 65.4512195,22.6463415 C65.4878049,22.6463415 65.5609756,22.6463415 65.597561,22.6463415 C65.7439024,22.6463415 65.8902439,22.6463415 66,22.5731707 L66,21.8414634 L65.5243902,21.8414634 L65.5243902,21.5853659 L66.2926829,21.5853659 L66.2926829,22.7560976 L66.2926829,22.7560976 Z" id="Path" fill="#FFFFFF"></path>
                <path d="M68.3780488,21.9512195 C68.4146341,22.4268293 68.0853659,22.8292683 67.6097561,22.8658537 C67.5731707,22.8658537 67.5365854,22.8658537 67.5365854,22.8658537 C67.0609756,22.8658537 66.695122,22.5 66.695122,22.0609756 C66.695122,22.0243902 66.695122,22.0243902 66.695122,21.9878049 C66.6585366,21.5121951 66.9878049,21.1097561 67.4634146,21.0731707 C67.5,21.0731707 67.5365854,21.0731707 67.5365854,21.0731707 C67.9756098,21.0731707 68.3780488,21.4390244 68.3780488,21.8780488 C68.3780488,21.9146341 68.3780488,21.9512195 68.3780488,21.9512195 Z M66.9878049,21.9512195 C66.9878049,22.3170732 67.2073171,22.6097561 67.5365854,22.6097561 C67.8658537,22.6097561 68.0853659,22.3170732 68.0853659,21.9512195 C68.0853659,21.6585366 67.9390244,21.2926829 67.5731707,21.2926829 C67.2073171,21.2926829 66.9878049,21.6585366 66.9878049,21.9512195 L66.9878049,21.9512195 Z" id="Shape" fill="#FFFFFF"></path>
                <path d="M68.8536585,21.1097561 L69.1829268,22.097561 C69.2560976,22.2439024 69.2926829,22.3902439 69.3292683,22.5365854 L69.3292683,22.5365854 C69.3658537,22.3902439 69.402439,22.2439024 69.4756098,22.097561 L69.804878,21.1097561 L70.1341463,21.1097561 L69.4390244,22.8658537 L69.1463415,22.8658537 L68.4878049,21.1097561 L68.8536585,21.1097561 Z" id="Path" fill="#FFFFFF"></path>
                <path d="M70.6463415,22.0243902 C70.6097561,22.3170732 70.8658537,22.6097561 71.1585366,22.6097561 C71.195122,22.6097561 71.2317073,22.6097561 71.2317073,22.6097561 C71.3780488,22.6097561 71.5609756,22.5731707 71.7073171,22.5365854 L71.7804878,22.7560976 C71.597561,22.8292683 71.4146341,22.8658537 71.195122,22.8658537 C70.7560976,22.902439 70.3536585,22.5731707 70.3536585,22.097561 C70.3536585,22.0609756 70.3536585,22.0243902 70.3536585,21.9878049 C70.3170732,21.5121951 70.6463415,21.1097561 71.0853659,21.0365854 C71.1219512,21.0365854 71.1219512,21.0365854 71.1585366,21.0365854 C71.5609756,21.0365854 71.8902439,21.3658537 71.8902439,21.7682927 C71.8902439,21.804878 71.8902439,21.8414634 71.8902439,21.8780488 C71.8902439,21.9146341 71.8902439,21.9878049 71.8902439,22.0243902 L70.6463415,22.0243902 L70.6463415,22.0243902 Z M71.5609756,21.804878 C71.597561,21.5487805 71.4146341,21.3292683 71.1585366,21.2926829 C71.1585366,21.2926829 71.1219512,21.2926829 71.1219512,21.2926829 C70.8658537,21.3292683 70.6463415,21.5487805 70.6463415,21.804878 L71.5609756,21.804878 Z" id="Shape" fill="#FFFFFF"></path>
                <path d="M72.2560976,21.6585366 C72.2560976,21.4390244 72.2560976,21.2926829 72.2560976,21.1097561 L72.5121951,21.1097561 L72.5121951,21.4390244 L72.5121951,21.4390244 C72.5853659,21.2195122 72.7682927,21.0731707 72.9878049,21.0731707 C73.0243902,21.0731707 73.0609756,21.0731707 73.0609756,21.0731707 L73.0609756,21.3658537 C73.0243902,21.3658537 72.9878049,21.3658537 72.9512195,21.3658537 C72.7317073,21.3658537 72.5487805,21.5487805 72.5121951,21.7682927 C72.5121951,21.804878 72.5121951,21.8780488 72.5121951,21.9146341 L72.5121951,22.8292683 L72.1829268,22.8292683 L72.2560976,21.6585366 Z" id="Path" fill="#FFFFFF"></path>
                <path d="M73.4634146,21.5853659 C73.4634146,21.402439 73.4634146,21.2560976 73.4634146,21.1097561 L73.7560976,21.1097561 L73.7560976,21.402439 L73.7560976,21.402439 C73.8658537,21.1829268 74.0853659,21.0731707 74.3414634,21.0731707 C74.597561,21.0731707 74.9634146,21.2195122 74.9634146,21.804878 L74.9634146,22.8292683 L74.6341463,22.8292683 L74.6341463,21.8414634 C74.6341463,21.5487805 74.5243902,21.3292683 74.2317073,21.3292683 C74.0487805,21.3292683 73.8658537,21.4756098 73.7926829,21.6585366 C73.7926829,21.695122 73.7560976,21.7682927 73.7560976,21.804878 L73.7560976,22.8658537 L73.4268293,22.8658537 L73.4634146,21.5853659 Z" id="Path" fill="#FFFFFF"></path>
                <path d="M75.4390244,21.5853659 C75.4390244,21.4390244 75.4390244,21.2560976 75.4390244,21.1097561 L75.7317073,21.1097561 L75.7317073,21.402439 L75.7317073,21.402439 C75.8414634,21.1829268 76.0609756,21.0731707 76.2804878,21.0731707 C76.5,21.0731707 76.7195122,21.2195122 76.7560976,21.4390244 L76.7560976,21.4390244 C76.7926829,21.3658537 76.8658537,21.2560976 76.9390244,21.2195122 C77.0487805,21.1463415 77.1585366,21.1097561 77.304878,21.1097561 C77.5243902,21.1097561 77.8902439,21.2560976 77.8902439,21.8780488 L77.8902439,22.902439 L77.6341463,22.902439 L77.6341463,21.8780488 C77.6341463,21.5487805 77.5243902,21.3292683 77.2682927,21.3292683 C77.0853659,21.3292683 76.9390244,21.4390244 76.902439,21.6219512 C76.902439,21.6585366 76.8658537,21.7317073 76.8658537,21.7682927 L76.8658537,22.8292683 L76.5365854,22.8292683 L76.5365854,21.804878 C76.5365854,21.5121951 76.4268293,21.3292683 76.1707317,21.3292683 C75.9878049,21.3292683 75.8414634,21.4756098 75.7682927,21.6585366 C75.7682927,21.695122 75.7317073,21.7682927 75.7317073,21.804878 L75.7317073,22.8658537 L75.402439,22.8658537 L75.402439,21.5853659 L75.4390244,21.5853659 Z" id="Path" fill="#FFFFFF"></path>
                <path d="M78.6219512,22.0243902 C78.5853659,22.3170732 78.8414634,22.6097561 79.1341463,22.6097561 C79.1707317,22.6097561 79.2073171,22.6097561 79.2073171,22.6097561 C79.3902439,22.6097561 79.5365854,22.5731707 79.6829268,22.5365854 L79.7195122,22.7560976 C79.5365854,22.8292683 79.3536585,22.8658537 79.1341463,22.8658537 C78.695122,22.902439 78.2926829,22.5731707 78.2926829,22.097561 C78.2926829,22.0609756 78.2926829,22.0243902 78.2926829,21.9878049 C78.2560976,21.5121951 78.5853659,21.1097561 79.0243902,21.0365854 C79.0609756,21.0365854 79.0609756,21.0365854 79.097561,21.0365854 C79.5,21.0365854 79.8292683,21.3658537 79.8292683,21.7682927 C79.8292683,21.804878 79.8292683,21.8414634 79.8292683,21.8780488 C79.8292683,21.9146341 79.8292683,21.9878049 79.8292683,22.0243902 L78.6219512,22.0243902 L78.6219512,22.0243902 Z M79.5731707,21.804878 C79.6097561,21.5487805 79.4268293,21.3292683 79.2073171,21.2926829 C79.1707317,21.2926829 79.1707317,21.2926829 79.1341463,21.2926829 C78.8780488,21.3292683 78.6585366,21.5487805 78.6585366,21.804878 L79.5731707,21.804878 Z" id="Shape" fill="#FFFFFF"></path>
                <path d="M80.2682927,21.5853659 C80.2682927,21.402439 80.2682927,21.2560976 80.2682927,21.1097561 L80.5609756,21.1097561 L80.5609756,21.402439 L80.5609756,21.402439 C80.6707317,21.1829268 80.8902439,21.0731707 81.1463415,21.0731707 C81.402439,21.0731707 81.7682927,21.2195122 81.7682927,21.804878 L81.7682927,22.8292683 L81.4390244,22.8292683 L81.4390244,21.8414634 C81.4390244,21.5487805 81.3292683,21.3292683 81.0365854,21.3292683 C80.8536585,21.3292683 80.6707317,21.4756098 80.597561,21.6585366 C80.597561,21.695122 80.5609756,21.7682927 80.5609756,21.804878 L80.5609756,22.8658537 L80.2317073,22.8658537 L80.2682927,21.5853659 Z" id="Path" fill="#FFFFFF"></path>
                <path d="M82.6463415,20.7073171 L82.6463415,21.1097561 L83.0853659,21.1097561 L83.0853659,21.3658537 L82.6463415,21.3658537 L82.6463415,22.3170732 C82.6463415,22.5365854 82.7195122,22.6463415 82.902439,22.6463415 C82.9756098,22.6463415 83.0121951,22.6463415 83.0853659,22.6097561 L83.0853659,22.8658537 C83.0121951,22.902439 82.902439,22.902439 82.7926829,22.902439 C82.6829268,22.902439 82.5365854,22.8658537 82.4634146,22.7560976 C82.3536585,22.6097561 82.3170732,22.4634146 82.3536585,22.3170732 L82.3536585,21.3658537 L82.097561,21.3658537 L82.097561,21.1097561 L82.3536585,21.1097561 L82.3536585,20.7804878 L82.6463415,20.7073171 Z" id="Path" fill="#FFFFFF"></path>
                <polygon id="Path" fill="#FFFFFF" points="84.2195122 20.4512195 84.5487805 20.4512195 84.5487805 22.6097561 85.5731707 22.6097561 85.5731707 22.8658537 84.2195122 22.8658537 84.2195122 20.4512195"></polygon>
                <path d="M86.8658537,20.6341463 C86.8658537,20.7439024 86.5931264,20.8170732 86.3203991,20.8170732 C86.1385809,20.8170732 85.9567627,20.7439024 85.8658537,20.6341463 C85.8658537,20.5243902 86.0476718,20.4512195 86.3203991,20.4512195 C86.5931264,20.4146341 86.8658537,20.4878049 86.8658537,20.6341463 C86.8658537,20.597561 86.8658537,20.597561 86.8658537,20.6341463 Z M85.9567627,22.8658537 L85.9567627,21.1097561 L86.7749446,21.1097561 L86.7749446,22.8658537 L85.9567627,22.8658537 Z" id="Shape" fill="#FFFFFF"></path>
                <path d="M87.9878049,22.7926829 C87.8414634,22.8658537 87.6585366,22.902439 87.4756098,22.902439 C87,22.9390244 86.6341463,22.5731707 86.597561,22.097561 C86.597561,22.0609756 86.597561,22.0243902 86.597561,21.9878049 C86.5609756,21.5121951 86.9634146,21.0731707 87.4390244,21.0731707 C87.4756098,21.0731707 87.5121951,21.0731707 87.5121951,21.0731707 C87.6585366,21.0731707 87.804878,21.1097561 87.9512195,21.1463415 L87.8780488,21.402439 C87.7682927,21.3292683 87.6219512,21.3292683 87.5121951,21.3292683 C87.1463415,21.3292683 86.8536585,21.6219512 86.8536585,21.9878049 C86.8536585,22.3536585 87.1463415,22.6463415 87.5121951,22.6463415 C87.6585366,22.6463415 87.7682927,22.6097561 87.9146341,22.5731707 L87.9878049,22.7926829 Z" id="Path" fill="#FFFFFF"></path>
                <path d="M88.5365854,22.0243902 C88.5,22.3170732 88.7195122,22.6097561 89.0487805,22.6097561 C89.0853659,22.6097561 89.1219512,22.6097561 89.1585366,22.6097561 C89.3414634,22.6097561 89.4878049,22.5731707 89.6341463,22.5365854 L89.7073171,22.7560976 C89.5243902,22.8292683 89.3414634,22.8658537 89.1219512,22.8658537 C88.6829268,22.902439 88.2804878,22.5365854 88.2439024,22.097561 C88.2439024,22.0609756 88.2439024,22.0243902 88.2439024,21.9878049 C88.2073171,21.5121951 88.5365854,21.1097561 88.9756098,21.0365854 C89.0121951,21.0365854 89.0121951,21.0365854 89.0487805,21.0365854 C89.4512195,21.0365854 89.7804878,21.3658537 89.7804878,21.7682927 C89.7804878,21.804878 89.7804878,21.8414634 89.7804878,21.8780488 C89.7804878,21.9512195 89.7804878,21.9878049 89.7804878,22.0243902 L88.5365854,22.0243902 L88.5365854,22.0243902 Z M89.4512195,21.804878 C89.4878049,21.5487805 89.304878,21.3292683 89.0487805,21.2926829 C89.0487805,21.2926829 89.0121951,21.2926829 89.0121951,21.2926829 C88.7560976,21.3292683 88.5365854,21.5487805 88.5365854,21.804878 L89.4512195,21.804878 Z" id="Shape" fill="#FFFFFF"></path>
                <path d="M90.1463415,21.5853659 C90.1463415,21.402439 90.1463415,21.2560976 90.1463415,21.1097561 L90.4390244,21.1097561 L90.4390244,21.402439 L90.4390244,21.402439 C90.5487805,21.1829268 90.7682927,21.0731707 91.0243902,21.0731707 C91.2804878,21.0731707 91.6463415,21.2195122 91.6463415,21.804878 L91.6463415,22.8292683 L91.3170732,22.8292683 L91.3170732,21.8414634 C91.3170732,21.5487805 91.2073171,21.3292683 90.9146341,21.3292683 C90.7317073,21.3292683 90.5487805,21.4756098 90.4756098,21.6585366 C90.4756098,21.695122 90.4390244,21.7682927 90.4390244,21.804878 L90.4390244,22.8658537 L90.1097561,22.8658537 L90.1463415,21.5853659 Z" id="Path" fill="#FFFFFF"></path>
                <path d="M92.1219512,22.5365854 C92.2317073,22.6097561 92.3780488,22.6463415 92.5243902,22.6463415 C92.7439024,22.6463415 92.8536585,22.5365854 92.8536585,22.3902439 C92.8536585,22.2439024 92.7804878,22.1707317 92.5243902,22.0609756 C92.2317073,21.9512195 92.0487805,21.7682927 92.0487805,21.5853659 C92.0487805,21.2926829 92.304878,21.0731707 92.597561,21.0731707 C92.597561,21.0731707 92.6341463,21.0731707 92.6341463,21.0731707 C92.7804878,21.0731707 92.9268293,21.1097561 93.0731707,21.1829268 L93,21.402439 C92.8902439,21.3292683 92.7804878,21.2926829 92.6341463,21.2926829 C92.4512195,21.2926829 92.3414634,21.402439 92.3414634,21.5487805 C92.3414634,21.695122 92.4512195,21.7682927 92.6707317,21.8414634 C92.9634146,21.9512195 93.1463415,22.097561 93.1463415,22.3536585 C93.1463415,22.6097561 92.8902439,22.8658537 92.4878049,22.8658537 C92.304878,22.8658537 92.1585366,22.8292683 92.0121951,22.7560976 L92.1219512,22.5365854 Z" id="Path" fill="#FFFFFF"></path>
                <path d="M93.7317073,22.0243902 C93.695122,22.3170732 93.9512195,22.6097561 94.2439024,22.6097561 C94.2804878,22.6097561 94.3170732,22.6097561 94.3170732,22.6097561 C94.5,22.6097561 94.6463415,22.5731707 94.7926829,22.5365854 L94.8292683,22.7560976 C94.6463415,22.8292683 94.4634146,22.8658537 94.2439024,22.8658537 C93.804878,22.902439 93.402439,22.5731707 93.402439,22.097561 C93.402439,22.0609756 93.402439,22.0243902 93.402439,21.9878049 C93.3658537,21.5121951 93.695122,21.1097561 94.1341463,21.0365854 C94.1707317,21.0365854 94.1707317,21.0365854 94.2073171,21.0365854 C94.6097561,21.0365854 94.9390244,21.3658537 94.9390244,21.7682927 C94.9390244,21.804878 94.9390244,21.8414634 94.9390244,21.8780488 C94.9390244,21.9146341 94.9390244,21.9878049 94.9390244,22.0243902 L93.7317073,22.0243902 L93.7317073,22.0243902 Z M94.6829268,21.804878 C94.7195122,21.5487805 94.5365854,21.3292683 94.3170732,21.2926829 C94.2804878,21.2926829 94.2804878,21.2926829 94.2439024,21.2926829 C93.9878049,21.3292683 93.7682927,21.5487805 93.7682927,21.804878 L94.6829268,21.804878 Z" id="Shape" fill="#FFFFFF"></path>
            </g>
        </g>
    </g>
</svg>